SplineFontDB: 3.0
FontName: boon-400-oblique
FullName: Boon Book Oblique
FamilyName: Boon
Weight: 400
Copyright: Copyright (C) 2013 Sungsit Sawaiwan <http://sungsit.com/> \n\nThis font is free software: you can redistribute it and/or modify it under the terms of the GNU General Public License as published by the Free Software Foundation, either version 3 of the License, or (at your option) any later version. \n\nThis font is distributed in the hope that it will be useful, but WITHOUT ANY WARRANTY; without even the implied warranty of MERCHANTABILITY or FITNESS FOR A PARTICULAR PURPOSE. See the GNU General Public License for more details. \n\nYou should have received a copy of the GNU General Public License along with this program. If not, see <http://www.gnu.org/licenses/>. \n\nAs a special exception, if you create a document which uses this font, and embed this font or unaltered portions of this font into the document, this font does not by itself cause the resulting document to be covered by the GNU General Public License. This exception does not however invalidate any other reasons why the document might be covered by the GNU General Public License. If you modify this font, you may extend this exception to your version of the font, but you are not obligated to do so. If you do not wish to do so, delete this exception statement from your version.
UComments: "Created with FontForge 2.0 <http://fontforge.org/>" 

StartChar: uni0E04
Encoding: 3588 3588 0
Width: 670
VWidth: 0
Flags: W
HStem: 0 21G<480 584.617> 230 45<360.417 437.037> 365 45<371.856 447.198> 535 85<355.737 541.899>
LayerCount: 2
Fore
SplineSet
424.656 410 m 0
 474.656 410 505.421 370 493.878 320 c 0
 482.334 270 433.1 230 383.1 230 c 0
 344.1 230 316.871 255 311.721 289 c 1
 277.101 243 251.325 179 237.704 120 c 2
 207.691 -10 l 1
 207.691 -10 89.6152 -6 96.9258 30 c 1
 96.9258 30 128.238 79 142.321 140 c 0
 165.87 242 141.18 265 172.348 400 c 0
 203.977 537 327.139 620 473.139 620 c 0
 619.139 620 703.977 537 672.348 400 c 2
 580 0 l 1
 480 0 l 1
 572.348 400 l 2
 591.278 482 544.515 535 453.515 535 c 0
 362.515 535 291.278 482 272.348 400 c 0
 259.188 343 256.415 305 254.565 271 c 1
 291.881 346 352.656 410 424.656 410 c 0
414.267 365 m 0
 389.267 365 364.649 345 358.878 320 c 0
 353.106 295 368.488 275 393.488 275 c 0
 418.488 275 443.106 295 448.878 320 c 0
 454.649 345 439.267 365 414.267 365 c 0
EndSplineSet
EndChar

StartChar: uni0E05
Encoding: 3589 3589 2
Width: 670
VWidth: 0
Flags: W
HStem: 0 21G<480 584.617> 230 45<360.417 437.037> 365 45<370.768 447.198> 600 20G<358.639 407.807 529.235 587.639>
LayerCount: 2
Fore
SplineSet
424.656 410 m 0
 474.656 410 505.421 370 493.878 320 c 0
 482.334 270 433.1 230 383.1 230 c 0
 344.1 230 316.871 255 311.721 289 c 1
 277.101 243 251.325 179 237.704 120 c 2
 207.691 -10 l 1
 207.691 -10 89.6152 -6 96.9258 30 c 1
 96.9258 30 128.238 79 142.321 140 c 0
 165.87 242 145.798 285 176.965 420 c 0
 207.901 554 329.139 620 388.139 620 c 1
 456.978 550 l 1
 558.139 620 l 1
 617.139 620 707.901 554 676.965 420 c 2
 580 0 l 1
 480 0 l 1
 576.965 420 l 2
 596.589 505 547.36 530 547.36 530 c 1
 436.199 460 l 1
 357.36 530 l 1
 357.36 530 296.589 505 276.965 420 c 0
 262.882 359 258.954 316 256.72 276 c 1
 294.573 349 353.656 410 424.656 410 c 0
414.267 365 m 0
 389.267 365 364.649 345 358.878 320 c 0
 353.106 295 368.488 275 393.488 275 c 0
 418.488 275 443.106 295 448.878 320 c 0
 454.649 345 439.267 365 414.267 365 c 0
EndSplineSet
EndChar

StartChar: uni0E14
Encoding: 3604 3604 3
Width: 670
VWidth: 0
Flags: W
HStem: 0 21G<480 584.617> 230 45<361.159 383.1> 365 45<370.718 447.198> 535 85<355.737 541.899>
LayerCount: 2
Fore
SplineSet
424.656 410 m 0
 474.656 410 505.421 370 493.878 320 c 0
 459.479 171 234.703 107 207.691 -10 c 1
 207.691 -10 89.6152 -6 96.9258 30 c 1
 96.9258 30 128.238 79 142.321 140 c 0
 165.87 242 141.18 265 172.348 400 c 0
 203.977 537 327.139 620 473.139 620 c 0
 619.139 620 703.977 537 672.348 400 c 2
 580 0 l 1
 480 0 l 1
 572.348 400 l 2
 591.278 482 544.515 535 453.515 535 c 0
 362.515 535 291.278 482 272.348 400 c 0
 242.104 269 264.716 237 240.013 130 c 2
 237.704 120 l 1
 282.938 160 339.865 190 383.1 230 c 1
 333.1 230 302.334 270 313.878 320 c 0
 325.421 370 374.656 410 424.656 410 c 0
414.267 365 m 0
 389.267 365 364.649 345 358.878 320 c 0
 353.106 295 368.488 275 393.488 275 c 0
 418.488 275 443.106 295 448.878 320 c 0
 454.649 345 439.267 365 414.267 365 c 0
EndSplineSet
EndChar

StartChar: uni0E15
Encoding: 3605 3605 4
Width: 670
VWidth: 0
Flags: W
HStem: 0 21G<480 584.617> 230 45<361.159 383.1> 365 45<370.718 447.198> 600 20G<358.639 407.807 529.235 587.639>
LayerCount: 2
Fore
SplineSet
424.656 410 m 0
 474.656 410 505.421 370 493.878 320 c 0
 459.479 171 234.703 107 207.691 -10 c 1
 207.691 -10 89.6152 -6 96.9258 30 c 1
 96.9258 30 128.238 79 142.321 140 c 0
 165.87 242 145.798 285 176.965 420 c 0
 207.901 554 329.139 620 388.139 620 c 1
 456.978 550 l 1
 558.139 620 l 1
 617.139 620 707.901 554 676.965 420 c 2
 580 0 l 1
 480 0 l 1
 576.965 420 l 2
 596.589 505 547.36 530 547.36 530 c 1
 436.199 460 l 1
 357.36 530 l 1
 357.36 530 296.589 505 276.965 420 c 0
 246.721 289 264.716 237 240.013 130 c 2
 237.704 120 l 1
 282.938 160 339.865 190 383.1 230 c 1
 333.1 230 302.334 270 313.878 320 c 0
 325.421 370 374.656 410 424.656 410 c 0
414.267 365 m 0
 389.267 365 364.649 345 358.878 320 c 0
 353.106 295 368.488 275 393.488 275 c 0
 418.488 275 443.106 295 448.878 320 c 0
 454.649 345 439.267 365 414.267 365 c 0
EndSplineSet
EndChar

StartChar: uni0E01
Encoding: 3585 3585 5
Width: 670
VWidth: 0
Flags: W
HStem: 0 21G<130 234.617 480 584.617> 400 20<370.326 402.348> 535 85<362.442 544.927>
LayerCount: 2
Fore
SplineSet
230 0 m 1
 130 0 l 1
 196.952 290 l 2
 210.804 350 242.729 380 270.193 395 c 1
 176.965 420 l 1
 197.432 474 307.139 620 483.139 620 c 0
 624.139 620 703.515 535 672.348 400 c 2
 580 0 l 1
 480 0 l 1
 572.348 400 l 2
 591.278 482 549.515 535 463.515 535 c 0
 393.515 535 325.665 501 289.198 447 c 1
 406.965 420 l 1
 402.348 400 l 1
 402.348 400 321.424 396 296.952 290 c 2
 230 0 l 1
EndSplineSet
EndChar

StartChar: uni0E16
Encoding: 3606 3606 6
Width: 670
VWidth: 0
Flags: W
HStem: -10 60<213.461 301.332> 0 21G<480 584.617> 150 60<278.482 312.671> 400 20<370.326 402.348> 535 85<362.442 544.927>
LayerCount: 2
Fore
SplineSet
288.482 210 m 0x78
 349.482 210 387.17 161 373.087 100 c 0
 359.004 39 298.691 -10 237.691 -10 c 0xb8
 176.691 -10 139.004 39 153.087 100 c 2
 196.952 290 l 2
 210.804 350 242.729 380 270.193 395 c 1
 176.965 420 l 1
 197.432 474 307.139 620 483.139 620 c 0
 624.139 620 703.515 535 672.348 400 c 2
 580 0 l 1
 480 0 l 1
 572.348 400 l 2
 591.278 482 549.515 535 463.515 535 c 0
 393.515 535 325.665 501 289.198 447 c 1
 406.965 420 l 1
 402.348 400 l 1
 402.348 400 321.424 396 296.952 290 c 2
 278.482 210 l 1
 281.482 210 285.482 210 288.482 210 c 0x78
274.63 150 m 0
 246.63 150 219.551 128 213.087 100 c 0
 206.622 72 223.543 50 251.543 50 c 0
 279.543 50 306.622 72 313.087 100 c 0
 319.551 128 302.63 150 274.63 150 c 0
EndSplineSet
EndChar

StartChar: uni0E28
Encoding: 3624 3624 7
Width: 680
VWidth: 0
Flags: W
HStem: 0 21G<480 584.617> 230 45<360.417 437.037> 365 45<371.856 447.198> 535 85<355.737 541.968>
VStem: 696.225 90<645.159 720>
LayerCount: 2
Fore
SplineSet
414.267 365 m 0
 389.267 365 364.649 345 358.878 320 c 0
 353.106 295 368.488 275 393.488 275 c 0
 418.488 275 443.106 295 448.878 320 c 0
 454.649 345 439.267 365 414.267 365 c 0
424.656 410 m 0
 474.656 410 505.421 370 493.878 320 c 0
 482.334 270 433.1 230 383.1 230 c 0
 344.1 230 316.871 255 311.721 289 c 1
 277.101 243 251.325 179 237.704 120 c 2
 207.691 -10 l 1
 207.691 -10 89.6152 -6 96.9258 30 c 1
 96.9258 30 128.238 79 142.321 140 c 0
 165.87 242 141.18 265 172.348 400 c 0
 203.977 537 327.139 620 473.139 620 c 0
 535.139 620 585.676 605 622.211 577 c 1
 650.29 599 676.14 633 696.225 720 c 1
 786.225 720 l 1
 764.754 627 713.44 565 663.437 526 c 1
 679.587 492 683.66 449 672.348 400 c 2
 580 0 l 1
 480 0 l 1
 572.348 400 l 2
 591.278 482 544.515 535 453.515 535 c 0
 362.515 535 291.278 482 272.348 400 c 0
 259.188 343 256.415 305 254.565 271 c 1
 291.881 346 352.656 410 424.656 410 c 0
EndSplineSet
Substitution2: "Ascent Substitute" uni0E28.alt
EndChar

StartChar: uni0E20
Encoding: 3616 3616 8
Width: 690
VWidth: 0
Flags: W
HStem: -10 60<153.461 241.332> 0 21G<500 604.617> 150 60<165.338 224.482> 400 20<403.252 432.348> 535 85<382.457 564.927>
LayerCount: 2
Fore
SplineSet
692.348 400 m 2xb8
 600 0 l 1
 500 0 l 1x78
 592.348 400 l 2
 611.278 482 569.515 535 483.515 535 c 0
 413.515 535 345.665 501 309.429 448 c 1
 436.965 420 l 1
 432.348 400 l 1
 432.348 400 360.731 393 339.261 300 c 2
 330.025 260 l 2
 315.942 199 330.402 175 313.087 100 c 0
 299.004 39 238.691 -10 177.691 -10 c 0
 116.691 -10 79.0039 39 93.0869 100 c 0
 106.708 159 165.021 208 224.482 210 c 1
 223.561 219 224.023 234 230.025 260 c 2
 239.261 300 l 2
 251.266 352 278.499 379 301.962 394 c 1
 196.965 420 l 1
 217.432 474 327.139 620 503.139 620 c 0
 644.139 620 723.515 535 692.348 400 c 2xb8
214.63 150 m 0
 186.63 150 159.551 128 153.087 100 c 0
 146.622 72 163.543 50 191.543 50 c 0xb8
 219.543 50 246.622 72 253.087 100 c 0
 259.551 128 242.63 150 214.63 150 c 0
EndSplineSet
EndChar

StartChar: uni0E48
Encoding: 3656 3656 9
Width: 0
VWidth: 0
Flags: W
HStem: 990 250
VStem: 58.4873 127.789
LayerCount: 2
Fore
SplineSet
106.276 1240 m 1
 186.276 1240 l 1
 128.56 990 l 1
 58.4873 1033 l 1
 106.276 1240 l 1
EndSplineSet
Position2: "Nikhahit & Tone High-Left" dx=-240 dy=0 dh=0 dv=0
Position2: "Mai Han-Akat & Tone High-Left" dx=-300 dy=0 dh=0 dv=0
Position2: "Tone High-Left" dx=-180 dy=0 dh=0 dv=0
MultipleSubs2: "Tone High-Low" uni0E48.low
EndChar

StartChar: uni0E34
Encoding: 3636 3636 10
Width: 0
VWidth: 0
Flags: W
HStem: 890 70<-237.913 -63.7715>
AnchorPoint: "thai_above" 333.267 630 mark 0
LayerCount: 2
Fore
SplineSet
-270.303 826 m 1
 -186.765 824 -91.459 808 8.99805 758 c 1
 -15.8408 828 -57.5273 890 -154.527 890 c 0
 -206.527 890 -250.068 866 -270.303 826 c 1
-365.306 800 m 1
 -351.685 859 -270.366 960 -138.366 960 c 0
 42.6338 960 80.7695 783 61.6074 700 c 1
 -103.614 790 -244.306 800 -365.306 800 c 1
EndSplineSet
Substitution2: "Thai Tone & Vowel Above-Narrow" uni0E34.narrow
Position2: "Vowel Above-Left" dx=-140 dy=0 dh=0 dv=0
EndChar

StartChar: uni0E38
Encoding: 3640 3640 11
Width: 0
VWidth: 0
Flags: W
HStem: -240 50<-263.212 -245.408> -110 50<-257.86 -185.125>
VStem: -314.63 180
LayerCount: 2
Fore
SplineSet
-245.408 -240 m 1
 -295.408 -240 -326.174 -200 -314.63 -150 c 0
 -303.087 -100 -253.853 -60 -203.853 -60 c 0
 -153.853 -60 -123.087 -100 -134.63 -150 c 2
 -176.187 -330 l 1
 -266.187 -330 l 1
 -245.408 -240 l 1
-215.396 -110 m 0
 -237.396 -110 -259.551 -128 -264.63 -150 c 0
 -269.709 -172 -255.865 -190 -233.865 -190 c 0
 -211.865 -190 -189.709 -172 -184.63 -150 c 0
 -179.551 -128 -193.396 -110 -215.396 -110 c 0
EndSplineSet
Position2: "Vowel Below-Low" dx=0 dy=-200 dh=0 dv=0
EndChar

StartChar: uni0E35
Encoding: 3637 3637 12
Width: 0
VWidth: 0
Flags: W
HStem: 780 26<-275.92 -192.859> 870 70<-243.394 -64.8407>
AnchorPoint: "thai_above" 333.267 630 mark 0
LayerCount: 2
Fore
SplineSet
10.457 734 m 1
 -12.9199 806 -56.1445 870 -159.145 870 c 0
 -219.145 870 -257.147 844 -275.92 806 c 1
 -190.382 804 -91.3066 787 10.457 734 c 1
46.251 980 m 1
 119.325 950 l 1
 56.9902 680 l 1
 -108.231 770 -248.923 780 -369.923 780 c 1
 -355.609 842 -274.984 940 -142.984 940 c 0
 -35.9844 940 10.7764 848 30.6152 778 c 1
 26.6973 826 24.3184 885 32.3984 920 c 2
 46.251 980 l 1
EndSplineSet
Substitution2: "Thai Tone & Vowel Above-Narrow" uni0E35.narrow
Position2: "Vowel Above-Left" dx=-140 dy=0 dh=0 dv=0
EndChar

StartChar: uni0E48.low
Encoding: 63237 63237 13
Width: 0
VWidth: 0
Flags: W
HStem: 700 260<21.6338 51.6074>
VStem: -38.3926 150.026
AnchorPoint: "thai_above" 333.267 630 mark 0
LayerCount: 2
Fore
SplineSet
21.6338 960 m 1
 111.634 960 l 1
 51.6074 700 l 1
 -38.3926 700 l 1
 21.6338 960 l 1
EndSplineSet
Position2: "Tone Low-Left" dx=-220 dy=0 dh=0 dv=0
Substitution2: "Tone Low-High" uni0E48
EndChar

StartChar: uni0E49.low
Encoding: 63238 63238 14
Width: 0
VWidth: 0
Flags: W
HStem: 700 60<-293.386 -190.634 -149.54 -40.1375> 910 40<-183.521 -115.752>
VStem: 57.3984 95<856.768 920>
AnchorPoint: "thai_above" 333.267 630 mark 0
LayerCount: 2
Fore
SplineSet
-135.675 950 m 0
 -91.6748 950 -63.9863 914 -74.1445 870 c 0
 -88.9199 806 -149.54 760 -149.54 760 c 1
 -134.54 760 l 2
 -51.54 760 33.3887 816 57.3984 920 c 1
 152.398 920 l 1
 122.386 790 11.6074 700 -148.393 700 c 2
 -273.393 700 l 2
 -311.393 700 -304.54 760 -304.54 760 c 1
 -239.54 760 l 2
 -225.54 760 -203.77 772 -185.383 791 c 1
 -221.998 797 -243.379 830 -234.145 870 c 0
 -223.986 914 -179.675 950 -135.675 950 c 0
-144.91 910 m 0
 -166.91 910 -189.065 892 -194.145 870 c 0
 -199.224 848 -185.379 830 -163.379 830 c 0
 -141.379 830 -119.224 848 -114.145 870 c 0
 -109.065 892 -122.91 910 -144.91 910 c 0
EndSplineSet
Substitution2: "Thai Tone & Vowel Above-Narrow" uni0E49.narrow
Substitution2: "Thai Special Tone for Asc" uni0E49
Position2: "Tone Low-Left" dx=-220 dy=0 dh=0 dv=0
Substitution2: "Tone Low-High" uni0E49
EndChar

StartChar: uni0E4A.low
Encoding: 63239 63239 15
Width: 0
VWidth: 0
Flags: W
HStem: 695 40<-242.009 -179.513> 700 45<-88.0029 -57.002> 805 40<-230.95 -172.913> 890 50<-214.975 -142.501 -54.5273 -27.8813>
VStem: 99.707 75<852.192 930>
AnchorPoint: "thai_above" 333.267 630 mark 0
LayerCount: 2
Fore
SplineSet
-54.5273 890 m 1x78
 -93.7617 850 l 1
 -138.762 850 l 1
 -138.837 867 -152.527 890 -174.527 890 c 0
 -197.527 890 -220.837 867 -231.456 834 c 1
 -218.84 841 -203.916 845 -189.916 845 c 0
 -148.916 845 -122.766 811 -132.231 770 c 0
 -141.697 729 -183.547 695 -224.547 695 c 0xb8
 -280.547 695 -306.387 752 -290.688 820 c 0
 -274.989 888 -218.984 940 -162.984 940 c 0
 -126.984 940 -107.448 912 -101.835 893 c 1
 -62.9844 940 l 1
 -42.9844 940 l 2
 13.0156 940 45.2422 889 29.3115 820 c 0
 25.3867 803 18.6934 787 10.4609 773 c 1
 41.6172 791 77.3135 833 99.707 930 c 1
 174.707 930 l 1
 135.69 761 55.6074 700 -98.3926 700 c 1
 -88.0029 745 l 1
 -66.0029 745 -35.6152 777 -25.6885 820 c 0
 -15.7607 863 -32.5273 890 -54.5273 890 c 1x78
-199.151 805 m 0
 -218.151 805 -237.845 789 -242.231 770 c 0
 -246.618 751 -234.312 735 -215.312 735 c 0
 -196.312 735 -176.618 751 -172.231 770 c 0
 -167.845 789 -180.151 805 -199.151 805 c 0
EndSplineSet
Substitution2: "Thai Tone & Vowel Above-Narrow" uni0E4A.narrow
Substitution2: "Thai Special Tone for Asc" uni0E4A
Position2: "Tone Low-Left" dx=-200 dy=0 dh=0 dv=0
Substitution2: "Tone Low-High" uni0E4A
EndChar

StartChar: uni0E4B.low
Encoding: 63240 63240 16
Width: 0
VWidth: 0
Flags: W
HStem: 800 60<-131.453 -35.3057 58.5469 154.694>
VStem: -145.306 313.853
AnchorPoint: "thai_above" 333.267 630 mark 0
LayerCount: 2
Fore
SplineSet
1.63379 960 m 1
 81.6338 960 l 1
 58.5469 860 l 1
 168.547 860 l 1
 154.694 800 l 1
 44.6943 800 l 1
 21.6074 700 l 1
 -58.3926 700 l 1
 -35.3057 800 l 1
 -145.306 800 l 1
 -131.453 860 l 1
 -21.4531 860 l 1
 1.63379 960 l 1
EndSplineSet
Position2: "Tone Low-Left" dx=-230 dy=0 dh=0 dv=0
Substitution2: "Tone Low-High" uni0E4B
EndChar

StartChar: uni0E4C.low
Encoding: 63241 63241 17
Width: 0
VWidth: 0
Flags: W
HStem: 700 40<-100.931 -37.9201>
VStem: 37.6338 84<922.861 960>
AnchorPoint: "thai_above" 333.267 630 mark 0
LayerCount: 2
Fore
SplineSet
-56.9971 810 m 0
 -76.9971 810 -96.6904 794 -101.077 775 c 0
 -105.464 756 -93.1572 740 -73.1572 740 c 0
 -54.1572 740 -35.4639 756 -31.0771 775 c 0
 -26.6904 794 -37.9971 810 -56.9971 810 c 0
37.6338 960 m 1
 121.634 960 l 1
 106.857 896 40.624 869 -7.99414 836 c 1
 8.00488 823 14.6943 800 8.92285 775 c 0
 -0.542969 734 -41.3926 700 -82.3926 700 c 0
 -124.393 700 -150.543 734 -141.077 775 c 0
 -118.683 872 22.165 893 37.6338 960 c 1
EndSplineSet
Position2: "Tone Low-Left" dx=-140 dy=0 dh=0 dv=0
Substitution2: "Tone Low-High" uni0E4C
EndChar

StartChar: uni0E10.descless
Encoding: 63232 63232 18
Width: 600
VWidth: 0
Flags: W
HStem: 130 55<208.044 289.016> 275 55<216.725 296.765> 400 45<282.736 416.251> 540 70<624.949 664.669> 550 70<346.622 539.741>
LayerCount: 2
Fore
SplineSet
172.348 400 m 1xe8
 203.515 535 333.139 620 453.139 620 c 0xe8
 537.139 620 571.212 590 599.286 560 c 1
 610.519 574 649.83 610 680.83 610 c 1
 664.669 540 l 1xf0
 633.669 540 598.589 505 581.971 485 c 1
 552.744 523 510.978 550 436.978 550 c 0
 358.978 550 297.741 497 282.736 445 c 1
 472.736 445 580.658 436 553.878 320 c 2
 493.853 60 l 2
 483.463 15 401.691 -10 357.691 -10 c 1
 369.393 84 361.554 154 341.174 200 c 1
 319.708 159 275.013 130 230.013 130 c 0
 175.013 130 140.402 175 153.1 230 c 0
 165.798 285 221.187 330 276.187 330 c 0
 361.187 330 403.33 231 405.165 109 c 1
 453.878 320 l 2
 471.424 396 409.348 400 172.348 400 c 1xe8
263.488 275 m 0
 238.488 275 213.871 255 208.1 230 c 0
 202.328 205 217.711 185 242.711 185 c 0
 267.711 185 292.328 205 298.1 230 c 0
 303.871 255 288.488 275 263.488 275 c 0
EndSplineSet
EndChar

StartChar: uni0E0D.descless
Encoding: 63247 63247 19
Width: 930
VWidth: 0
Flags: W
HStem: -20 85<615.612 747.038> -10 60<213.461 301.332> 150 60<278.482 312.671> 400 20<370.326 402.348> 535 85<362.442 544.927> 580 20G<873.903 978.521>
LayerCount: 2
Fore
SplineSet
274.63 150 m 0x70
 246.63 150 219.551 128 213.087 100 c 0
 206.622 72 223.543 50 251.543 50 c 0
 279.543 50 306.622 72 313.087 100 c 0
 319.551 128 302.63 150 274.63 150 c 0x70
288.482 210 m 2
 349.482 210 387.17 161 373.087 100 c 0
 359.004 39 298.691 -10 237.691 -10 c 0
 176.691 -10 139.004 39 153.087 100 c 2
 196.952 290 l 2
 210.804 350 242.729 380 270.193 395 c 1
 176.965 420 l 1
 197.432 474 307.139 620 483.139 620 c 0x78
 624.139 620 703.515 535 672.348 400 c 2
 610.013 130 l 2
 602.395 97 620.007 65 675.007 65 c 0
 730.007 65 762.395 97 770.013 130 c 2
 878.521 600 l 1
 978.521 600 l 1xb4
 870.013 130 l 2
 861.24 92 807.383 -20 655.383 -20 c 0
 503.383 -20 501.24 92 510.013 130 c 2
 572.348 400 l 2
 591.278 482 549.515 535 463.515 535 c 0xb8
 393.515 535 325.665 501 289.198 447 c 1
 406.965 420 l 1
 402.348 400 l 1
 402.348 400 321.424 396 296.952 290 c 2
 278.482 210 l 1
 288.482 210 l 2
EndSplineSet
EndChar

StartChar: uni0E36
Encoding: 3638 3638 20
Width: 0
VWidth: 0
Flags: W
HStem: 870 70<-242.53 -68.1841> 925 45<-10.0848 66.4843>
AnchorPoint: "thai_above" 333.267 630 mark 0
LayerCount: 2
Fore
SplineSet
-274.92 806 m 1x80
 -191.382 804 -96.0762 788 4.38086 738 c 1
 -20.459 808 -62.1445 870 -159.145 870 c 0
 -211.145 870 -254.686 846 -274.92 806 c 1x80
43.9424 970 m 0x40
 93.9424 970 124.707 930 113.164 880 c 0
 105.314 846 79.6191 817 48.9258 801 c 1
 62.7676 757 64.3779 712 56.9902 680 c 1
 -108.231 770 -248.923 780 -369.923 780 c 1
 -356.302 839 -274.984 940 -142.984 940 c 0x80
 -105.984 940 -74.8311 932 -48.6016 920 c 1
 -26.6748 950 8.94238 970 43.9424 970 c 0x40
33.5527 925 m 0x40
 8.55273 925 -16.0645 905 -21.8359 880 c 0
 -27.6074 855 -12.2246 835 12.7754 835 c 0
 37.7754 835 62.3926 855 68.1641 880 c 0
 73.9355 905 58.5527 925 33.5527 925 c 0x40
EndSplineSet
Substitution2: "Thai Tone & Vowel Above-Narrow" uni0E36.narrow
Position2: "Vowel Above-Left" dx=-140 dy=0 dh=0 dv=0
EndChar

StartChar: uni0E37
Encoding: 3639 3639 21
Width: 0
VWidth: 0
Flags: W
HStem: 770 26<-278.229 -195.168> 860 70<-245.703 -94.4472>
AnchorPoint: "thai_above" 333.267 630 mark 0
LayerCount: 2
Fore
SplineSet
8.14844 724 m 1
 -15.2285 796 -58.4531 860 -161.453 860 c 0
 -221.453 860 -259.456 834 -278.229 796 c 1
 -192.69 794 -93.6152 777 8.14844 724 c 1
53.9424 970 m 1
 117.016 940 l 1
 54.6816 670 l 1
 -110.54 760 -251.231 770 -372.231 770 c 1
 -357.918 832 -277.293 930 -145.293 930 c 0
 -127.293 930 -111.985 927 -96.9082 923 c 1
 -76.8232 1010 l 1
 -13.749 980 l 1
 -35.4512 886 l 1
 4.54492 847 23.3857 790 32.459 747 c 1
 31.002 797 30.8555 870 40.0898 910 c 2
 53.9424 970 l 1
EndSplineSet
Substitution2: "Thai Tone & Vowel Above-Narrow" uni0E37.narrow
Position2: "Vowel Above-Left" dx=-140 dy=0 dh=0 dv=0
EndChar

StartChar: uni0E2D
Encoding: 3629 3629 22
Width: 650
VWidth: 0
Flags: W
HStem: -20 90<244.418 443.398> 170 55<229.248 296.99> 325 55<219.933 306.949> 535 85<335.205 529.429>
VStem: 166.965 100<420 471.499>
LayerCount: 2
Fore
SplineSet
282.729 380 m 0
 340.729 380 376.879 333 363.488 275 c 0
 350.099 217 292.248 170 234.248 170 c 0
 232.248 170 231.248 170 229.248 170 c 1
 226.938 160 l 2
 211.933 95 262.161 70 341.161 70 c 0
 420.161 70 484.241 105 499.248 170 c 2
 556.965 420 l 2
 571.048 481 536.515 535 438.515 535 c 0
 340.515 535 281.048 481 266.965 420 c 1
 166.965 420 l 1
 193.515 535 307.139 620 458.139 620 c 0
 609.139 620 683.515 535 656.965 420 c 2
 599.248 170 l 2
 567.85 34 452.383 -20 320.383 -20 c 0
 188.383 -20 95.541 24 126.938 160 c 2
 153.488 275 l 2
 166.879 333 224.729 380 282.729 380 c 0
270.032 325 m 0
 242.032 325 214.953 303 208.488 275 c 0
 202.024 247 218.945 225 246.945 225 c 0
 274.945 225 302.024 247 308.488 275 c 0
 314.953 303 298.032 325 270.032 325 c 0
EndSplineSet
EndChar

StartChar: uni0E4D
Encoding: 3661 3661 23
Width: 0
VWidth: 0
Flags: W
HStem: 710 65<-55.9579 46.4038> 905 65<-38.5453 63.8164>
VStem: -126.07 260
AnchorPoint: "thai_above" 333.267 630 mark 0
LayerCount: 2
Fore
SplineSet
18.9355 905 m 0
 -17.0645 905 -52.7598 876 -61.0703 840 c 0
 -69.3818 804 -47.0771 775 -11.0771 775 c 0
 24.9229 775 60.6182 804 68.9297 840 c 0
 77.2402 876 54.9355 905 18.9355 905 c 0
33.9424 970 m 0
 105.942 970 150.552 912 133.93 840 c 0
 117.307 768 45.916 710 -26.084 710 c 0
 -98.084 710 -142.693 768 -126.07 840 c 0
 -109.448 912 -38.0576 970 33.9424 970 c 0
EndSplineSet
Position2: "Vowel Above-Left" dx=-220 dy=0 dh=0 dv=0
EndChar

StartChar: uni0E33
Encoding: 3635 3635 24
Width: 550
VWidth: 0
Flags: W
HStem: 0 21G<360 464.617> 535 85<287.239 437.962> 710 65<-55.9579 46.4038> 905 65<-38.5453 63.8164>
VStem: 122.348 100<400 465.708>
LayerCount: 2
Fore
SplineSet
452.348 400 m 2
 468.97 472 452.515 535 368.515 535 c 0
 284.515 535 238.97 472 222.348 400 c 1
 122.348 400 l 1
 153.977 537 262.139 620 388.139 620 c 0
 514.139 620 583.977 537 552.348 400 c 2
 460 0 l 1
 360 0 l 1
 452.348 400 l 2
18.9355 905 m 0
 -17.0645 905 -52.7598 876 -61.0703 840 c 0
 -69.3818 804 -47.0771 775 -11.0771 775 c 0
 24.9229 775 60.6182 804 68.9297 840 c 0
 77.2402 876 54.9355 905 18.9355 905 c 0
33.9424 970 m 0
 105.942 970 150.552 912 133.93 840 c 0
 117.307 768 45.916 710 -26.084 710 c 0
 -98.084 710 -142.693 768 -126.07 840 c 0
 -109.448 912 -38.0576 970 33.9424 970 c 0
EndSplineSet
MultipleSubs2: "Sara Am Decomposite" uni0E4D uni0E32
EndChar

StartChar: uni0E32
Encoding: 3634 3634 25
Width: 550
VWidth: 0
Flags: W
HStem: 0 21G<360 464.617> 535 85<287.239 437.962>
VStem: 122.348 100<400 465.708>
LayerCount: 2
Fore
SplineSet
452.348 400 m 2
 468.97 472 452.515 535 368.515 535 c 0
 284.515 535 238.97 472 222.348 400 c 1
 122.348 400 l 1
 153.977 537 262.139 620 388.139 620 c 0
 514.139 620 583.977 537 552.348 400 c 2
 460 0 l 1
 360 0 l 1
 452.348 400 l 2
EndSplineSet
Substitution2: "Sara AA Substitute" uni0E45
EndChar

StartChar: uni0E25
Encoding: 3621 3621 26
Width: 650
VWidth: 0
Flags: W
HStem: -20 55<190.997 278.179> 135 55<201.231 288.085> 310 70<277.925 456.454> 535 85<341.694 533.273>
VStem: 176.965 100<420 471.499>
LayerCount: 2
Fore
SplineSet
263.865 190 m 0
 321.865 190 358.014 143 344.624 85 c 0
 331.233 27 273.383 -20 215.383 -20 c 0
 142.383 -20 81.082 48 111.557 180 c 0
 139.261 300 242.729 380 367.729 380 c 0
 453.729 380 505.033 338 524.874 281 c 1
 556.965 420 l 2
 571.048 481 541.515 535 443.515 535 c 0
 345.515 535 291.048 481 276.965 420 c 1
 176.965 420 l 1
 203.515 535 312.139 620 463.139 620 c 0
 614.139 620 683.515 535 656.965 420 c 2
 566.926 30 l 2
 558.615 -6 447.691 -10 447.691 -10 c 1
 489.248 170 l 2
 504.946 238 472.569 310 371.569 310 c 0
 288.569 310 220.257 261 201.557 180 c 0
 200.863 177 200.171 174 199.479 171 c 1
 219.249 183 241.865 190 263.865 190 c 0
251.167 135 m 0
 223.167 135 196.088 113 189.624 85 c 0
 183.159 57 200.08 35 228.08 35 c 0
 256.08 35 283.159 57 289.624 85 c 0
 296.088 113 279.167 135 251.167 135 c 0
EndSplineSet
EndChar

StartChar: uni0E40
Encoding: 3648 3648 27
Width: 340
VWidth: 0
Flags: W
HStem: -10 60<173.461 261.332> 150 60<238.482 272.671> 580 20G<223.903 328.521>
VStem: 113.087 220
LayerCount: 2
Fore
SplineSet
234.63 150 m 0
 206.63 150 179.551 128 173.087 100 c 0
 166.622 72 183.543 50 211.543 50 c 0
 239.543 50 266.622 72 273.087 100 c 0
 279.551 128 262.63 150 234.63 150 c 0
228.521 600 m 1
 328.521 600 l 1
 238.482 210 l 1
 241.482 210 245.482 210 248.482 210 c 0
 309.482 210 347.17 161 333.087 100 c 0
 319.004 39 258.691 -10 197.691 -10 c 0
 136.691 -10 99.0039 39 113.087 100 c 2
 228.521 600 l 1
EndSplineSet
EndChar

StartChar: uni0E41
Encoding: 3649 3649 28
Width: 630
VWidth: 0
Flags: W
HStem: -10 60<173.461 261.332 463.461 551.332> 150 60<238.482 272.671 528.482 562.671> 580 20G<223.903 328.521 513.903 618.521>
LayerCount: 2
Fore
SplineSet
524.63 150 m 0
 496.63 150 469.551 128 463.087 100 c 0
 456.622 72 473.543 50 501.543 50 c 0
 529.543 50 556.622 72 563.087 100 c 0
 569.551 128 552.63 150 524.63 150 c 0
518.521 600 m 1
 618.521 600 l 1
 528.482 210 l 1
 531.482 210 535.482 210 538.482 210 c 0
 599.482 210 637.17 161 623.087 100 c 0
 609.004 39 548.691 -10 487.691 -10 c 0
 426.691 -10 389.004 39 403.087 100 c 2
 518.521 600 l 1
234.63 150 m 0
 206.63 150 179.551 128 173.087 100 c 0
 166.622 72 183.543 50 211.543 50 c 0
 239.543 50 266.622 72 273.087 100 c 0
 279.551 128 262.63 150 234.63 150 c 0
228.521 600 m 1
 328.521 600 l 1
 238.482 210 l 1
 241.482 210 245.482 210 248.482 210 c 0
 309.482 210 347.17 161 333.087 100 c 0
 319.004 39 258.691 -10 197.691 -10 c 0
 136.691 -10 99.0039 39 113.087 100 c 2
 228.521 600 l 1
EndSplineSet
EndChar

StartChar: uni0E2A
Encoding: 3626 3626 29
Width: 660
VWidth: 0
Flags: W
HStem: -20 55<190.997 278.179> 135 55<201.231 288.085> 310 70<277.925 456.454> 535 85<341.694 533.42>
VStem: 176.965 100<420 471.499> 676.225 90<647.514 720>
LayerCount: 2
Fore
SplineSet
251.167 135 m 0
 223.167 135 196.088 113 189.624 85 c 0
 183.159 57 200.08 35 228.08 35 c 0
 256.08 35 283.159 57 289.624 85 c 0
 296.088 113 279.167 135 251.167 135 c 0
263.865 190 m 0
 321.865 190 358.014 143 344.624 85 c 0
 331.233 27 273.383 -20 215.383 -20 c 0
 142.383 -20 81.082 48 111.557 180 c 0
 139.261 300 242.729 380 367.729 380 c 0
 453.729 380 505.033 338 524.874 281 c 1
 556.965 420 l 2
 571.048 481 541.515 535 443.515 535 c 0
 345.515 535 291.048 481 276.965 420 c 1
 176.965 420 l 1
 203.515 535 312.139 620 463.139 620 c 0
 525.139 620 572.906 606 606.135 581 c 1
 633.214 603 657.294 638 676.225 720 c 1
 766.225 720 l 1
 745.447 630 696.595 570 649.36 530 c 1
 663.203 499 666.431 461 656.965 420 c 2
 566.926 30 l 2
 558.615 -6 447.691 -10 447.691 -10 c 1
 489.248 170 l 2
 504.946 238 472.569 310 371.569 310 c 0
 288.569 310 220.257 261 201.557 180 c 2
 199.479 171 l 1
 219.249 183 241.865 190 263.865 190 c 0
EndSplineSet
Substitution2: "Ascent Substitute" uni0E2A.alt
EndChar

StartChar: uni0E2E
Encoding: 3630 3630 30
Width: 660
VWidth: 0
Flags: W
HStem: -20 90<244.418 443.398> 170 55<229.248 296.99> 325 55<219.933 306.949> 535 85<335.205 530.16>
VStem: 166.965 100<420 471.499> 676.225 90<647.302 720>
LayerCount: 2
Fore
SplineSet
270.032 325 m 0
 242.032 325 214.953 303 208.488 275 c 0
 202.024 247 218.945 225 246.945 225 c 0
 274.945 225 302.024 247 308.488 275 c 0
 314.953 303 298.032 325 270.032 325 c 0
282.729 380 m 0
 340.729 380 376.879 333 363.488 275 c 0
 350.099 217 292.248 170 234.248 170 c 2
 229.248 170 l 1
 226.938 160 l 2
 211.933 95 262.161 70 341.161 70 c 0
 420.161 70 484.241 105 499.248 170 c 2
 556.965 420 l 2
 571.048 481 536.515 535 438.515 535 c 0
 340.515 535 281.048 481 266.965 420 c 1
 166.965 420 l 1
 193.515 535 307.139 620 458.139 620 c 0
 521.139 620 570.676 605 604.903 580 c 1
 631.752 601 656.832 636 676.225 720 c 1
 766.225 720 l 1
 745.447 630 696.364 569 648.129 529 c 1
 662.973 498 666.431 461 656.965 420 c 2
 599.248 170 l 2
 567.85 34 452.383 -20 320.383 -20 c 0
 188.383 -20 95.541 24 126.938 160 c 2
 153.488 275 l 2
 166.879 333 224.729 380 282.729 380 c 0
EndSplineSet
Substitution2: "Ascent Substitute" uni0E2E.alt
EndChar

StartChar: uni0E1D
Encoding: 3613 3613 31
Width: 740
VWidth: 0
Flags: W
HStem: 400 50<296.243 382.611> 550 60<307.002 394.28>
LayerCount: 2
Fore
SplineSet
733.93 840 m 1
 833.93 840 l 1
 778.521 600 l 1
 665.396 110 l 2
 656.161 70 646.234 40 618.617 20 c 0
 592 0 546.691 -10 467.691 -10 c 1
 410.099 217 l 1
 247.691 -10 l 1
 168.691 -10 128 0 110.617 20 c 0
 92.2344 40 96.1611 70 105.396 110 c 2
 181.582 440 l 2
 205.361 543 274.83 610 360.83 610 c 0
 431.83 610 458.594 557 445.434 500 c 0
 432.736 445 377.348 400 322.348 400 c 0
 304.348 400 288.502 405 275.349 413 c 1
 205.396 110 l 2
 200.086 87 201.084 74 209.699 68 c 1
 386.569 310 l 1
 476.569 310 l 1
 541.699 68 l 1
 553.084 74 560.086 87 565.396 110 c 2
 678.521 600 l 1
 733.93 840 l 1
356.978 550 m 0
 328.978 550 301.898 528 295.434 500 c 0
 288.97 472 305.891 450 333.891 450 c 0
 361.891 450 388.97 472 395.434 500 c 0
 401.898 528 384.978 550 356.978 550 c 0
EndSplineSet
EndChar

StartChar: uni0E1A
Encoding: 3610 3610 32
Width: 720
VWidth: 0
Flags: W
HStem: -20 90<329.624 516.517> 390 60<225.85 260.039> 550 60<237.189 325.06> 580 20G<663.903 768.521>
LayerCount: 2
Fore
SplineSet
286.978 550 m 0xe0
 258.978 550 231.898 528 225.435 500 c 0
 218.97 472 235.891 450 263.891 450 c 0
 291.891 450 318.97 472 325.434 500 c 0
 331.898 528 314.978 550 286.978 550 c 0xe0
300.83 610 m 0
 361.83 610 399.517 561 385.434 500 c 2
 309.248 170 l 2
 294.241 105 337.161 70 416.161 70 c 0
 495.161 70 554.241 105 569.248 170 c 2
 668.521 600 l 1
 768.521 600 l 1xd0
 669.248 170 l 2
 637.85 34 527.383 -20 395.383 -20 c 0
 263.383 -20 177.85 34 209.248 170 c 2
 260.039 390 l 1
 250.039 390 l 2
 189.039 390 151.352 439 165.435 500 c 0
 179.517 561 239.83 610 300.83 610 c 0
EndSplineSet
EndChar

StartChar: uni0E1B
Encoding: 3611 3611 33
Width: 730
VWidth: 0
Flags: W
HStem: -20 90<329.624 516.517> 390 60<225.85 260.039> 550 60<237.189 325.06>
LayerCount: 2
Fore
SplineSet
723.93 840 m 1
 823.93 840 l 1
 768.521 600 l 1
 669.248 170 l 2
 637.85 34 527.383 -20 395.383 -20 c 0
 263.383 -20 177.85 34 209.248 170 c 2
 260.039 390 l 1
 250.039 390 l 2
 189.039 390 151.352 439 165.435 500 c 0
 179.517 561 239.83 610 300.83 610 c 0
 361.83 610 399.517 561 385.434 500 c 2
 309.248 170 l 2
 294.241 105 337.161 70 416.161 70 c 0
 495.161 70 554.241 105 569.248 170 c 2
 668.521 600 l 1
 723.93 840 l 1
286.978 550 m 0
 258.978 550 231.898 528 225.435 500 c 0
 218.97 472 235.891 450 263.891 450 c 0
 291.891 450 318.97 472 325.434 500 c 0
 331.898 528 314.978 550 286.978 550 c 0
EndSplineSet
EndChar

StartChar: uni0E49
Encoding: 3657 3657 34
Width: 0
VWidth: 0
Flags: W
HStem: 1020 55<-95.3633 -18.4946 18.1836 112.054> 1200 40<-8.75765 53.2792>
VStem: 198.968 85<1167.55 1230>
LayerCount: 2
Fore
SplineSet
36.2764 1240 m 0
 77.2764 1240 103.427 1206 93.9619 1165 c 0
 79.1855 1101 18.1836 1075 18.1836 1075 c 1
 101.184 1075 174.958 1126 198.968 1230 c 1
 283.968 1230 l 1
 253.955 1100 165.485 1020 5.48535 1020 c 2
 -74.5146 1020 l 2
 -112.515 1020 -111.816 1075 -111.816 1075 c 1
 -66.8164 1075 l 2
 -53.8164 1075 -35.4316 1081 -17.6611 1093 c 1
 -46.8145 1101 -64.1191 1130 -56.0381 1165 c 0
 -46.5732 1206 -4.72363 1240 36.2764 1240 c 0
27.042 1200 m 0
 8.04199 1200 -11.6523 1184 -16.0381 1165 c 0
 -20.4248 1146 -8.11914 1130 10.8809 1130 c 0
 29.8809 1130 49.5752 1146 53.9619 1165 c 0
 58.3477 1184 46.042 1200 27.042 1200 c 0
EndSplineSet
Substitution2: "Thai Tone & Vowel Above-Narrow" uni0E49.narrow
Position2: "Nikhahit & Tone High-Left" dx=-210 dy=0 dh=0 dv=0
Position2: "Mai Han-Akat & Tone High-Left" dx=-260 dy=0 dh=0 dv=0
Position2: "Tone High-Left" dx=-180 dy=0 dh=0 dv=0
MultipleSubs2: "Tone High-Low" uni0E49.low
EndChar

StartChar: uni0E1C
Encoding: 3612 3612 35
Width: 730
VWidth: 0
Flags: W
HStem: 400 50<296.243 382.611> 550 60<307.002 394.28> 580 20G<673.903 778.521>
LayerCount: 2
Fore
SplineSet
360.83 610 m 0xc0
 431.83 610 458.594 557 445.434 500 c 0
 432.736 445 377.348 400 322.348 400 c 0
 304.348 400 288.502 405 275.349 413 c 1
 205.396 110 l 2
 200.086 87 201.084 74 209.699 68 c 1
 386.569 310 l 1
 476.569 310 l 1
 541.699 68 l 1
 553.084 74 560.086 87 565.396 110 c 2
 678.521 600 l 1
 778.521 600 l 1xa0
 665.396 110 l 2
 656.161 70 646.234 40 618.617 20 c 0
 592 0 546.691 -10 467.691 -10 c 1
 410.099 217 l 1
 247.691 -10 l 1
 168.691 -10 128 0 110.617 20 c 0
 92.2344 40 96.1611 70 105.396 110 c 2
 181.582 440 l 2
 205.361 543 274.83 610 360.83 610 c 0xc0
356.978 550 m 0xc0
 328.978 550 301.898 528 295.434 500 c 0
 288.97 472 305.891 450 333.891 450 c 0
 361.891 450 388.97 472 395.434 500 c 0
 401.898 528 384.978 550 356.978 550 c 0xc0
EndSplineSet
EndChar

StartChar: uni0E1E
Encoding: 3614 3614 36
Width: 770
VWidth: 0
Flags: W
HStem: 390 60<235.85 270.039> 550 60<247.189 335.06> 580 20G<713.903 818.521>
LayerCount: 2
Fore
SplineSet
296.978 550 m 0xc0
 268.978 550 241.898 528 235.435 500 c 0
 228.97 472 245.891 450 273.891 450 c 0
 301.891 450 328.97 472 335.434 500 c 0
 341.898 528 324.978 550 296.978 550 c 0xc0
310.83 610 m 0
 371.83 610 409.517 561 395.434 500 c 2
 298.47 80 l 1
 512.125 490 l 1
 574.125 490 l 1
 598.47 80 l 1
 718.521 600 l 1
 818.521 600 l 1xa0
 693.853 60 l 2
 688.542 37 670.925 17 641.154 5 c 0
 611.384 -7 568.691 -10 537.691 -10 c 1
 517.729 380 l 1
 317.691 -10 l 1
 286.691 -10 245.384 -7 221.154 5 c 0
 196.925 17 188.542 37 193.853 60 c 2
 270.039 390 l 1
 260.039 390 l 2
 199.039 390 161.352 439 175.435 500 c 0
 189.517 561 249.83 610 310.83 610 c 0
EndSplineSet
EndChar

StartChar: uni0E1F
Encoding: 3615 3615 37
Width: 780
VWidth: 0
Flags: W
HStem: 390 60<235.85 270.039> 550 60<247.189 335.06>
LayerCount: 2
Fore
SplineSet
773.93 840 m 1
 873.93 840 l 1
 818.521 600 l 1
 693.853 60 l 2
 688.542 37 670.925 17 641.154 5 c 0
 611.384 -7 568.691 -10 537.691 -10 c 1
 517.729 380 l 1
 317.691 -10 l 1
 286.691 -10 245.384 -7 221.154 5 c 0
 196.925 17 188.542 37 193.853 60 c 2
 270.039 390 l 1
 260.039 390 l 2
 199.039 390 161.352 439 175.435 500 c 0
 189.517 561 249.83 610 310.83 610 c 0
 371.83 610 409.517 561 395.434 500 c 2
 298.47 80 l 1
 512.125 490 l 1
 574.125 490 l 1
 598.47 80 l 1
 718.521 600 l 1
 773.93 840 l 1
296.978 550 m 0
 268.978 550 241.898 528 235.435 500 c 0
 228.97 472 245.891 450 273.891 450 c 0
 301.891 450 328.97 472 335.434 500 c 0
 341.898 528 324.978 550 296.978 550 c 0
EndSplineSet
EndChar

StartChar: uni0E30
Encoding: 3632 3632 38
Width: 540
VWidth: 0
Flags: W
HStem: 30 65<205.56 352.089> 225 45<156.368 226.779> 340 65<277.129 423.659> 535 45<227.937 298.348>
LayerCount: 2
Fore
SplineSet
278.903 580 m 0
 325.903 580 355.131 542 344.279 495 c 0
 336.199 460 308.273 430 275.272 417 c 1
 291.425 409 312.502 405 338.502 405 c 0
 425.502 405 495.586 479 514.286 560 c 1
 599.286 560 l 1
 572.506 444 480.495 340 323.495 340 c 0
 221.495 340 150.962 394 174.279 495 c 0
 185.131 542 231.903 580 278.903 580 c 0
268.515 535 m 0
 246.515 535 224.358 517 219.279 495 c 0
 214.2 473 228.045 455 250.045 455 c 0
 272.045 455 294.2 473 299.279 495 c 0
 304.358 517 290.515 535 268.515 535 c 0
207.334 270 m 0
 254.334 270 283.562 232 272.711 185 c 0
 264.63 150 236.704 120 203.703 107 c 1
 219.855 99 240.933 95 266.933 95 c 0
 353.933 95 424.017 169 442.717 250 c 1
 527.717 250 l 1
 500.937 134 408.926 30 251.926 30 c 0
 149.926 30 79.3926 84 102.711 185 c 0
 113.562 232 160.334 270 207.334 270 c 0
196.945 225 m 0
 174.945 225 152.79 207 147.711 185 c 0
 142.632 163 156.476 145 178.476 145 c 0
 200.476 145 222.632 163 227.711 185 c 0
 232.79 207 218.945 225 196.945 225 c 0
EndSplineSet
EndChar

StartChar: uni0E43
Encoding: 3651 3651 39
Width: 400
VWidth: 0
Flags: W
HStem: -10 60<233.461 321.332> 150 60<298.482 332.671> 770 45<265.227 341.706> 960 60<351.519 481.196>
VStem: 173.087 390.077
LayerCount: 2
Fore
SplineSet
288.521 600 m 2
 320.149 737 473.078 793 493.164 880 c 0
 503.784 926 473.634 960 411.634 960 c 0
 388.634 960 367.479 955 350.632 947 c 1
 387.555 938 408.243 902 398.547 860 c 0
 387.003 810 337.769 770 287.769 770 c 0
 237.769 770 207.003 810 218.547 860 c 0
 238.171 945 320.485 1020 425.485 1020 c 0
 534.485 1020 581.634 960 563.164 880 c 0
 537.307 768 418.072 728 388.521 600 c 2
 298.482 210 l 1
 308.482 210 l 2
 369.482 210 407.17 161 393.087 100 c 0
 379.004 39 318.691 -10 257.691 -10 c 0
 196.691 -10 159.004 39 173.087 100 c 2
 288.521 600 l 2
318.936 905 m 0
 293.936 905 269.318 885 263.547 860 c 0
 257.775 835 273.157 815 298.157 815 c 0
 323.157 815 347.775 835 353.547 860 c 0
 359.318 885 343.936 905 318.936 905 c 0
294.63 150 m 0
 266.63 150 239.551 128 233.087 100 c 0
 226.622 72 243.543 50 271.543 50 c 0
 299.543 50 326.622 72 333.087 100 c 0
 339.551 128 322.63 150 294.63 150 c 0
EndSplineSet
EndChar

StartChar: uni0E44
Encoding: 3652 3652 40
Width: 400
VWidth: 0
Flags: W
HStem: -10 60<233.461 321.332> 150 60<298.482 332.671> 950 70<265.485 329.546>
LayerCount: 2
Fore
SplineSet
408.171 945 m 1
 575.485 1020 l 1
 591.485 1020 618.098 988 607.016 940 c 0
 581.621 830 427.307 768 388.521 600 c 2
 298.482 210 l 1
 308.482 210 l 2
 369.482 210 407.17 161 393.087 100 c 0
 379.004 39 318.691 -10 257.691 -10 c 0
 196.691 -10 159.004 39 173.087 100 c 2
 288.521 600 l 2
 328.23 772 525.317 872 558.094 949 c 1
 392.01 875 l 1
 392.01 875 325.325 950 249.325 950 c 1
 265.485 1020 l 1
 364.485 1020 408.171 945 408.171 945 c 1
294.63 150 m 0
 266.63 150 239.551 128 233.087 100 c 0
 226.622 72 243.543 50 271.543 50 c 0
 299.543 50 326.622 72 333.087 100 c 0
 339.551 128 322.63 150 294.63 150 c 0
EndSplineSet
EndChar

StartChar: uni0E29
Encoding: 3625 3625 41
Width: 770
VWidth: 0
Flags: W
HStem: -20 90<329.624 516.517> 190 60<497.077 573.865> 390 60<225.85 260.039> 400 35<460.776 525.595> 550 60<237.189 325.06> 580 20G<663.903 768.521>
VStem: 772.729 75<322.691 380>
AnchorPoint: "thai_above" 1073.27 630 basechar 0
LayerCount: 2
Fore
SplineSet
286.978 550 m 0xea
 258.978 550 231.898 528 225.435 500 c 0
 218.97 472 235.891 450 263.891 450 c 0
 291.891 450 318.97 472 325.434 500 c 0
 331.898 528 314.978 550 286.978 550 c 0xea
505.428 435 m 0xda
 546.428 435 572.578 401 563.112 360 c 0
 554.801 324 522.875 294 487.259 287 c 1
 502.257 261 536.948 251 587.717 250 c 1
 668.521 600 l 1
 768.521 600 l 1
 693.027 273 l 1
 728.645 293 757.494 327 772.729 380 c 1
 847.729 380 l 1
 829.415 305 761.946 238 678.021 208 c 1
 669.248 170 l 2
 637.85 34 527.383 -20 395.383 -20 c 0
 263.383 -20 177.85 34 209.248 170 c 2
 260.039 390 l 1
 250.039 390 l 2xe6
 189.039 390 151.352 439 165.435 500 c 0
 179.517 561 239.83 610 300.83 610 c 0
 361.83 610 399.517 561 385.434 500 c 2
 309.248 170 l 2
 294.241 105 337.161 70 416.161 70 c 0
 495.161 70 554.241 105 569.248 170 c 2
 573.865 190 l 1
 506.327 192 384.485 236 413.112 360 c 0
 422.578 401 464.428 435 505.428 435 c 0xda
497.348 400 m 0xd2
 475.348 400 453.191 382 448.112 360 c 0
 443.033 338 456.878 320 478.878 320 c 0
 500.878 320 523.033 338 528.112 360 c 0
 533.191 382 519.348 400 497.348 400 c 0xd2
EndSplineSet
EndChar

StartChar: uni0E42
Encoding: 3650 3650 42
Width: 400
VWidth: 0
Flags: W
HStem: -10 60<233.461 321.332> 150 60<298.482 332.671> 960 60<320.001 468.317>
LayerCount: 2
Fore
SplineSet
198.547 860 m 1
 217.478 942 301.485 1020 410.485 1020 c 0
 468.485 1020 499.79 991 513.942 970 c 1
 535.328 989 574.177 1010 605.485 1020 c 1
 587.016 940 l 1
 548.707 930 516.09 910 495.473 890 c 1
 480.092 923 463.634 960 396.634 960 c 0
 337.634 960 301.322 924 289.551 899 c 1
 396.703 891 439.312 820 388.521 600 c 2
 298.482 210 l 1
 308.482 210 l 2
 369.482 210 407.17 161 393.087 100 c 0
 379.004 39 318.691 -10 257.691 -10 c 0
 196.691 -10 159.004 39 173.087 100 c 2
 288.521 600 l 2
 337.696 813 334.547 860 198.547 860 c 1
294.63 150 m 0
 266.63 150 239.551 128 233.087 100 c 0
 226.622 72 243.543 50 271.543 50 c 0
 299.543 50 326.622 72 333.087 100 c 0
 339.551 128 322.63 150 294.63 150 c 0
EndSplineSet
EndChar

StartChar: uni0E21
Encoding: 3617 3617 43
Width: 660
VWidth: 0
Flags: W
HStem: -20 65<147.474 234.741> 145 65<159.817 228.482> 390 60<235.85 270.039> 550 60<247.189 335.06> 580 20G<603.903 708.521>
LayerCount: 2
Fore
SplineSet
296.978 550 m 0xf0
 268.978 550 241.898 528 235.435 500 c 0
 228.97 472 245.891 450 273.891 450 c 0
 301.891 450 328.97 472 335.434 500 c 0
 341.898 528 324.978 550 296.978 550 c 0xf0
608.521 600 m 1xe8
 708.521 600 l 1xe8
 583.853 60 l 2
 573.463 15 510.691 -10 447.691 -10 c 1
 447.691 -10 421.47 80 315.088 113 c 1
 314.703 107 313.317 101 311.933 95 c 0
 297.157 31 234.383 -20 170.383 -20 c 0
 106.383 -20 67.1572 31 81.9326 95 c 0
 96.708 159 159.482 210 223.482 210 c 0
 225.482 210 226.482 210 228.482 210 c 1
 270.039 390 l 1
 267.039 390 263.039 390 260.039 390 c 0
 199.039 390 161.352 439 175.435 500 c 0
 189.517 561 249.83 610 310.83 610 c 0xf0
 371.83 610 409.517 561 395.434 500 c 2
 325.481 197 l 1
 405.095 178 460.937 134 490.778 90 c 1
 608.521 600 l 1xe8
208.476 145 m 0
 180.476 145 153.396 123 146.933 95 c 0
 140.468 67 157.389 45 185.389 45 c 0
 213.389 45 240.468 67 246.933 95 c 0
 253.396 123 236.476 145 208.476 145 c 0
EndSplineSet
EndChar

StartChar: uni0E06
Encoding: 3590 3590 44
Width: 690
VWidth: 0
Flags: W
HStem: -20 65<177.474 264.741> 145 65<189.124 272.273> 320 40<221.281 294.903> 450 40<232.012 306.175> 555 55<254.774 345.804> 580 20G<633.903 738.521>
LayerCount: 2
Fore
SplineSet
273.891 450 m 0xf0
 248.891 450 224.273 430 218.502 405 c 0
 212.729 380 228.112 360 253.112 360 c 0
 278.112 360 302.729 380 308.502 405 c 0
 314.273 430 298.891 450 273.891 450 c 0xf0
238.476 145 m 0
 210.476 145 183.396 123 176.933 95 c 0
 170.468 67 187.389 45 215.389 45 c 0
 243.389 45 270.468 67 276.933 95 c 0
 283.396 123 266.476 145 238.476 145 c 0
638.521 600 m 1xf4
 738.521 600 l 1xf4
 613.853 60 l 2
 603.463 15 540.691 -10 477.691 -10 c 1
 477.691 -10 451.47 80 345.088 113 c 1
 344.703 107 343.317 101 341.933 95 c 0
 327.157 31 264.383 -20 200.383 -20 c 0
 136.383 -20 97.1572 31 111.933 95 c 0
 126.708 159 189.482 210 253.482 210 c 0
 258.482 210 263.482 210 268.252 209 c 1
 303.803 337 433.112 360 456.199 460 c 0
 464.279 495 466.744 523 449.978 550 c 1
 403.125 490 l 1
 353.125 490 l 1
 353.514 522 341.132 555 308.132 555 c 0
 265.132 555 237.128 516 223.508 470 c 1
 241.278 482 262.125 490 283.125 490 c 0
 330.125 490 359.353 452 348.502 405 c 0
 337.65 358 290.878 320 243.878 320 c 0
 172.878 320 148.191 382 166.199 460 c 0
 178.436 513 232.83 610 320.83 610 c 0
 362.83 610 387.596 583 399.439 552 c 1
 441.83 610 l 1
 469.83 610 l 1xf8
 522.905 593 555.131 542 536.199 460 c 0
 508.033 338 391.107 308 366.174 200 c 2
 364.788 194 l 1
 439.402 175 491.475 132 520.778 90 c 1
 638.521 600 l 1xf4
EndSplineSet
EndChar

StartChar: uni0E31
Encoding: 3633 3633 45
Width: 0
VWidth: 0
Flags: W
HStem: 710 65<-107.45 39.0797> 905 45<-156.641 -86.2301>
VStem: 129.707 85<868.19 930>
LayerCount: 2
Fore
SplineSet
-105.675 950 m 0
 -58.6748 950 -29.4482 912 -40.2988 865 c 0
 -48.3789 830 -76.3057 800 -109.307 787 c 1
 -93.1533 779 -72.0771 775 -46.0771 775 c 0
 40.9229 775 111.007 849 129.707 930 c 1
 214.707 930 l 1
 187.927 814 95.916 710 -61.084 710 c 0
 -163.084 710 -233.617 764 -210.299 865 c 0
 -199.448 912 -152.675 950 -105.675 950 c 0
-116.064 905 m 0
 -138.064 905 -160.22 887 -165.299 865 c 0
 -170.378 843 -156.534 825 -134.534 825 c 0
 -112.534 825 -90.3779 843 -85.2988 865 c 0
 -80.2197 887 -94.0645 905 -116.064 905 c 0
EndSplineSet
Substitution2: "Thai Tone & Vowel Above-Narrow" uni0E31.narrow
Position2: "Vowel Above-Left" dx=-240 dy=0 dh=0 dv=0
EndChar

StartChar: uni0E4C
Encoding: 3660 3660 46
Width: 0
VWidth: 0
Flags: W
HStem: 980 40<-6.28708 56.7234>
VStem: 132.276 84<1202.86 1240>
LayerCount: 2
Fore
SplineSet
37.6465 1090 m 0
 17.6465 1090 -2.04785 1074 -6.43359 1055 c 0
 -10.8203 1036 1.48535 1020 21.4854 1020 c 0
 40.4854 1020 59.1797 1036 63.5664 1055 c 0
 67.9521 1074 56.6465 1090 37.6465 1090 c 0
132.276 1240 m 1
 216.276 1240 l 1
 201.501 1176 135.268 1149 86.6484 1116 c 1
 102.647 1103 109.338 1080 103.566 1055 c 0
 94.1006 1014 53.251 980 12.251 980 c 0
 -29.749 980 -55.8994 1014 -46.4336 1055 c 0
 -24.04 1152 116.809 1173 132.276 1240 c 1
EndSplineSet
Position2: "Tone High-Left" dx=-140 dy=0 dh=0 dv=0
MultipleSubs2: "Tone High-Low" uni0E4C.low
EndChar

StartChar: uni0E39
Encoding: 3641 3641 47
Width: 0
VWidth: 0
Flags: W
HStem: -340 55<-337.942 -241.361> -240 50<-444.135 -408.566> -110 50<-437.86 -365.125>
VStem: -494.63 378.469
LayerCount: 2
Fore
SplineSet
-308.495 -340 m 0
 -422.495 -340 -423.488 -275 -417.717 -250 c 2
 -415.178 -239 l 1
 -418.408 -240 -422.408 -240 -425.408 -240 c 0
 -475.408 -240 -506.174 -200 -494.63 -150 c 0
 -483.087 -100 -433.853 -60 -383.853 -60 c 0
 -333.853 -60 -303.087 -100 -314.63 -150 c 2
 -337.717 -250 l 2
 -341.411 -266 -330.798 -285 -295.798 -285 c 0
 -260.798 -285 -241.411 -266 -237.717 -250 c 2
 -196.161 -70 l 1
 -116.161 -70 l 1
 -157.717 -250 l 2
 -163.488 -275 -194.495 -340 -308.495 -340 c 0
-395.396 -110 m 0
 -417.396 -110 -439.551 -128 -444.63 -150 c 0
 -449.709 -172 -435.865 -190 -413.865 -190 c 0
 -391.865 -190 -369.709 -172 -364.63 -150 c 0
 -359.551 -128 -373.396 -110 -395.396 -110 c 0
EndSplineSet
Position2: "Vowel Below-Low" dx=0 dy=-200 dh=0 dv=0
EndChar

StartChar: uni0E03
Encoding: 3587 3587 48
Width: 690
VWidth: 0
Flags: W
HStem: -20 85<358.701 502.05> 320 40<221.281 294.903> 450 40<232.012 306.175> 555 55<254.774 345.804> 580 20G<633.903 738.521>
LayerCount: 2
Fore
SplineSet
273.891 450 m 0xe0
 248.891 450 224.273 430 218.502 405 c 0
 212.729 380 228.112 360 253.112 360 c 0
 278.112 360 302.729 380 308.502 405 c 0
 314.273 430 298.891 450 273.891 450 c 0xe0
320.83 610 m 0xf0
 362.83 610 387.596 583 399.439 552 c 1
 441.83 610 l 1
 469.83 610 l 1xf0
 522.905 593 555.131 542 536.199 460 c 0
 508.033 338 391.107 308 366.174 200 c 2
 350.013 130 l 2
 342.395 97 370.007 65 425.007 65 c 0
 480.007 65 522.395 97 530.013 130 c 2
 638.521 600 l 1
 738.521 600 l 1xe8
 630.013 130 l 2
 621.24 92 563.383 -20 405.383 -20 c 0
 247.383 -20 241.24 92 250.013 130 c 2
 266.174 200 l 2
 297.571 336 432.65 358 456.199 460 c 0
 464.279 495 466.744 523 449.978 550 c 1
 403.125 490 l 1
 353.125 490 l 1
 353.514 522 341.132 555 308.132 555 c 0
 265.132 555 237.128 516 223.508 470 c 1
 241.278 482 262.125 490 283.125 490 c 0
 330.125 490 359.353 452 348.502 405 c 0
 337.65 358 290.878 320 243.878 320 c 0
 172.878 320 148.191 382 166.199 460 c 0
 178.436 513 232.83 610 320.83 610 c 0xf0
EndSplineSet
EndChar

StartChar: uni0E22
Encoding: 3618 3618 49
Width: 660
VWidth: 0
Flags: W
HStem: -20 85<235.401 461.272> 255 70<283.147 378.871> 400 50<306.455 392.611> 550 60<317.124 404.785> 580 20G<603.903 708.521>
LayerCount: 2
Fore
SplineSet
366.978 550 m 0xf0
 338.978 550 311.898 528 305.434 500 c 0
 298.97 472 315.891 450 343.891 450 c 0
 371.891 450 398.97 472 405.434 500 c 0
 411.898 528 394.978 550 366.978 550 c 0xf0
608.521 600 m 1xe8
 708.521 600 l 1xe8
 588.47 80 l 2
 583.159 57 454.383 -20 315.383 -20 c 0
 174.383 -20 80.1582 44 109.248 170 c 0
 123.562 232 161.565 271 213.106 295 c 1
 170.263 326 156.807 376 171.582 440 c 0
 195.361 543 274.83 610 360.83 610 c 0xf0
 444.83 610 466.516 548 455.434 500 c 0
 442.736 445 387.348 400 332.348 400 c 0
 293.348 400 264.427 422 256.045 455 c 1
 253.891 450 252.736 445 251.582 440 c 0
 232.42 357 302.032 325 395.032 325 c 1
 378.871 255 l 1
 268.871 255 221.021 221 209.248 170 c 0
 191.933 95 259.007 65 335.007 65 c 0
 413.007 65 475.933 95 495.396 110 c 1
 608.521 600 l 1xe8
EndSplineSet
EndChar

StartChar: uni0E46
Encoding: 3654 3654 50
Width: 660
VWidth: 0
Flags: W
HStem: -290 90<263.826 360.832> 290 50<258.446 330.96> 420 50<264.63 337.235> 555 65<289.725 391.167>
LayerCount: 2
Fore
SplineSet
318.508 470 m 0
 368.508 470 399.273 430 387.729 380 c 0
 376.187 330 326.952 290 276.952 290 c 0
 178.952 290 168.884 385 186.199 460 c 0
 200.975 524 262.139 620 363.139 620 c 0
 423.139 620 449.903 580 458.207 538 c 1
 536.139 620 l 1
 562.139 620 l 1
 632.521 600 662.822 532 643.891 450 c 2
 516.913 -100 l 2
 489.901 -217 390.048 -290 243.048 -290 c 1
 263.826 -200 l 1
 324.826 -200 398.905 -178 416.913 -100 c 2
 543.891 450 l 2
 552.664 488 557.668 527 536.978 550 c 1
 458.508 470 l 1
 393.508 470 l 1
 403.666 514 392.132 555 348.132 555 c 0
 298.132 555 262.281 508 251.199 460 c 0
 249.814 454 248.429 448 247.274 443 c 1
 268.199 460 293.508 470 318.508 470 c 0
306.965 420 m 0
 284.965 420 262.809 402 257.729 380 c 0
 252.65 358 266.495 340 288.495 340 c 0
 310.495 340 332.65 358 337.729 380 c 0
 342.809 402 328.965 420 306.965 420 c 0
EndSplineSet
EndChar

StartChar: uni0E47
Encoding: 3655 3655 51
Width: 0
VWidth: 0
Flags: W
HStem: 690 45<-112.975 -46.4069> 780 20G<-182.984 -115.306> 830 35<-33.694 20.2565> 910 55<-219.899 26.723>
VStem: 62.4111 70<1000.86 1050>
LayerCount: 2
Fore
SplineSet
62.4111 1050 m 1
 132.411 1050 l 1
 115.789 978 42.0898 910 -29.9102 910 c 2
 -159.91 910 l 2
 -207.91 910 -243.376 869 -252.379 830 c 0
 -260.69 794 -247.232 757 -208.618 751 c 1
 -165.306 800 l 1
 -115.306 800 l 1
 -121.77 772 -117.312 735 -70.3115 735 c 0
 -60.3115 735 -53.0811 736 -45.3887 739 c 1
 -68.3105 748 -81.7695 772 -75.3057 800 c 0
 -66.9941 836 -30.2988 865 5.70117 865 c 0
 40.7012 865 63.0059 836 54.6943 800 c 0
 40.6113 739 -12.7012 690 -80.7012 690 c 0
 -125.701 690 -154.622 712 -164.003 745 c 1
 -209.547 695 l 1
 -291.547 695 -335.002 758 -318.379 830 c 0
 -301.757 902 -229.212 965 -147.212 965 c 2
 -27.2119 965 l 2
 16.7881 965 53.4082 1011 62.4111 1050 c 1
-2.37891 830 m 0
 -19.3789 830 -35.3809 817 -39.3057 800 c 0
 -43.2305 783 -33.2314 770 -16.2314 770 c 0
 -0.231445 770 16.7695 783 20.6943 800 c 0
 24.6191 817 13.6211 830 -2.37891 830 c 0
EndSplineSet
Substitution2: "Thai Tone & Vowel Above-Narrow" uni0E47.narrow
Position2: "Vowel Above-Left" dx=-180 dy=0 dh=0 dv=0
EndChar

StartChar: uni0E0B
Encoding: 3595 3595 52
Width: 710
VWidth: 0
Flags: W
HStem: -20 85<358.701 502.05> 320 40<221.281 294.903> 450 40<232.012 306.175> 555 55<254.774 345.804>
VStem: 726.225 90<652.126 720>
LayerCount: 2
Fore
SplineSet
585.421 370 m 2
 590.039 390 556.579 414 527.273 430 c 1
 487.648 332 388.799 298 366.174 200 c 2
 350.013 130 l 2
 342.395 97 370.007 65 425.007 65 c 0
 480.007 65 522.395 97 530.013 130 c 2
 585.421 370 l 2
320.83 610 m 0
 362.83 610 387.596 583 399.439 552 c 1
 441.83 610 l 1
 469.83 610 l 1
 512.598 596 542.286 560 541.896 502 c 1
 614.36 530 699.906 606 726.225 720 c 1
 816.225 720 l 1
 783.441 578 687.741 497 580.354 465 c 1
 625.967 446 694.656 410 685.421 370 c 2
 630.013 130 l 2
 621.24 92 563.383 -20 405.383 -20 c 0
 247.383 -20 241.24 92 250.013 130 c 2
 266.174 200 l 2
 297.571 336 432.65 358 456.199 460 c 0
 464.279 495 466.744 523 449.978 550 c 1
 403.125 490 l 1
 353.125 490 l 1
 353.514 522 341.132 555 308.132 555 c 0
 265.132 555 237.128 516 223.508 470 c 1
 241.278 482 262.125 490 283.125 490 c 0
 330.125 490 359.353 452 348.502 405 c 0
 337.65 358 290.878 320 243.878 320 c 0
 172.878 320 148.191 382 166.199 460 c 0
 178.436 513 232.83 610 320.83 610 c 0
273.891 450 m 0
 248.891 450 224.273 430 218.502 405 c 0
 212.729 380 228.112 360 253.112 360 c 0
 278.112 360 302.729 380 308.502 405 c 0
 314.273 430 298.891 450 273.891 450 c 0
EndSplineSet
Substitution2: "Ascent Substitute" uni0E0B.alt
EndChar

StartChar: uni0E02
Encoding: 3586 3586 53
Width: 660
VWidth: 0
Flags: W
HStem: -20 85<328.701 472.05> 350 40<212.425 286.829> 480 40<250.77 298.101> 550 60<260.23 395.719> 580 20G<603.903 708.521>
LayerCount: 2
Fore
SplineSet
350.83 610 m 0xf0
 467.83 610 502.36 530 486.199 460 c 0
 458.033 338 363.646 319 336.174 200 c 2
 320.013 130 l 2
 312.395 97 340.007 65 395.007 65 c 0
 450.007 65 492.395 97 500.013 130 c 2
 608.521 600 l 1
 708.521 600 l 1xe8
 600.013 130 l 2
 591.24 92 533.383 -20 375.383 -20 c 0
 217.383 -20 211.24 92 220.013 130 c 2
 236.174 200 l 2
 267.571 336 379.419 344 406.199 460 c 0
 418.436 513 389.978 550 336.978 550 c 0
 303.978 550 273.207 538 250.358 517 c 1
 258.82 519 267.052 520 275.052 520 c 0
 322.052 520 351.278 482 340.428 435 c 0
 329.577 388 282.804 350 235.804 350 c 0
 175.804 350 151.193 395 165.045 455 c 0
 186.285 547 267.83 610 350.83 610 c 0xf0
265.816 480 m 0
 240.816 480 216.199 460 210.428 435 c 0
 204.656 410 220.039 390 245.039 390 c 0
 270.039 390 294.656 410 300.428 435 c 0
 306.199 460 290.816 480 265.816 480 c 0
EndSplineSet
EndChar

StartChar: uni0E0A
Encoding: 3594 3594 54
Width: 680
VWidth: 0
Flags: W
HStem: -20 85<328.701 472.05> 350 40<212.425 286.829> 480 40<250.77 298.101> 550 60<260.23 396.189>
VStem: 696.225 90<652.126 720>
LayerCount: 2
Fore
SplineSet
655.421 370 m 2
 600.013 130 l 2
 591.24 92 533.383 -20 375.383 -20 c 0
 217.383 -20 211.24 92 220.013 130 c 2
 236.174 200 l 2
 267.571 336 379.419 344 406.199 460 c 0
 418.436 513 389.978 550 336.978 550 c 0
 303.978 550 273.207 538 250.358 517 c 1
 258.82 519 267.052 520 275.052 520 c 0
 322.052 520 351.278 482 340.428 435 c 0
 329.577 388 282.804 350 235.804 350 c 0
 175.804 350 151.193 395 165.045 455 c 0
 186.285 547 267.83 610 350.83 610 c 0
 448.83 610 488.901 554 490.279 495 c 1
 567.128 516 667.136 594 696.225 720 c 1
 786.225 720 l 1
 753.441 578 657.741 497 550.354 465 c 1
 595.967 446 664.656 410 655.421 370 c 2
480.12 438 m 1
 446.341 335 362.031 312 336.174 200 c 2
 320.013 130 l 2
 312.395 97 340.007 65 395.007 65 c 0
 450.007 65 492.395 97 500.013 130 c 2
 555.421 370 l 2
 560.962 394 511.657 423 480.12 438 c 1
265.816 480 m 0
 240.816 480 216.199 460 210.428 435 c 0
 204.656 410 220.039 390 245.039 390 c 0
 270.039 390 294.656 410 300.428 435 c 0
 306.199 460 290.816 480 265.816 480 c 0
EndSplineSet
Substitution2: "Ascent Substitute" uni0E0A.alt
EndChar

StartChar: uni0E19
Encoding: 3609 3609 55
Width: 690
VWidth: 0
Flags: W
HStem: -20 65<467.654 554.741> 390 60<225.85 260.039> 550 60<237.189 325.06> 580 20G<603.903 708.521>
LayerCount: 2
Fore
SplineSet
277.691 -10 m 1xd0
 214.691 -10 173.463 15 183.853 60 c 2
 260.039 390 l 1
 257.039 390 253.039 390 250.039 390 c 0
 189.039 390 151.352 439 165.435 500 c 0
 179.517 561 239.83 610 300.83 610 c 0xe0
 361.83 610 399.517 561 385.434 500 c 2
 289.393 84 l 1
 348.859 138 442.25 196 518.713 211 c 1
 608.521 600 l 1
 708.521 600 l 1
 618.482 210 l 1
 593.481 197 l 1
 626.095 178 642.091 139 631.933 95 c 0
 617.157 31 554.383 -20 490.383 -20 c 0
 427.383 -20 388.926 30 401.24 92 c 1
 331.082 48 277.691 -10 277.691 -10 c 1xd0
286.978 550 m 0
 258.978 550 231.898 528 225.435 500 c 0
 218.97 472 235.891 450 263.891 450 c 0
 291.891 450 318.97 472 325.434 500 c 0
 331.898 528 314.978 550 286.978 550 c 0
528.476 145 m 0
 500.476 145 473.396 123 466.933 95 c 0
 460.468 67 477.389 45 505.389 45 c 0
 533.389 45 560.468 67 566.933 95 c 0
 573.396 123 556.476 145 528.476 145 c 0
EndSplineSet
EndChar

StartChar: uni0E23
Encoding: 3619 3619 56
Width: 570
VWidth: 0
Flags: W
HStem: -10 65<313.25 404.326> 165 65<326.465 415.382> 400 45<262.736 396.251> 540 70<604.949 644.669> 550 70<326.622 519.741>
LayerCount: 2
Fore
SplineSet
152.348 400 m 1xe8
 183.515 535 313.139 620 433.139 620 c 0xe8
 517.139 620 551.212 590 579.286 560 c 1
 590.519 574 629.83 610 660.83 610 c 1
 644.669 540 l 1xf0
 613.669 540 578.589 505 561.971 485 c 1
 532.744 523 490.978 550 416.978 550 c 0
 338.978 550 277.741 497 262.736 445 c 1
 452.736 445 560.658 436 533.878 320 c 2
 485.396 110 l 2
 470.158 44 403.691 -10 337.691 -10 c 0
 271.691 -10 230.158 44 245.396 110 c 0
 260.633 176 327.1 230 393.1 230 c 0
 400.1 230 405.869 229 412.638 228 c 1
 433.878 320 l 2
 451.424 396 389.348 400 152.348 400 c 1xe8
378.094 165 m 0
 348.094 165 317.321 140 310.396 110 c 0
 303.47 80 322.697 55 352.697 55 c 0
 382.697 55 413.47 80 420.396 110 c 0
 427.321 140 408.094 165 378.094 165 c 0
EndSplineSet
EndChar

StartChar: uni0E07
Encoding: 3591 3591 57
Width: 560
VWidth: 0
Flags: W
HStem: 300 70<135.421 170.769> 390 60<425.849 460.039> 550 60<437.189 525.06>
LayerCount: 2
Fore
SplineSet
382.467 54 m 1
 460.039 390 l 1
 457.039 390 453.039 390 450.039 390 c 0
 389.039 390 351.352 439 365.434 500 c 0
 379.517 561 439.83 610 500.83 610 c 0
 561.83 610 599.518 561 585.434 500 c 2
 483.853 60 l 2
 473.463 15 390.691 -10 327.691 -10 c 1
 252.251 209 168.261 300 119.261 300 c 1
 135.421 370 l 1
 232.421 370 306.487 262 382.467 54 c 1
486.978 550 m 0
 458.978 550 431.898 528 425.434 500 c 0
 418.97 472 435.891 450 463.891 450 c 0
 491.891 450 518.97 472 525.434 500 c 0
 531.898 528 514.978 550 486.978 550 c 0
EndSplineSet
EndChar

StartChar: uni0E0E
Encoding: 3598 3598 58
Width: 700
VWidth: 0
Flags: W
HStem: -300 60<133.299 255.079> -160 60<139.267 278.384> -10 60<153.461 241.332> 150 60<165.338 224.482> 400 20<403.252 432.348> 535 85<382.457 564.927>
LayerCount: 2
Fore
SplineSet
214.63 150 m 0
 186.63 150 159.551 128 153.087 100 c 0
 146.622 72 163.543 50 191.543 50 c 0
 219.543 50 246.622 72 253.087 100 c 0
 259.551 128 242.63 150 214.63 150 c 0
174.592 -240 m 0
 215.592 -240 253.055 -225 282.597 -188 c 1
 252.521 -171 222.062 -160 193.062 -160 c 0
 165.062 -160 140.291 -172 133.826 -200 c 0
 127.362 -228 146.592 -240 174.592 -240 c 0
600 0 m 1
 544.592 -240 l 2
 535.818 -278 444.048 -290 403.048 -290 c 1
 387.666 -270 361.668 -244 330.209 -220 c 1
 286.666 -270 227.739 -300 160.739 -300 c 0
 99.7393 -300 59.7432 -261 73.8262 -200 c 0
 87.9092 -139 145.913 -100 206.913 -100 c 0
 241.913 -100 278.143 -112 313.218 -129 c 1
 316.988 -117 320.989 -104 324.222 -90 c 1
 394.222 -90 l 1
 388.22 -116 379.447 -141 367.138 -164 c 1
 399.828 -187 426.825 -213 445.746 -235 c 1
 500 0 l 1
 592.348 400 l 2
 611.278 482 569.515 535 483.515 535 c 0
 413.515 535 345.665 501 309.429 448 c 1
 436.965 420 l 1
 432.348 400 l 1
 432.348 400 360.731 393 339.261 300 c 2
 330.025 260 l 2
 315.942 199 330.402 175 313.087 100 c 0
 299.004 39 238.691 -10 177.691 -10 c 0
 116.691 -10 79.0039 39 93.0869 100 c 0
 106.708 159 165.021 208 224.482 210 c 1
 223.561 219 224.023 234 230.025 260 c 2
 239.261 300 l 2
 251.266 352 278.499 379 301.962 394 c 1
 196.965 420 l 1
 217.432 474 327.139 620 503.139 620 c 0
 644.139 620 723.515 535 692.348 400 c 2
 600 0 l 1
EndSplineSet
Substitution2: "Descent Shorten" uni0E0E.shorten
EndChar

StartChar: uni0E2B
Encoding: 3627 3627 59
Width: 700
VWidth: 0
Flags: W
HStem: 0 21G<170 284.617 490 594.617> 390 60<225.85 260.039> 550 60<237.189 325.06 597.189 685.06>
LayerCount: 2
Fore
SplineSet
286.978 550 m 0
 258.978 550 231.898 528 225.435 500 c 0
 218.97 472 235.891 450 263.891 450 c 0
 291.891 450 318.97 472 325.434 500 c 0
 331.898 528 314.978 550 286.978 550 c 0
660.83 610 m 0
 721.83 610 759.518 561 745.434 500 c 0
 735.507 457 702.965 420 662.809 402 c 1
 680.039 390 l 1
 590 0 l 1
 490 0 l 1
 573.574 362 l 1
 480.571 336 316.938 160 300.086 87 c 2
 280 0 l 1
 170 0 l 1
 260.039 390 l 1
 257.039 390 253.039 390 250.039 390 c 0
 189.039 390 151.352 439 165.435 500 c 0
 179.517 561 239.83 610 300.83 610 c 0
 361.83 610 399.517 561 385.434 500 c 2
 325.64 241 l 1
 362.028 286 455.729 380 547.349 413 c 1
 526.966 433 517.354 465 525.434 500 c 0
 539.518 561 599.83 610 660.83 610 c 0
646.978 550 m 0
 618.978 550 591.898 528 585.434 500 c 0
 578.97 472 595.891 450 623.891 450 c 0
 651.891 450 678.97 472 685.434 500 c 0
 691.898 528 674.978 550 646.978 550 c 0
EndSplineSet
EndChar

StartChar: uni0E3A
Encoding: 3642 3642 60
Width: 0
VWidth: 0
Flags: W
HStem: -210 140<-226.021 -138.623>
VStem: -252.321 140<-184.668 -95.3323>
LayerCount: 2
Fore
SplineSet
-112.321 -140 m 0
 -121.325 -179 -159.482 -210 -198.482 -210 c 0
 -237.482 -210 -261.325 -179 -252.321 -140 c 0
 -243.317 -101 -205.161 -70 -166.161 -70 c 0
 -127.161 -70 -103.317 -101 -112.321 -140 c 0
EndSplineSet
Position2: "Vowel Below-Low" dx=0 dy=-200 dh=0 dv=0
EndChar

StartChar: uni0E53
Encoding: 3667 3667 61
Width: 850
VWidth: 0
Flags: W
HStem: -20 70<285.633 392.025> 0 21G<660 764.617> 190 70<304.35 411.427> 530 90<363.297 473.815>
LayerCount: 2
Fore
SplineSet
422.36 530 m 0x70
 363.36 530 282.506 444 249.261 300 c 0
 238.409 253 232.944 212 232.863 177 c 1
 266.176 226 323.025 260 380.025 260 c 0
 457.025 260 505.481 197 487.704 120 c 0
 469.928 43 392.383 -20 315.383 -20 c 0xb0
 163.383 -20 106.55 115 149.261 300 c 0
 191.971 485 323.139 620 443.139 620 c 0
 529.139 620 575.902 567 581.508 470 c 1
 703.139 620 l 1
 743.139 620 l 1
 848.905 593 876.589 505 843.112 360 c 2
 760 0 l 1
 660 0 l 1
 743.112 360 l 2
 765.969 459 769.281 508 722.36 530 c 1
 566.187 330 l 1
 476.187 330 l 1
 509.432 474 481.36 530 422.36 530 c 0x70
363.865 190 m 0
 324.865 190 286.708 159 277.704 120 c 0
 268.7 81 292.543 50 331.543 50 c 0
 370.543 50 408.7 81 417.704 120 c 0
 426.708 159 402.865 190 363.865 190 c 0
EndSplineSet
EndChar

StartChar: uni0E24
Encoding: 3620 3620 62
Width: 680
VWidth: 0
Flags: W
HStem: -10 60<213.461 301.332> 150 60<278.482 312.671> 400 20<370.326 402.348> 535 85<362.442 544.927>
LayerCount: 2
Fore
SplineSet
288.482 210 m 0
 349.482 210 387.17 161 373.087 100 c 0
 359.004 39 298.691 -10 237.691 -10 c 0
 176.691 -10 139.004 39 153.087 100 c 2
 196.952 290 l 2
 210.804 350 242.729 380 270.193 395 c 1
 176.965 420 l 1
 197.432 474 307.139 620 483.139 620 c 0
 624.139 620 703.515 535 672.348 400 c 2
 580 0 l 1
 517.666 -270 l 1
 417.666 -270 l 1
 480 0 l 1
 572.348 400 l 2
 591.278 482 549.515 535 463.515 535 c 0
 393.515 535 325.665 501 289.198 447 c 1
 406.965 420 l 1
 402.348 400 l 1
 402.348 400 321.424 396 296.952 290 c 2
 278.482 210 l 1
 281.482 210 285.482 210 288.482 210 c 0
274.63 150 m 0
 246.63 150 219.551 128 213.087 100 c 0
 206.622 72 223.543 50 251.543 50 c 0
 279.543 50 306.622 72 313.087 100 c 0
 319.551 128 302.63 150 274.63 150 c 0
EndSplineSet
EndChar

StartChar: uni0E26
Encoding: 3622 3622 63
Width: 700
VWidth: 0
Flags: W
HStem: -10 60<153.461 241.332> 150 60<165.338 224.482> 400 20<403.252 432.348> 535 85<382.457 564.927>
LayerCount: 2
Fore
SplineSet
214.63 150 m 0
 186.63 150 159.551 128 153.087 100 c 0
 146.622 72 163.543 50 191.543 50 c 0
 219.543 50 246.622 72 253.087 100 c 0
 259.551 128 242.63 150 214.63 150 c 0
500 0 m 1
 592.348 400 l 2
 611.278 482 569.515 535 483.515 535 c 0
 413.515 535 345.665 501 309.429 448 c 1
 436.965 420 l 1
 432.348 400 l 1
 432.348 400 360.731 393 339.261 300 c 2
 330.025 260 l 2
 315.942 199 330.402 175 313.087 100 c 0
 299.004 39 238.691 -10 177.691 -10 c 0
 116.691 -10 79.0039 39 93.0869 100 c 0
 106.708 159 165.021 208 224.482 210 c 1
 223.561 219 224.023 234 230.025 260 c 2
 239.261 300 l 2
 251.266 352 278.499 379 301.962 394 c 1
 196.965 420 l 1
 217.432 474 327.139 620 503.139 620 c 0
 644.139 620 723.515 535 692.348 400 c 2
 600 0 l 1
 537.666 -270 l 1
 437.666 -270 l 1
 500 0 l 1
EndSplineSet
EndChar

StartChar: uni0E45
Encoding: 3653 3653 64
Width: 320
VWidth: 0
Flags: W
HStem: 535 85<47.2387 197.962>
VStem: -117.652 100<400 465.708>
LayerCount: 2
Fore
SplineSet
120 0 m 1
 212.348 400 l 2
 228.97 472 212.515 535 128.515 535 c 0
 44.5146 535 -1.03027 472 -17.6523 400 c 1
 -117.652 400 l 1
 -86.0234 537 22.1387 620 148.139 620 c 0
 274.139 620 343.977 537 312.348 400 c 2
 220 0 l 1
 157.666 -270 l 1
 57.666 -270 l 1
 120 0 l 1
EndSplineSet
EndChar

StartChar: uni0E50
Encoding: 3664 3664 65
Width: 800
VWidth: 0
Flags: W
HStem: -20 90<317.198 526.52> 530 90<412.001 621.324>
LayerCount: 2
Fore
SplineSet
522.36 530 m 0
 389.36 530 278.581 427 249.261 300 c 0
 219.94 173 283.161 70 416.161 70 c 0
 549.161 70 659.94 173 689.261 300 c 0
 718.581 427 655.36 530 522.36 530 c 0
543.139 620 m 0
 720.139 620 830.124 477 789.261 300 c 0
 748.396 123 572.383 -20 395.383 -20 c 0
 218.383 -20 108.396 123 149.261 300 c 0
 190.124 477 366.139 620 543.139 620 c 0
EndSplineSet
EndChar

StartChar: uni0E27
Encoding: 3623 3623 66
Width: 560
VWidth: 0
Flags: W
HStem: -10 65<323.25 414.326> 165 65<336.465 425.382> 535 85<288.345 446.21>
VStem: 126.965 100<420 476.295>
LayerCount: 2
Fore
SplineSet
422.638 228 m 1
 466.965 420 l 2
 479.894 476 457.515 535 373.515 535 c 0
 289.515 535 239.894 476 226.965 420 c 1
 126.965 420 l 1
 153.515 535 260.139 620 393.139 620 c 0
 526.139 620 593.515 535 566.965 420 c 2
 495.396 110 l 2
 480.158 44 413.691 -10 347.691 -10 c 0
 281.691 -10 240.158 44 255.396 110 c 0
 270.633 176 337.1 230 403.1 230 c 0
 410.1 230 415.869 229 422.638 228 c 1
388.094 165 m 0
 358.094 165 327.321 140 320.396 110 c 0
 313.47 80 332.697 55 362.697 55 c 0
 392.697 55 423.47 80 430.396 110 c 0
 437.321 140 418.094 165 388.094 165 c 0
EndSplineSet
EndChar

StartChar: uni0E17
Encoding: 3607 3607 67
Width: 690
VWidth: 0
Flags: W
HStem: 0 21G<170 284.617 500 604.617> 390 60<225.85 260.039> 510 100<521.546 600.152> 550 60<237.189 325.06>
LayerCount: 2
Fore
SplineSet
260.039 390 m 1xe0
 257.039 390 253.039 390 250.039 390 c 0
 189.039 390 151.352 439 165.435 500 c 0
 179.517 561 239.83 610 300.83 610 c 0xd0
 361.83 610 399.517 561 385.434 500 c 2
 348.495 340 l 1
 362.96 368 467.83 610 595.83 610 c 0
 673.83 610 729.748 562 694.656 410 c 2
 600 0 l 1
 500 0 l 1
 594.656 410 l 2
 608.739 471 608.743 510 562.743 510 c 0
 479.743 510 363.873 268 321.557 180 c 1
 280 0 l 1
 170 0 l 1
 260.039 390 l 1xe0
286.978 550 m 0
 258.978 550 231.898 528 225.435 500 c 0
 218.97 472 235.891 450 263.891 450 c 0
 291.891 450 318.97 472 325.434 500 c 0
 331.898 528 314.978 550 286.978 550 c 0
EndSplineSet
EndChar

StartChar: uni0E2C
Encoding: 3628 3628 68
Width: 810
VWidth: 0
Flags: W
HStem: 390 60<225.85 260.039> 450 50<649.705 673.891> 550 60<237.189 325.06> 600 50<659.8 746.004>
VStem: 834.682 70<595.962 670>
AnchorPoint: "thai_above" 1033.27 630 basechar 0
LayerCount: 2
Fore
SplineSet
300.83 610 m 0x68
 361.83 610 399.517 561 385.434 500 c 2
 288.47 80 l 1
 502.125 490 l 1
 564.125 490 l 1
 588.47 80 l 1
 673.891 450 l 1
 618.891 450 584.279 495 596.978 550 c 0x68
 609.676 605 665.064 650 720.064 650 c 0
 769.064 650 801.753 614 799.902 567 c 1
 813.136 594 824.985 628 834.682 670 c 1
 904.682 670 l 1
 885.289 586 839.128 516 780.816 480 c 1
 683.853 60 l 2
 678.542 37 660.925 17 631.154 5 c 0
 601.384 -7 558.691 -10 527.691 -10 c 1
 507.729 380 l 1
 307.691 -10 l 1
 276.691 -10 235.384 -7 211.154 5 c 0
 186.925 17 178.542 37 183.853 60 c 2
 260.039 390 l 1
 250.039 390 l 2x98
 189.039 390 151.352 439 165.435 500 c 0
 179.517 561 239.83 610 300.83 610 c 0x68
286.978 550 m 0
 258.978 550 231.898 528 225.435 500 c 0
 218.97 472 235.891 450 263.891 450 c 0
 291.891 450 318.97 472 325.434 500 c 0
 331.898 528 314.978 550 286.978 550 c 0
708.521 600 m 0x18
 680.521 600 653.441 578 646.978 550 c 0
 640.514 522 657.434 500 685.434 500 c 0
 713.434 500 740.514 522 746.978 550 c 0x68
 753.441 578 736.521 600 708.521 600 c 0x18
EndSplineSet
EndChar

StartChar: uni0E18
Encoding: 3608 3608 69
Width: 620
VWidth: 0
Flags: W
HStem: -20 90<247.271 417.969> 400 45<282.736 412.835> 540 70<624.949 664.669> 550 70<346.622 539.741>
LayerCount: 2
Fore
SplineSet
172.348 400 m 1xd0
 203.515 535 333.139 620 453.139 620 c 0xd0
 537.139 620 571.212 590 599.286 560 c 1
 610.519 574 649.83 610 680.83 610 c 1
 664.669 540 l 1xe0
 633.669 540 598.589 505 581.971 485 c 1
 552.744 523 510.978 550 436.978 550 c 0
 358.978 550 297.741 497 282.736 445 c 1
 475.736 445 620.658 436 593.878 320 c 2
 554.63 150 l 2
 526.003 26 407.383 -20 305.383 -20 c 0
 203.383 -20 106.003 26 134.63 150 c 2
 171.569 310 l 1
 271.569 310 l 1
 234.63 150 l 2
 221.933 95 264.161 70 326.161 70 c 0
 388.161 70 441.933 95 454.63 150 c 2
 493.878 320 l 2
 511.424 396 409.348 400 172.348 400 c 1xd0
EndSplineSet
EndChar

StartChar: uni0E10
Encoding: 3600 3600 70
Width: 600
VWidth: 0
Flags: W
HStem: -340 45<38.9628 118.597> -205 45<49.1236 137.938 373.659 393.826> -105 35<379.602 433.655> 130 55<208.044 289.016> 275 55<216.725 296.765> 400 45<282.736 416.251> 540 70<624.949 664.669> 550 70<346.622 539.741>
LayerCount: 2
Fore
SplineSet
172.348 400 m 1xfd
 203.515 535 333.139 620 453.139 620 c 0xfd
 537.139 620 571.212 590 599.286 560 c 1
 610.519 574 649.83 610 680.83 610 c 1
 664.669 540 l 1xfe
 633.669 540 598.589 505 581.971 485 c 1
 552.744 523 510.978 550 436.978 550 c 0
 358.978 550 297.741 497 282.736 445 c 1
 472.736 445 580.658 436 553.878 320 c 2
 493.853 60 l 2
 483.463 15 401.691 -10 357.691 -10 c 1
 369.393 84 361.554 154 341.174 200 c 1
 319.708 159 275.013 130 230.013 130 c 0
 175.013 130 140.402 175 153.1 230 c 0
 165.798 285 221.187 330 276.187 330 c 0
 361.187 330 403.33 231 405.165 109 c 1
 453.878 320 l 2
 471.424 396 409.348 400 172.348 400 c 1xfd
263.488 275 m 0
 238.488 275 213.871 255 208.1 230 c 0
 202.328 205 217.711 185 242.711 185 c 0
 267.711 185 292.328 205 298.1 230 c 0
 303.871 255 288.488 275 263.488 275 c 0
143.746 -235 m 1
 131.901 -217 115.672 -205 92.6719 -205 c 0
 67.6719 -205 43.0547 -225 37.2832 -250 c 0
 31.5117 -275 46.8936 -295 71.8936 -295 c 0
 95.8936 -295 121.126 -281 143.746 -235 c 1
274.517 -223 m 1
 228.813 -330 l 1
 178.813 -330 l 1
 173.276 -315 168.971 -299 163.896 -282 c 1
 137.814 -317 103.505 -340 61.5049 -340 c 0
 11.5049 -340 -19.2607 -300 -7.7168 -250 c 0
 3.82617 -200 53.0615 -160 103.062 -160 c 0
 128.062 -160 146.983 -169 161.521 -184 c 1
 164.367 -176 166.214 -168 168.062 -160 c 1
 218.062 -160 l 1
 212.521 -184 204.749 -209 193.67 -231 c 1
 199.668 -244 205.436 -258 210.435 -271 c 1
 248.443 -180 l 1
 292.443 -180 l 1
 308.443 -180 l 1
 374.202 -285 l 1
 393.826 -200 l 1
 391.826 -200 390.826 -200 388.826 -200 c 0
 352.826 -200 330.521 -171 338.833 -135 c 0
 347.145 -99 382.839 -70 418.839 -70 c 0
 454.839 -70 477.145 -99 468.833 -135 c 2
 435.356 -280 l 2
 426.584 -318 379.813 -330 338.813 -330 c 1
 274.517 -223 l 1
410.759 -105 m 0
 393.759 -105 377.758 -118 373.833 -135 c 0
 369.908 -152 379.906 -165 396.906 -165 c 0
 413.906 -165 429.908 -152 433.833 -135 c 0
 437.758 -118 427.759 -105 410.759 -105 c 0
EndSplineSet
Substitution2: "Descent Substitute" uni0E10.descless
EndChar

StartChar: uni0E2F
Encoding: 3631 3631 71
Width: 560
VWidth: 0
Flags: W
HStem: -20 90<256.161 353.167> 360 65<272.215 436.24> 555 45<222.555 292.966>
VStem: 523.903 80<543.615 580>
LayerCount: 2
Fore
SplineSet
273.521 600 m 0
 320.521 600 349.748 562 338.897 515 c 0
 330.816 480 302.891 450 269.89 437 c 1
 284.812 428 309.119 425 343.119 425 c 0
 430.119 425 501.74 484 523.903 580 c 1
 583.903 580 l 1
 603.903 580 l 1
 509.248 170 l 2
 482.236 53 382.383 -20 235.383 -20 c 1
 256.161 70 l 1
 317.161 70 391.24 92 409.248 170 c 2
 462.348 400 l 1
 424.575 375 379.112 360 328.112 360 c 0
 238.112 360 144.425 409 168.897 515 c 0
 179.748 562 226.521 600 273.521 600 c 0
263.132 555 m 0
 241.132 555 218.977 537 213.897 515 c 0
 208.818 493 222.662 475 244.662 475 c 0
 266.662 475 288.818 493 293.897 515 c 0
 298.977 537 285.132 555 263.132 555 c 0
EndSplineSet
EndChar

StartChar: uni0E5A
Encoding: 3674 3674 72
Width: 720
VWidth: 0
Flags: W
HStem: -20 80<263.853 354.239 473.853 530.62> 360 65<282.215 446.24> 555 45<232.555 302.966>
VStem: 533.903 60<543.615 580>
LayerCount: 2
Fore
SplineSet
283.521 600 m 0
 330.521 600 359.748 562 348.897 515 c 0
 340.816 480 312.891 450 279.89 437 c 1
 294.812 428 319.119 425 353.119 425 c 0
 440.119 425 511.74 484 533.903 580 c 1
 593.903 580 l 1
 499.248 170 l 2
 472.236 53 359.383 -20 245.383 -20 c 1
 263.853 60 l 1
 324.853 60 401.24 92 419.248 170 c 2
 472.348 400 l 1
 434.575 375 389.112 360 338.112 360 c 0
 248.112 360 154.425 409 178.897 515 c 0
 189.748 562 236.521 600 283.521 600 c 0
273.132 555 m 0
 251.132 555 228.977 537 223.897 515 c 0
 218.818 493 232.662 475 254.662 475 c 0
 276.662 475 298.818 493 303.897 515 c 0
 308.977 537 295.132 555 273.132 555 c 0
659.248 170 m 2
 632.236 53 548.383 -20 455.383 -20 c 1
 473.853 60 l 1
 510.853 60 561.24 92 579.248 170 c 2
 673.903 580 l 1
 753.903 580 l 1
 659.248 170 l 2
EndSplineSet
EndChar

StartChar: uni0E13
Encoding: 3603 3603 73
Width: 950
VWidth: 0
Flags: W
HStem: -20 65<737.951 824.741> -10 60<213.461 301.332> 150 60<278.482 312.671> 400 20<370.326 402.348> 535 85<362.442 544.927> 580 20G<873.903 978.521>
LayerCount: 2
Fore
SplineSet
798.476 145 m 0xb0
 770.476 145 743.396 123 736.933 95 c 0
 730.468 67 747.389 45 775.389 45 c 0
 803.389 45 830.468 67 836.933 95 c 0
 843.396 123 826.476 145 798.476 145 c 0xb0
274.63 150 m 0
 246.63 150 219.551 128 213.087 100 c 0
 206.622 72 223.543 50 251.543 50 c 0x70
 279.543 50 306.622 72 313.087 100 c 0
 319.551 128 302.63 150 274.63 150 c 0
288.482 210 m 2
 349.482 210 387.17 161 373.087 100 c 0
 359.004 39 298.691 -10 237.691 -10 c 0
 176.691 -10 139.004 39 153.087 100 c 2
 196.952 290 l 2
 210.804 350 242.729 380 270.193 395 c 1
 176.965 420 l 1
 197.432 474 307.139 620 483.139 620 c 0x78
 624.139 620 703.515 535 672.348 400 c 2
 610.013 130 l 1
 599.393 84 l 1
 645.859 138 718.02 195 788.713 211 c 1
 878.521 600 l 1
 978.521 600 l 1
 888.482 210 l 1
 863.481 197 l 1
 896.095 178 912.091 139 901.933 95 c 0
 887.157 31 824.383 -20 760.383 -20 c 0xb4
 699.383 -20 659.464 28 670.547 89 c 1
 619.928 43 587.691 -10 587.691 -10 c 1
 524.691 -10 483.463 15 493.853 60 c 2
 510.013 130 l 1
 572.348 400 l 2
 591.278 482 549.515 535 463.515 535 c 0x78
 393.515 535 325.665 501 289.198 447 c 1
 406.965 420 l 1
 402.348 400 l 1
 402.348 400 321.424 396 296.952 290 c 2
 278.482 210 l 1
 288.482 210 l 2
EndSplineSet
EndChar

StartChar: uni0E08
Encoding: 3592 3592 74
Width: 600
VWidth: 0
Flags: W
HStem: 160 60<222.708 310.082> 320 60<234.089 321.084> 535 85<304.022 481.554>
VStem: 136.965 100<420 471.499>
LayerCount: 2
Fore
SplineSet
439.09 126 m 1
 506.965 420 l 2
 521.048 481 488.515 535 398.515 535 c 0
 308.515 535 251.048 481 236.965 420 c 1
 136.965 420 l 1
 163.515 535 273.139 620 418.139 620 c 0
 563.139 620 633.515 535 606.965 420 c 2
 523.853 60 l 2
 513.463 15 431.691 -10 387.691 -10 c 1
 399.547 89 391.863 177 369.485 236 c 1
 345.327 192 295.938 160 246.938 160 c 0
 185.938 160 148.251 209 162.334 270 c 0
 176.417 331 236.729 380 297.729 380 c 0
 398.729 380 436.025 260 439.09 126 c 1
283.878 320 m 0
 255.878 320 228.799 298 222.334 270 c 0
 215.87 242 232.791 220 260.791 220 c 0
 288.791 220 315.87 242 322.334 270 c 0
 328.799 298 311.878 320 283.878 320 c 0
EndSplineSet
EndChar

StartChar: uni0E0D
Encoding: 3597 3597 75
Width: 930
VWidth: 0
Flags: W
HStem: -270 60<556.369 685.542> -110 40<493.805 555.842> -20 85<615.612 747.038> -10 60<213.461 301.332> 150 60<278.482 312.671> 400 20<370.326 402.348> 535 85<362.442 544.927> 580 20G<873.903 978.521>
VStem: 749.222 80<-148.444 -90>
LayerCount: 2
Fore
SplineSet
538.839 -70 m 0xcc80
 579.839 -70 605.989 -104 596.524 -145 c 0
 590.983 -169 575.135 -190 553.903 -204 c 1
 567.979 -208 583.518 -210 601.518 -210 c 0
 662.518 -210 730.521 -171 749.222 -90 c 1
 829.222 -90 l 1
 800.133 -216 683.666 -270 587.666 -270 c 0
 476.666 -270 431.287 -211 446.524 -145 c 0
 455.989 -104 497.839 -70 538.839 -70 c 0xcc80
529.604 -110 m 0
 510.604 -110 490.91 -126 486.524 -145 c 0
 482.138 -164 494.443 -180 513.443 -180 c 0
 532.443 -180 552.138 -164 556.524 -145 c 0
 560.91 -126 548.604 -110 529.604 -110 c 0
274.63 150 m 0
 246.63 150 219.551 128 213.087 100 c 0
 206.622 72 223.543 50 251.543 50 c 0xdc80
 279.543 50 306.622 72 313.087 100 c 0
 319.551 128 302.63 150 274.63 150 c 0
288.482 210 m 2
 349.482 210 387.17 161 373.087 100 c 0
 359.004 39 298.691 -10 237.691 -10 c 0
 176.691 -10 139.004 39 153.087 100 c 2
 196.952 290 l 2
 210.804 350 242.729 380 270.193 395 c 1
 176.965 420 l 1
 197.432 474 307.139 620 483.139 620 c 0xde80
 624.139 620 703.515 535 672.348 400 c 2
 610.013 130 l 2
 602.395 97 620.007 65 675.007 65 c 0
 730.007 65 762.395 97 770.013 130 c 2
 878.521 600 l 1
 978.521 600 l 1xed80
 870.013 130 l 2
 861.24 92 807.383 -20 655.383 -20 c 0
 503.383 -20 501.24 92 510.013 130 c 2
 572.348 400 l 2
 591.278 482 549.515 535 463.515 535 c 0xee80
 393.515 535 325.665 501 289.198 447 c 1
 406.965 420 l 1
 402.348 400 l 1
 402.348 400 321.424 396 296.952 290 c 2
 278.482 210 l 1
 288.482 210 l 2
EndSplineSet
Substitution2: "Descent Substitute" uni0E0D.descless
EndChar

StartChar: uni0E0F
Encoding: 3599 3599 76
Width: 700
VWidth: 0
Flags: W
HStem: -300 45<68.1974 153.635> -165 45<78.3582 171.846> -10 60<153.461 241.332> 150 60<165.338 224.482> 400 20<403.252 432.348> 535 85<382.457 564.927>
LayerCount: 2
Fore
SplineSet
180.75 -196 m 1
 163.905 -178 144.907 -165 121.907 -165 c 0
 96.9072 -165 72.2891 -185 66.5176 -210 c 0
 60.7461 -235 76.1289 -255 101.129 -255 c 0
 126.129 -255 156.13 -242 180.75 -196 c 1
214.63 150 m 0
 186.63 150 159.551 128 153.087 100 c 0
 146.622 72 163.543 50 191.543 50 c 0
 219.543 50 246.622 72 253.087 100 c 0
 259.551 128 242.63 150 214.63 150 c 0
500 0 m 1
 592.348 400 l 2
 611.278 482 569.515 535 483.515 535 c 0
 413.515 535 345.665 501 309.429 448 c 1
 436.965 420 l 1
 432.348 400 l 1
 432.348 400 360.731 393 339.261 300 c 2
 330.025 260 l 2
 315.942 199 330.402 175 313.087 100 c 0
 299.004 39 238.691 -10 177.691 -10 c 0
 116.691 -10 79.0039 39 93.0869 100 c 0
 106.708 159 165.021 208 224.482 210 c 1
 223.561 219 224.023 234 230.025 260 c 2
 239.261 300 l 2
 251.266 352 278.499 379 301.962 394 c 1
 196.965 420 l 1
 217.432 474 327.139 620 503.139 620 c 0
 644.139 620 723.515 535 692.348 400 c 2
 600 0 l 1
 544.592 -240 l 2
 535.818 -278 444.048 -290 403.048 -290 c 1
 355.905 -178 l 1
 278.048 -290 l 1
 228.048 -290 l 1
 225.742 -274 218.359 -254 207.977 -234 c 1
 175.742 -274 133.739 -300 90.7393 -300 c 0
 40.7393 -300 9.97461 -260 21.5176 -210 c 0
 33.0615 -160 82.2959 -120 132.296 -120 c 0
 159.296 -120 182.218 -129 200.755 -144 c 1
 203.602 -136 205.449 -128 207.296 -120 c 1
 262.296 -120 l 1
 256.986 -143 248.907 -165 239.059 -186 c 1
 247.826 -200 255.133 -216 261.208 -233 c 1
 334.987 -130 l 1
 388.987 -130 l 1
 394.987 -130 l 1
 444.592 -240 l 1
 500 0 l 1
EndSplineSet
Substitution2: "Descent Shorten" uni0E0F.shorten
EndChar

StartChar: uni0E4B
Encoding: 3659 3659 77
Width: 0
VWidth: 0
Flags: W
HStem: 1105 60<-21.0381 65.1094 158.962 245.109>
VStem: -34.8906 293.853
LayerCount: 2
Fore
SplineSet
100.894 1260 m 1
 180.894 1260 l 1
 158.962 1165 l 1
 258.962 1165 l 1
 245.109 1105 l 1
 145.109 1105 l 1
 118.56 990 l 1
 48.2559 1032 l 1
 65.1094 1105 l 1
 -34.8906 1105 l 1
 -21.0381 1165 l 1
 78.9619 1165 l 1
 100.894 1260 l 1
EndSplineSet
Position2: "Nikhahit & Tone High-Left" dx=-240 dy=0 dh=0 dv=0
Position2: "Mai Han-Akat & Tone High-Left" dx=-300 dy=0 dh=0 dv=0
Position2: "Tone High-Left" dx=-180 dy=0 dh=0 dv=0
MultipleSubs2: "Tone High-Low" uni0E4B.low
EndChar

StartChar: uni0E0F.shorten
Encoding: 63290 63290 78
Width: 690
VWidth: 0
Flags: W
HStem: -220 45<86.6669 172.104> -85 45<96.8277 190.316> -10 60<153.461 241.332> 150 60<165.338 224.482> 400 20<403.252 432.348> 535 85<382.457 564.927>
LayerCount: 2
Fore
SplineSet
199.22 -116 m 1
 182.375 -98 163.376 -85 140.376 -85 c 0
 115.376 -85 90.7588 -105 84.9873 -130 c 0
 79.2158 -155 94.5977 -175 119.598 -175 c 0
 144.598 -175 174.6 -162 199.22 -116 c 1
214.63 150 m 0
 186.63 150 159.551 128 153.087 100 c 0
 146.622 72 163.543 50 191.543 50 c 0
 219.543 50 246.622 72 253.087 100 c 0
 259.551 128 242.63 150 214.63 150 c 0
518.47 80 m 1
 592.348 400 l 2
 611.278 482 569.515 535 483.515 535 c 0
 413.515 535 345.665 501 309.429 448 c 1
 436.965 420 l 1
 432.348 400 l 1
 432.348 400 360.731 393 339.261 300 c 2
 330.025 260 l 2
 315.942 199 330.402 175 313.087 100 c 0
 299.004 39 238.691 -10 177.691 -10 c 0
 116.691 -10 79.0039 39 93.0869 100 c 0
 106.708 159 165.021 208 224.482 210 c 1
 223.561 219 224.023 234 230.025 260 c 2
 239.261 300 l 2
 251.266 352 278.499 379 301.962 394 c 1
 196.965 420 l 1
 217.432 474 327.139 620 503.139 620 c 0
 644.139 620 723.515 535 692.348 400 c 2
 618.47 80 l 1
 600 0 l 1
 563.062 -160 l 2
 554.288 -198 462.518 -210 421.518 -210 c 1
 374.375 -98 l 1
 296.518 -210 l 1
 246.518 -210 l 1
 244.212 -194 236.829 -174 226.446 -154 c 1
 194.212 -194 152.209 -220 109.209 -220 c 0
 59.209 -220 28.4434 -180 39.9873 -130 c 0
 51.5303 -80 100.766 -40 150.766 -40 c 0
 177.766 -40 200.688 -49 219.225 -64 c 1
 222.071 -56 223.918 -48 225.766 -40 c 1
 280.766 -40 l 1
 275.455 -63 267.376 -85 257.528 -106 c 1
 266.296 -120 273.602 -136 279.677 -153 c 1
 353.457 -50 l 1
 407.457 -50 l 1
 413.457 -50 l 1
 463.062 -160 l 1
 500 0 l 1
 518.47 80 l 1
EndSplineSet
EndChar

StartChar: uni0E0E.shorten
Encoding: 63291 63291 79
Width: 690
VWidth: 0
Flags: W
HStem: -220 60<151.769 273.549> -80 60<157.736 296.853> -10 60<153.461 241.332> 150 60<165.338 224.482> 400 20<403.252 432.348> 535 85<382.457 564.927>
LayerCount: 2
Fore
SplineSet
193.062 -160 m 0
 234.062 -160 271.524 -145 301.066 -108 c 1
 270.991 -91 240.53 -80 211.53 -80 c 0
 183.53 -80 158.76 -92 152.296 -120 c 0
 145.831 -148 165.062 -160 193.062 -160 c 0
214.63 150 m 0
 186.63 150 159.551 128 153.087 100 c 0
 146.622 72 163.543 50 191.543 50 c 0
 219.543 50 246.622 72 253.087 100 c 0
 259.551 128 242.63 150 214.63 150 c 0
518.47 80 m 1
 592.348 400 l 2
 611.278 482 569.515 535 483.515 535 c 0
 413.515 535 345.665 501 309.429 448 c 1
 436.965 420 l 1
 432.348 400 l 1
 432.348 400 360.731 393 339.261 300 c 2
 330.025 260 l 2
 315.942 199 330.402 175 313.087 100 c 0
 299.004 39 238.691 -10 177.691 -10 c 0
 116.691 -10 79.0039 39 93.0869 100 c 0
 106.708 159 165.021 208 224.482 210 c 1
 223.561 219 224.023 234 230.025 260 c 2
 239.261 300 l 2
 251.266 352 278.499 379 301.962 394 c 1
 196.965 420 l 1
 217.432 474 327.139 620 503.139 620 c 0
 644.139 620 723.515 535 692.348 400 c 2
 618.47 80 l 1
 600 0 l 1
 563.062 -160 l 2
 554.288 -198 462.518 -210 421.518 -210 c 1
 406.135 -190 380.138 -164 348.679 -140 c 1
 305.135 -190 246.209 -220 179.209 -220 c 0
 118.209 -220 78.2129 -181 92.2959 -120 c 0
 106.379 -59 164.383 -20 225.383 -20 c 0
 260.383 -20 296.612 -32 331.688 -49 c 1
 335.458 -37 339.459 -24 342.691 -10 c 1
 412.691 -10 l 1
 406.688 -36 397.917 -61 385.607 -84 c 1
 418.297 -107 445.295 -133 464.216 -155 c 1
 500 0 l 1
 518.47 80 l 1
EndSplineSet
EndChar

StartChar: uni0E5B
Encoding: 3675 3675 80
Width: 1340
VWidth: 0
Flags: W
HStem: -20 65<301.929 514.526> 150 60<379.363 513.939> 250 50<371.383 441.725> 270 60<1108.97 1312.33> 380 50<375.32 448.001> 555 65<372.462 547.537>
VStem: 833.853 60<178 237.819>
LayerCount: 2
Fore
SplineSet
429.273 430 m 0xee
 479.273 430 510.039 390 498.495 340 c 0
 486.952 290 437.717 250 387.717 250 c 0
 381.717 250 375.948 251 371.179 252 c 1
 379.715 224 401.482 210 438.482 210 c 0
 501.482 210 559.564 258 578.495 340 c 0
 601.812 441 591.132 555 468.132 555 c 0
 355.132 555 267.123 464 229.261 300 c 0xee
 197.4 162 262.389 45 400.389 45 c 0
 626.389 45 745.877 307 808.903 580 c 1
 868.903 580 l 1
 888.095 178 l 1
 1045.05 520 l 1
 1055.05 520 l 1
 1105.05 520 l 1
 1081.73 419 1082.19 330 1166.19 330 c 2
 1326.19 330 l 1
 1312.33 270 l 1
 1152.33 270 l 2xde
 1071.33 270 1040.34 309 1036.42 370 c 1
 893.853 60 l 1
 833.853 60 l 1
 817.886 398 l 1
 742.325 179 613.383 -20 385.383 -20 c 0
 208.383 -20 118.396 123 159.261 300 c 0
 203.587 492 331.139 620 483.139 620 c 0
 639.139 620 681.278 482 648.495 340 c 0
 623.792 233 536.63 150 424.63 150 c 0
 328.63 150 287.407 227 308.878 320 c 0
 323.884 385 379.273 430 429.273 430 c 0xee
417.729 380 m 0
 395.729 380 373.574 362 368.495 340 c 0
 363.416 318 377.261 300 399.261 300 c 0
 421.261 300 443.416 318 448.495 340 c 0
 453.574 362 439.729 380 417.729 380 c 0
EndSplineSet
EndChar

StartChar: uni0E4E
Encoding: 3662 3662 81
Width: 0
VWidth: 0
Flags: W
HStem: 700 60<-242.529 -132.396> 1085 60<-99.6237 8.81919>
VStem: 14.3311 60<1015 1077.06>
LayerCount: 2
Fore
SplineSet
-25.6562 1145 m 0
 46.3438 1145 90.9541 1087 74.3311 1015 c 1
 14.3311 1015 l 1
 23.335 1054 -0.507812 1085 -39.5078 1085 c 0
 -77.5078 1085 -116.665 1054 -125.669 1015 c 0
 -132.133 987 -123.212 965 -105.214 952 c 1
 -88.5986 946 -75.1387 935 -65.1396 922 c 1
 -117.066 879 l 1
 -127.065 892 -142.219 900 -162.219 900 c 0
 -200.219 900 -239.376 869 -248.379 830 c 0
 -257.383 791 -232.54 760 -194.54 760 c 0
 -174.54 760 -155.693 768 -139.692 781 c 1
 -107.619 738 l 1
 -135.93 715 -172.393 700 -208.393 700 c 0
 -279.393 700 -325.002 758 -308.379 830 c 0
 -294.527 890 -241.984 940 -183.521 955 c 1
 -189.135 974 -190.286 995 -185.669 1015 c 0
 -169.046 1087 -96.6562 1145 -25.6562 1145 c 0
EndSplineSet
EndChar

StartChar: uni0E4F
Encoding: 3663 3663 82
Width: 780
VWidth: 0
Flags: W
HStem: -20 70<299.682 515.722> 140 65<379.714 506.733> 395 65<411.788 538.806> 550 70<402.799 618.839>
LayerCount: 2
Fore
SplineSet
481.193 395 m 0
 429.193 395 376.266 352 364.261 300 c 0
 352.255 248 385.328 205 437.328 205 c 0
 489.328 205 542.255 248 554.261 300 c 0
 566.266 352 533.193 395 481.193 395 c 0
496.199 460 m 0
 584.199 460 639.577 388 619.261 300 c 0
 598.944 212 510.321 140 422.321 140 c 0
 334.321 140 278.944 212 299.261 300 c 0
 319.577 388 408.199 460 496.199 460 c 0
516.978 550 m 0
 378.978 550 241.12 438 209.261 300 c 0
 177.4 162 263.543 50 401.543 50 c 0
 539.543 50 677.4 162 709.261 300 c 0
 741.12 438 654.978 550 516.978 550 c 0
533.139 620 m 0
 710.139 620 820.124 477 779.261 300 c 0
 738.396 123 562.383 -20 385.383 -20 c 0
 208.383 -20 98.3965 123 139.261 300 c 0
 180.124 477 356.139 620 533.139 620 c 0
EndSplineSet
EndChar

StartChar: uni0E51
Encoding: 3665 3665 83
Width: 800
VWidth: 0
Flags: W
HStem: -60 80<404.617 501.028> 90 80<268.398 401.585> 355 65<420.33 511.406> 530 90<411.705 621.942>
LayerCount: 2
Fore
SplineSet
486.965 420 m 0
 552.965 420 594.498 366 579.261 300 c 0
 552.479 184 450.778 90 320.778 90 c 0
 190.778 90 122.479 184 149.261 300 c 0
 192.433 487 368.139 620 543.139 620 c 0
 718.139 620 832.433 487 789.261 300 c 0
 741.701 94 563.147 -60 386.147 -60 c 1
 404.617 20 l 1
 514.617 20 651.629 137 689.261 300 c 0
 718.581 427 659.36 530 522.36 530 c 0
 385.36 530 278.581 427 249.261 300 c 0
 234.023 234 253.248 170 339.248 170 c 0
 363.248 170 384.402 175 402.479 184 c 1
 353.481 197 326.332 244 339.261 300 c 0
 354.498 366 420.965 420 486.965 420 c 0
471.958 355 m 0
 441.958 355 411.187 330 404.261 300 c 0
 397.334 270 416.562 245 446.562 245 c 0
 476.562 245 507.334 270 514.261 300 c 0
 521.187 330 501.958 355 471.958 355 c 0
EndSplineSet
EndChar

StartChar: uni0E52
Encoding: 3666 3666 84
Width: 930
VWidth: 0
Flags: W
HStem: 0 90<230.778 770.778> 180 60<458.139 545.198> 340 60<468.397 556.578> 540 80<501.488 614.628> 790 20G<256.195 357.003>
VStem: 257.003 100<528.281 810>
LayerCount: 2
Fore
SplineSet
518.495 340 m 0
 490.495 340 463.416 318 456.952 290 c 0
 450.487 262 467.408 240 495.408 240 c 0
 523.408 240 550.487 262 556.952 290 c 0
 563.416 318 546.495 340 518.495 340 c 0
257.003 810 m 1
 357.003 810 l 1
 357.003 810 374.609 713 348.521 600 c 2
 230.778 90 l 1
 770.778 90 l 1
 840.039 390 l 2
 862.895 489 861.59 518 814.669 540 c 1
 702.348 400 l 1
 622.348 400 l 1
 641.971 485 621.669 540 564.669 540 c 0
 507.669 540 461.971 485 442.348 400 c 0
 438.884 385 436.652 371 435.65 358 c 1
 461.423 383 497.348 400 532.348 400 c 0
 593.348 400 631.035 351 616.952 290 c 0
 602.869 229 542.557 180 481.557 180 c 0
 380.557 180 335.104 282 362.348 400 c 0
 389.59 518 482.139 620 583.139 620 c 0
 652.139 620 694.287 573 706.819 506 c 1
 798.139 620 l 1
 833.139 620 l 1
 938.905 593 973.515 535 940.039 390 c 2
 870.778 90 l 2
 859.234 40 805 0 750 0 c 2
 210 0 l 2
 155 0 119.234 40 130.778 90 c 2
 248.521 600 l 2
 272.993 706 257.003 810 257.003 810 c 1
EndSplineSet
EndChar

StartChar: uni0E54
Encoding: 3668 3668 85
Width: 890
VWidth: 0
Flags: W
HStem: 0 90<319.476 530.778 613.439 770> 160 65<568.477 643.067> 335 65<565.768 656.789> 510 90<401.958 808.033> 790 20G<945.19 1057>
VStem: 957.003 100<745.43 810>
LayerCount: 2
Fore
SplineSet
632.348 400 m 0
 698.348 400 739.881 346 724.643 280 c 0
 709.406 214 642.938 160 576.938 160 c 2
 567.938 160 l 1
 599.55 115 650.778 90 680.778 90 c 2
 790.778 90 l 1
 770 0 l 1
 390 0 l 2
 210 0 119.32 127 159.261 300 c 0
 199.2 473 348.521 600 528.521 600 c 2
 708.521 600 l 2
 839.521 600 933.378 712 957.003 810 c 1
 1057 810 l 1
 1015.45 630 867.743 510 687.743 510 c 2
 507.743 510 l 2
 376.743 510 283.963 407 259.261 300 c 0
 234.558 193 279.778 90 410.778 90 c 2
 530.778 90 l 1
 530.778 90 447.4 162 472.334 270 c 0
 489.419 344 559.348 400 632.348 400 c 0
617.341 335 m 0
 587.341 335 556.569 310 549.643 280 c 0
 542.717 250 561.945 225 591.945 225 c 0
 621.945 225 652.717 250 659.643 280 c 0
 666.569 310 647.341 335 617.341 335 c 0
EndSplineSet
EndChar

StartChar: uni0E55
Encoding: 3669 3669 86
Width: 890
VWidth: 0
Flags: W
HStem: 0 90<319.476 530.778 613.439 770> 160 65<568.477 643.067> 335 65<565.768 656.789> 510 115<593.943 686.427> 510 90<401.958 539.521 718.521 808.033> 735 65<608.06 699.136> 790 20G<945.421 1057>
VStem: 957.003 100<746.471 810>
LayerCount: 2
Fore
SplineSet
659.688 735 m 0xf5
 629.688 735 598.916 710 591.99 680 c 0
 585.064 650 604.293 625 634.293 625 c 0
 664.293 625 695.064 650 701.99 680 c 0
 708.916 710 689.688 735 659.688 735 c 0xf5
617.341 335 m 0
 587.341 335 556.569 310 549.643 280 c 0
 542.717 250 561.945 225 591.945 225 c 0
 621.945 225 652.717 250 659.643 280 c 0
 666.569 310 647.341 335 617.341 335 c 0
632.348 400 m 0
 698.348 400 739.881 346 724.643 280 c 0
 709.406 214 642.938 160 576.938 160 c 2
 567.938 160 l 1
 599.55 115 650.778 90 680.778 90 c 2
 790.778 90 l 1
 770 0 l 1
 390 0 l 2
 210 0 119.32 127 159.261 300 c 0
 199.2 473 348.521 600 528.521 600 c 2
 539.521 600 l 1
 525.369 621 519.833 649 526.99 680 c 0
 542.228 746 608.694 800 674.694 800 c 0xed
 740.694 800 782.228 746 766.99 680 c 0
 759.833 649 742.369 621 718.521 600 c 1
 843.906 606 933.84 714 957.003 810 c 1
 1057 810 l 1
 1015.45 630 867.743 510 687.743 510 c 2
 507.743 510 l 2xeb
 376.743 510 283.963 407 259.261 300 c 0
 234.558 193 279.778 90 410.778 90 c 2
 530.778 90 l 1
 530.778 90 447.4 162 472.334 270 c 0
 489.419 344 559.348 400 632.348 400 c 0
EndSplineSet
EndChar

StartChar: uni0E56
Encoding: 3670 3670 87
Width: 800
VWidth: 0
Flags: W
HStem: -20 90<314.208 535.593> 160 65<263.472 343.573> 335 65<265.5 356.789> 510 90<356.593 624.27> 790 20G<216.225 337.003>
VStem: 237.003 100<624.355 810>
LayerCount: 2
Fore
SplineSet
332.348 400 m 0
 398.348 400 439.881 346 424.644 280 c 0
 409.406 214 342.938 160 276.938 160 c 0
 271.938 160 267.938 160 263.17 161 c 1
 282.317 101 337.161 70 426.161 70 c 0
 551.161 70 657.862 164 689.261 300 c 0
 713.963 407 658.743 510 527.743 510 c 2
 417.743 510 l 2
 237.743 510 195.447 630 237.003 810 c 1
 337.003 810 l 1
 315.378 712 307.521 600 438.521 600 c 2
 548.521 600 l 2
 728.521 600 829.201 473 789.261 300 c 0
 744.011 104 585.383 -20 405.383 -20 c 0
 208.383 -20 138.628 124 170.025 260 c 0
 187.11 334 259.348 400 332.348 400 c 0
317.341 335 m 0
 287.341 335 256.569 310 249.644 280 c 0
 242.717 250 261.945 225 291.945 225 c 0
 321.945 225 352.717 250 359.644 280 c 0
 366.569 310 347.341 335 317.341 335 c 0
EndSplineSet
EndChar

StartChar: uni0E57
Encoding: 3671 3671 88
Width: 1050
VWidth: 0
Flags: W
HStem: -20 70<285.633 392.025> 190 70<304.35 411.427> 530 90<363.297 473.815> 580 20G<1003.9 1098.52>
LayerCount: 2
Fore
SplineSet
363.865 190 m 0xc0
 324.865 190 286.708 159 277.704 120 c 0
 268.7 81 292.543 50 331.543 50 c 0
 370.543 50 408.7 81 417.704 120 c 0
 426.708 159 402.865 190 363.865 190 c 0xc0
422.36 530 m 0xe0
 363.36 530 282.506 444 249.261 300 c 0
 238.409 253 232.944 212 232.863 177 c 1
 266.176 226 323.025 260 380.025 260 c 0
 457.025 260 505.481 197 487.704 120 c 0
 469.928 43 392.383 -20 315.383 -20 c 0
 163.383 -20 106.55 115 149.261 300 c 0
 191.971 485 323.139 620 443.139 620 c 0
 529.139 620 575.902 567 581.508 470 c 1
 703.139 620 l 1
 743.139 620 l 1xe0
 848.905 593 866.589 505 833.112 360 c 2
 767.084 74 l 1
 850.624 85 897.936 121 923.1 230 c 2
 1008.52 600 l 1
 1098.52 600 l 1xd0
 1013.1 230 l 2
 967.388 32 839.691 -10 657.691 -10 c 1
 676.161 70 l 1
 743.112 360 l 2
 765.969 459 769.281 508 722.36 530 c 1
 566.187 330 l 1
 476.187 330 l 1
 509.432 474 481.36 530 422.36 530 c 0xe0
EndSplineSet
EndChar

StartChar: uni0E58
Encoding: 3672 3672 89
Width: 910
VWidth: 0
Flags: W
HStem: -20 80<573.358 712.632> 160 65<702.497 768.058> 335 65<715.713 807.309> 510 90<391.958 798.033> 790 20G<935.19 1047>
VStem: 947.003 100<745.43 810>
LayerCount: 2
Fore
SplineSet
782.348 400 m 0
 862.348 400 895.956 329 878.871 255 c 2
 866.174 200 l 2
 837.546 76 746.383 -20 620.383 -20 c 0
 524.383 -20 463.312 36 447.32 127 c 1
 357.691 -10 l 1
 177.691 -10 109.32 127 149.261 300 c 0
 189.2 473 338.521 600 518.521 600 c 2
 698.521 600 l 2
 829.521 600 923.378 712 947.003 810 c 1
 1047 810 l 1
 1005.45 630 857.743 510 677.743 510 c 2
 497.743 510 l 2
 366.743 510 273.963 407 249.261 300 c 0
 228.251 209 240.626 111 324.162 83 c 1
 454.644 280 l 1
 504.644 280 l 1
 544.643 280 l 1
 510.244 131 565.853 60 638.853 60 c 0
 703.853 60 756.78 116 766.938 160 c 2
 768.555 167 l 1
 754.4 162 740.938 160 726.938 160 c 0
 660.938 160 619.406 214 634.643 280 c 0
 649.881 346 716.348 400 782.348 400 c 0
767.341 335 m 0
 737.341 335 706.569 310 699.643 280 c 0
 692.717 250 711.945 225 741.945 225 c 0
 771.945 225 802.717 250 809.643 280 c 0
 816.569 310 797.341 335 767.341 335 c 0
EndSplineSet
EndChar

StartChar: uni0E59
Encoding: 3673 3673 90
Width: 960
VWidth: 0
Flags: W
HStem: -20 70<285.633 392.025> 0 21G<576.046 680> 190 70<304.35 411.427> 530 90<363.297 471.539> 790 20G<1002.39 1097>
LayerCount: 2
Fore
SplineSet
946.978 550 m 2xb8
 1007 810 l 1
 1097 810 l 1
 1036.98 550 l 2
 993.805 363 911.261 300 729.261 300 c 1
 743.112 360 l 2
 765.969 459 759.281 508 712.36 530 c 1
 603.039 390 l 1
 680 0 l 1
 580 0 l 1x78
 496.965 420 l 2
 483.664 488 474.36 530 422.36 530 c 0
 363.36 530 282.506 444 249.261 300 c 0
 238.409 253 232.944 212 232.863 177 c 1
 266.176 226 323.025 260 380.025 260 c 0
 457.025 260 505.481 197 487.704 120 c 0
 469.928 43 392.383 -20 315.383 -20 c 0
 163.383 -20 106.55 115 149.261 300 c 0
 191.971 485 323.139 620 443.139 620 c 0
 521.139 620 567.826 571 586.895 489 c 1
 693.139 620 l 1
 733.139 620 l 1
 834.366 595 855.666 514 832.191 382 c 1
 904.502 405 927.123 464 946.978 550 c 2xb8
363.865 190 m 0
 324.865 190 286.708 159 277.704 120 c 0
 268.7 81 292.543 50 331.543 50 c 0xb8
 370.543 50 408.7 81 417.704 120 c 0
 426.708 159 402.865 190 363.865 190 c 0
EndSplineSet
EndChar

StartChar: uni0E4A
Encoding: 3658 3658 91
Width: 0
VWidth: 0
Flags: W
HStem: 1025 35<-78.104 -24.1117> 1030 45<58.1836 85.7882> 1120 35<-69.1375 -18.5047> 1205 50<-52.8308 7.83002>
VStem: 217.431 70<1161.94 1245>
LayerCount: 2
Fore
SplineSet
88.1963 1205 m 1x78
 54.9619 1165 l 1
 8.96191 1165 l 1
 10.1172 1183 6.19629 1205 -15.8037 1205 c 0
 -38.8037 1205 -61.2686 1177 -69.6562 1145 c 1
 -58.04 1152 -45.3477 1155 -33.3477 1155 c 0
 2.65234 1155 25.958 1126 17.6465 1090 c 0
 9.56641 1055 -27.3604 1025 -63.3604 1025 c 0xb8
 -118.36 1025 -140.662 1080 -126.811 1140 c 0
 -112.728 1201 -60.2607 1255 -4.26074 1255 c 0
 28.7393 1255 42.1992 1231 45.8125 1212 c 1
 79.7393 1255 l 1
 99.7393 1255 l 2
 155.739 1255 178.427 1206 164.344 1145 c 0
 160.881 1130 155.418 1115 148.186 1101 c 1
 170.726 1112 194.806 1147 217.431 1245 c 1
 287.431 1245 l 1
 262.267 1136 219.794 1030 47.7939 1030 c 1
 58.1836 1075 l 1
 80.1836 1075 101.34 1106 110.344 1145 c 0
 116.347 1171 107.35 1197 88.1963 1205 c 1x78
-41.4277 1120 m 0
 -57.4277 1120 -74.4287 1107 -78.3535 1090 c 0
 -82.0479 1074 -71.2793 1060 -55.2793 1060 c 0
 -38.2793 1060 -22.0479 1074 -18.3535 1090 c 0
 -14.4287 1107 -24.4277 1120 -41.4277 1120 c 0
EndSplineSet
Substitution2: "Thai Tone & Vowel Above-Narrow" uni0E4A.narrow
Position2: "Nikhahit & Tone High-Left" dx=-190 dy=0 dh=0 dv=0
Position2: "Mai Han-Akat & Tone High-Left" dx=-260 dy=0 dh=0 dv=0
Position2: "Tone High-Left" dx=-180 dy=0 dh=0 dv=0
MultipleSubs2: "Tone High-Low" uni0E4A.low
EndChar

StartChar: uni0E3F
Encoding: 3647 3647 92
Width: 780
VWidth: 0
Flags: W
HStem: 0 90<220.778 340 430.778 577.414> 370 90<306.199 425.421 516.199 620.405> 715 85<365.07 505.07 594.694 673.375>
LayerCount: 2
Fore
SplineSet
559.325 950 m 1
 629.325 950 l 1
 594.694 800 l 1
 786.771 796 818.376 686 793.903 580 c 0
 779.128 516 737.737 458 676.195 421 c 1
 742.346 387 774.57 323 753.1 230 c 0
 719.162 83 613 0 460 0 c 2
 410 0 l 1
 375.37 -150 l 1
 305.37 -150 l 1
 340 0 l 1
 100 0 l 1
 284.694 800 l 1
 524.694 800 l 1
 559.325 950 l 1
480.778 90 m 2
 582.778 90 635.554 154 653.1 230 c 0
 676.187 330 615.421 370 515.421 370 c 2
 495.421 370 l 1
 430.778 90 l 1
 480.778 90 l 2
575.07 715 m 1
 516.199 460 l 1
 536.199 460 l 2
 628.199 460 679.128 516 693.903 580 c 0
 713.989 667 689.378 712 575.07 715 c 1
446.199 460 m 1
 505.07 715 l 1
 365.07 715 l 1
 306.199 460 l 1
 446.199 460 l 1
360.778 90 m 1
 425.421 370 l 1
 285.421 370 l 1
 220.778 90 l 1
 360.778 90 l 1
EndSplineSet
EndChar

StartChar: uni0E11
Encoding: 3601 3601 93
Width: 770
VWidth: 0
Flags: W
HStem: 0 21G<240 354.617 580 684.617> 320 40<221.281 294.903> 450 40<232.012 306.175> 510 100<614.084 723.641> 555 55<254.774 345.804>
LayerCount: 2
Fore
SplineSet
320.83 610 m 0xe8
 362.83 610 387.596 583 399.439 552 c 1
 441.83 610 l 1
 469.83 610 l 1xe8
 510.828 597 539.21 564 541.204 512 c 1
 582.44 565 633.83 610 685.83 610 c 0
 763.83 610 809.748 562 774.656 410 c 2
 680 0 l 1
 580 0 l 1
 674.656 410 l 2
 688.739 471 693.743 510 647.743 510 c 0xf0
 620.743 510 567.586 479 526.812 428 c 1
 519.425 409 510.5 392 502.729 380 c 0
 463.646 319 420.184 304 396.174 200 c 2
 350 0 l 1
 240 0 l 1
 286.174 200 l 2
 317.571 336 432.65 358 456.199 460 c 0
 464.279 495 466.744 523 449.978 550 c 1
 403.125 490 l 1
 353.125 490 l 1
 353.514 522 341.132 555 308.132 555 c 0
 265.132 555 237.128 516 223.508 470 c 1
 241.278 482 262.125 490 283.125 490 c 0
 330.125 490 359.353 452 348.502 405 c 0
 337.65 358 290.878 320 243.878 320 c 0
 172.878 320 148.191 382 166.199 460 c 0
 178.436 513 232.83 610 320.83 610 c 0xe8
273.891 450 m 0
 248.891 450 224.273 430 218.502 405 c 0
 212.729 380 228.112 360 253.112 360 c 0
 278.112 360 302.729 380 308.502 405 c 0
 314.273 430 298.891 450 273.891 450 c 0
EndSplineSet
EndChar

StartChar: uni0E12
Encoding: 3602 3602 94
Width: 930
VWidth: 0
Flags: W
HStem: -20 65<497.474 584.741> 230 45<361.159 383.1> 365 45<370.718 447.198> 600 0G<358.639 407.807 529.235 587.639 873.903 978.521>
LayerCount: 2
Fore
SplineSet
558.476 145 m 0
 530.476 145 503.396 123 496.933 95 c 0
 490.468 67 507.389 45 535.389 45 c 0
 563.389 45 590.468 67 596.933 95 c 0
 603.396 123 586.476 145 558.476 145 c 0
414.267 365 m 0
 389.267 365 364.649 345 358.878 320 c 0
 353.106 295 368.488 275 393.488 275 c 0
 418.488 275 443.106 295 448.878 320 c 0
 454.649 345 439.267 365 414.267 365 c 0
424.656 410 m 0
 474.656 410 505.421 370 493.878 320 c 0
 459.479 171 234.703 107 207.691 -10 c 1
 207.691 -10 89.6152 -6 96.9258 30 c 1
 96.9258 30 128.238 79 142.321 140 c 0
 165.87 242 145.798 285 176.965 420 c 0
 207.901 554 329.139 620 388.139 620 c 1
 456.978 550 l 1
 558.139 620 l 1
 617.139 620 707.901 554 676.965 420 c 2
 627.328 205 l 1
 700.865 190 742.321 140 761.24 92 c 1
 878.521 600 l 1
 978.521 600 l 1
 853.853 60 l 2
 843.463 15 781.691 -10 727.691 -10 c 1
 727.691 -10 724.854 73 664.474 119 c 1
 664.626 111 663.779 103 661.933 95 c 0
 647.157 31 584.383 -20 520.383 -20 c 0
 456.383 -20 417.157 31 431.933 95 c 0
 443.014 143 481.249 183 526.404 201 c 1
 576.965 420 l 2
 596.589 505 547.36 530 547.36 530 c 1
 436.199 460 l 1
 357.36 530 l 1
 357.36 530 296.589 505 276.965 420 c 0
 246.721 289 264.716 237 240.013 130 c 2
 237.704 120 l 1
 282.938 160 339.865 190 383.1 230 c 1
 333.1 230 302.334 270 313.878 320 c 0
 325.421 370 374.656 410 424.656 410 c 0
EndSplineSet
EndChar

StartChar: uni0E0C
Encoding: 3596 3596 95
Width: 930
VWidth: 0
Flags: W
HStem: -20 65<497.474 584.741> -10 60<213.461 301.332> 150 60<278.482 312.671> 400 20<370.326 402.348> 535 85<362.442 544.927> 580 20G<873.903 978.521>
LayerCount: 2
Fore
SplineSet
558.476 145 m 0xb0
 530.476 145 503.396 123 496.933 95 c 0
 490.468 67 507.389 45 535.389 45 c 0
 563.389 45 590.468 67 596.933 95 c 0
 603.396 123 586.476 145 558.476 145 c 0xb0
274.63 150 m 0
 246.63 150 219.551 128 213.087 100 c 0
 206.622 72 223.543 50 251.543 50 c 0x70
 279.543 50 306.622 72 313.087 100 c 0
 319.551 128 302.63 150 274.63 150 c 0
288.482 210 m 2
 349.482 210 387.17 161 373.087 100 c 0
 359.004 39 298.691 -10 237.691 -10 c 0
 176.691 -10 139.004 39 153.087 100 c 2
 196.952 290 l 2
 210.804 350 242.729 380 270.193 395 c 1
 176.965 420 l 1
 197.432 474 307.139 620 483.139 620 c 0x78
 624.139 620 703.515 535 672.348 400 c 2
 627.328 205 l 1
 700.865 190 742.321 140 761.24 92 c 1
 878.521 600 l 1
 978.521 600 l 1
 853.853 60 l 2
 843.463 15 781.691 -10 727.691 -10 c 1x74
 727.691 -10 724.854 73 664.474 119 c 1
 664.626 111 663.779 103 661.933 95 c 0
 647.157 31 584.383 -20 520.383 -20 c 0
 456.383 -20 417.157 31 431.933 95 c 0
 443.014 143 481.249 183 526.404 201 c 1
 572.348 400 l 2
 591.278 482 549.515 535 463.515 535 c 0xb8
 393.515 535 325.665 501 289.198 447 c 1
 406.965 420 l 1
 402.348 400 l 1
 402.348 400 321.424 396 296.952 290 c 2
 278.482 210 l 1
 288.482 210 l 2
EndSplineSet
EndChar

StartChar: uni0E09
Encoding: 3593 3593 96
Width: 670
VWidth: 0
Flags: W
HStem: -20 65<457.474 544.741> 180 55<179.638 211.557> 325 55<188.268 269.699> 535 85<347.581 527.678>
VStem: 176.965 100<420 471.248>
LayerCount: 2
Fore
SplineSet
395.472 106 m 1
 322.159 57 267.691 -10 267.691 -10 c 1
 204.691 -10 173.463 15 183.853 60 c 2
 211.557 180 l 1
 208.557 180 204.557 180 201.557 180 c 0
 146.557 180 111.945 225 124.644 280 c 0
 137.341 335 192.729 380 247.729 380 c 0
 302.729 380 337.341 335 324.644 280 c 2
 277.546 76 l 1
 330.705 133 421.481 197 508.944 212 c 1
 556.965 420 l 2
 571.048 481 533.515 535 443.515 535 c 0
 353.515 535 291.048 481 276.965 420 c 1
 176.965 420 l 1
 203.515 535 318.139 620 463.139 620 c 0
 608.139 620 683.515 535 656.965 420 c 2
 608.482 210 l 1
 583.481 197 l 1
 616.095 178 632.091 139 621.933 95 c 0
 607.157 31 544.383 -20 480.383 -20 c 0
 416.383 -20 377.157 31 391.933 95 c 0
 392.855 99 393.549 102 395.472 106 c 1
235.032 325 m 0
 210.032 325 185.415 305 179.644 280 c 0
 173.871 255 189.254 235 214.254 235 c 0
 239.254 235 263.871 255 269.644 280 c 0
 275.415 305 260.032 325 235.032 325 c 0
518.476 145 m 0
 490.476 145 463.396 123 456.933 95 c 0
 450.468 67 467.389 45 495.389 45 c 0
 523.389 45 550.468 67 556.933 95 c 0
 563.396 123 546.476 145 518.476 145 c 0
EndSplineSet
EndChar

StartChar: uni0E0A.alt
Encoding: 3681 3681 97
Width: 680
VWidth: 0
Flags: W
HStem: -20 85<328.701 472.05> 350 40<212.425 286.829> 480 40<250.77 298.101> 550 60<260.23 395.339> 560 90<670.078 779.286>
LayerCount: 2
Fore
SplineSet
489.896 502 m 1xf0
 558.98 576 674.064 650 800.064 650 c 1
 779.286 560 l 1xe8
 679.286 560 587.59 518 525.662 475 c 1
 565.199 460 666.503 418 655.421 370 c 2
 600.013 130 l 2
 591.24 92 533.383 -20 375.383 -20 c 0
 217.383 -20 211.24 92 220.013 130 c 2
 236.174 200 l 2
 267.571 336 379.419 344 406.199 460 c 0
 418.436 513 389.978 550 336.978 550 c 0
 303.978 550 273.207 538 250.358 517 c 1
 258.82 519 267.052 520 275.052 520 c 0
 322.052 520 351.278 482 340.428 435 c 0
 329.577 388 282.804 350 235.804 350 c 0
 175.804 350 151.193 395 165.045 455 c 0
 186.285 547 267.83 610 350.83 610 c 0
 444.83 610 485.056 559 489.896 502 c 1xf0
479.428 435 m 0
 445.341 335 361.8 311 336.174 200 c 2
 320.013 130 l 2
 312.395 97 340.007 65 395.007 65 c 0
 450.007 65 492.395 97 500.013 130 c 2
 555.421 370 l 2
 560.962 394 513.427 422 481.12 438 c 1
 480.89 437 479.658 436 479.428 435 c 0
265.816 480 m 0
 240.816 480 216.199 460 210.428 435 c 0
 204.656 410 220.039 390 245.039 390 c 0
 270.039 390 294.656 410 300.428 435 c 0
 306.199 460 290.816 480 265.816 480 c 0
EndSplineSet
EndChar

StartChar: uni0E0B.alt
Encoding: 3682 3682 98
Width: 710
VWidth: 0
Flags: W
HStem: -20 85<358.701 502.05> 320 40<221.281 294.903> 450 40<232.012 306.175> 555 55<254.774 345.804> 560 90<702.715 809.286>
LayerCount: 2
Fore
SplineSet
585.421 370 m 2xe0
 590.039 390 556.579 414 527.273 430 c 1
 487.648 332 388.799 298 366.174 200 c 2
 350.013 130 l 2
 342.395 97 370.007 65 425.007 65 c 0
 480.007 65 522.395 97 530.013 130 c 2
 585.421 370 l 2xe0
320.83 610 m 0xf0
 362.83 610 387.596 583 399.439 552 c 1
 441.83 610 l 1
 469.83 610 l 1xf0
 510.828 597 538.979 563 541.974 511 c 1
 606.365 582 709.064 650 830.064 650 c 1
 809.286 560 l 1xe8
 707.286 560 620.128 516 564.739 471 c 1
 607.814 454 695.579 414 685.421 370 c 2
 630.013 130 l 2
 621.24 92 563.383 -20 405.383 -20 c 0
 247.383 -20 241.24 92 250.013 130 c 2
 266.174 200 l 2
 297.571 336 432.65 358 456.199 460 c 0
 464.279 495 466.744 523 449.978 550 c 1
 403.125 490 l 1
 353.125 490 l 1
 353.514 522 341.132 555 308.132 555 c 0
 265.132 555 237.128 516 223.508 470 c 1
 241.278 482 262.125 490 283.125 490 c 0
 330.125 490 359.353 452 348.502 405 c 0
 337.65 358 290.878 320 243.878 320 c 0
 172.878 320 148.191 382 166.199 460 c 0
 178.436 513 232.83 610 320.83 610 c 0xf0
273.891 450 m 0
 248.891 450 224.273 430 218.502 405 c 0
 212.729 380 228.112 360 253.112 360 c 0
 278.112 360 302.729 380 308.502 405 c 0
 314.273 430 298.891 450 273.891 450 c 0
EndSplineSet
EndChar

StartChar: uni0E28.alt
Encoding: 3683 3683 99
Width: 680
VWidth: 0
Flags: W
HStem: 0 21G<480 584.617> 230 45<360.417 437.037> 365 45<371.856 447.198> 535 85<355.737 541.395> 580 90<714.373 793.903>
LayerCount: 2
Fore
SplineSet
414.267 365 m 0xe0
 389.267 365 364.649 345 358.878 320 c 0
 353.106 295 368.488 275 393.488 275 c 0
 418.488 275 443.106 295 448.878 320 c 0
 454.649 345 439.267 365 414.267 365 c 0xe0
424.656 410 m 0
 474.656 410 505.421 370 493.878 320 c 0
 482.334 270 433.1 230 383.1 230 c 0
 344.1 230 316.871 255 311.721 289 c 1
 277.101 243 251.325 179 237.704 120 c 2
 207.691 -10 l 1
 207.691 -10 89.6152 -6 96.9258 30 c 1
 96.9258 30 128.238 79 142.321 140 c 0
 165.87 242 141.18 265 172.348 400 c 0
 203.977 537 327.139 620 473.139 620 c 0xf0
 536.139 620 588.444 604 623.98 576 c 1
 667.062 624 741.682 670 814.682 670 c 1
 793.903 580 l 1xe8
 740.903 580 693.056 559 662.129 529 c 1
 680.049 494 684.121 451 672.348 400 c 2
 580 0 l 1
 480 0 l 1
 572.348 400 l 2
 591.278 482 544.515 535 453.515 535 c 0xf0
 362.515 535 291.278 482 272.348 400 c 0
 259.188 343 256.415 305 254.565 271 c 1
 291.881 346 352.656 410 424.656 410 c 0
EndSplineSet
EndChar

StartChar: uni0E2A.alt
Encoding: 3684 3684 100
Width: 660
VWidth: 0
Flags: W
HStem: -20 55<190.997 278.179> 135 55<201.231 288.085> 310 70<277.925 456.454> 535 85<341.694 532.779> 580 90<694.826 773.903>
VStem: 176.965 100<420 471.499>
LayerCount: 2
Fore
SplineSet
251.167 135 m 0xe4
 223.167 135 196.088 113 189.624 85 c 0
 183.159 57 200.08 35 228.08 35 c 0
 256.08 35 283.159 57 289.624 85 c 0
 296.088 113 279.167 135 251.167 135 c 0xe4
263.865 190 m 0
 321.865 190 358.014 143 344.624 85 c 0
 331.233 27 273.383 -20 215.383 -20 c 0
 142.383 -20 81.082 48 111.557 180 c 0
 139.261 300 242.729 380 367.729 380 c 0
 453.729 380 505.033 338 524.874 281 c 1
 556.965 420 l 2
 571.048 481 541.515 535 443.515 535 c 0
 345.515 535 291.048 481 276.965 420 c 1
 176.965 420 l 1
 203.515 535 312.139 620 463.139 620 c 0xf4
 526.139 620 574.676 605 607.903 580 c 1
 651.754 627 723.682 670 794.682 670 c 1
 773.903 580 l 1xec
 722.903 580 677.518 561 647.053 533 c 1
 663.896 502 666.892 463 656.965 420 c 2
 566.926 30 l 2
 558.615 -6 447.691 -10 447.691 -10 c 1
 489.248 170 l 2
 504.946 238 472.569 310 371.569 310 c 0
 288.569 310 220.257 261 201.557 180 c 2
 199.479 171 l 1
 219.249 183 241.865 190 263.865 190 c 0
EndSplineSet
EndChar

StartChar: uni0E2E.alt
Encoding: 3686 3686 101
Width: 660
VWidth: 0
Flags: W
HStem: -20 90<244.418 443.398> 170 55<229.248 296.99> 325 55<219.933 306.949> 535 85<335.205 529.52> 580 90<694.607 773.903>
VStem: 166.965 100<420 471.499>
LayerCount: 2
Fore
SplineSet
270.032 325 m 0xe4
 242.032 325 214.953 303 208.488 275 c 0
 202.024 247 218.945 225 246.945 225 c 0
 274.945 225 302.024 247 308.488 275 c 0
 314.953 303 298.032 325 270.032 325 c 0xe4
282.729 380 m 0
 340.729 380 376.879 333 363.488 275 c 0
 350.099 217 292.248 170 234.248 170 c 2
 229.248 170 l 1
 226.938 160 l 2
 211.933 95 262.161 70 341.161 70 c 0
 420.161 70 484.241 105 499.248 170 c 2
 556.965 420 l 2
 571.048 481 536.515 535 438.515 535 c 0
 340.515 535 281.048 481 266.965 420 c 1
 166.965 420 l 1
 193.515 535 307.139 620 458.139 620 c 0xf4
 522.139 620 572.676 605 606.673 579 c 1
 650.523 626 723.682 670 794.682 670 c 1
 773.903 580 l 1xec
 722.903 580 677.518 561 645.822 532 c 1
 662.665 501 666.661 462 656.965 420 c 2
 599.248 170 l 2
 567.85 34 452.383 -20 320.383 -20 c 0
 188.383 -20 95.541 24 126.938 160 c 2
 153.488 275 l 2
 166.879 333 224.729 380 282.729 380 c 0
EndSplineSet
EndChar

StartChar: B
Encoding: 66 66 102
Width: 780
VWidth: 0
Flags: W
HStem: 0 90<220.778 577.414> 370 90<306.199 620.405> 715 85<365.07 674.016>
AnchorPoint: "diac_top" 556.238 850 basechar 0
AnchorPoint: "cedilla" 386.238 40 basechar 0
AnchorPoint: "ogonek" 386.238 40 basechar 0
AnchorPoint: "diac_bottom" 327.2 -50 basechar 0
LayerCount: 2
Fore
SplineSet
565.07 715 m 2
 365.07 715 l 1
 306.199 460 l 1
 536.199 460 l 2
 628.199 460 679.128 516 693.903 580 c 0
 714.451 669 688.07 715 565.07 715 c 2
460 0 m 2
 100 0 l 1
 284.694 800 l 1
 584.694 800 l 2
 785.694 800 818.837 688 793.903 580 c 0
 779.128 516 737.737 458 676.195 421 c 1
 742.346 387 774.57 323 753.1 230 c 0
 719.162 83 613 0 460 0 c 2
480.778 90 m 2
 582.778 90 635.554 154 653.1 230 c 0
 676.187 330 615.421 370 515.421 370 c 2
 285.421 370 l 1
 220.778 90 l 1
 480.778 90 l 2
EndSplineSet
EndChar

StartChar: period
Encoding: 46 46 103
Width: 320
VWidth: 0
Flags: W
HStem: 0 140<132.462 219.86>
VStem: 106.161 140<25.3323 114.668>
LayerCount: 2
Fore
SplineSet
246.161 70 m 0
 237.157 31 199 0 160 0 c 0
 121 0 97.1572 31 106.161 70 c 0
 115.165 109 153.321 140 192.321 140 c 0
 231.321 140 255.165 109 246.161 70 c 0
EndSplineSet
EndChar

StartChar: x
Encoding: 120 120 104
Width: 650
VWidth: 0
Flags: W
HStem: 0 21G<20 159.97 499.265 630> 580 20G<188.521 319.25 598.557 738.521>
AnchorPoint: "diac_top" 475.064 650 basechar 0
AnchorPoint: "cedilla" 109.234 40 basechar 0
AnchorPoint: "diac_bottom" 313.457 -50 basechar 0
LayerCount: 2
Fore
SplineSet
188.521 600 m 1
 308.521 600 l 1
 416.886 398 l 1
 618.521 600 l 1
 738.521 600 l 1
 458.878 320 l 1
 630 0 l 1
 510 0 l 1
 380.64 241 l 1
 140 0 l 1
 20 0 l 1
 338.878 320 l 1
 188.521 600 l 1
EndSplineSet
EndChar

StartChar: i
Encoding: 105 105 105
Width: 320
VWidth: 0
Flags: W
HStem: 0 21G<110 214.617> 580 20G<243.903 348.521> 720 140<298.686 386.085>
VStem: 272.386 140<745.332 834.668>
AnchorPoint: "diac_bottom" 148.457 -50 basechar 0
AnchorPoint: "ogonek" 179.234 40 basechar 0
AnchorPoint: "cedilla" 186.238 40 basechar 0
LayerCount: 2
Fore
SplineSet
412.386 790 m 0
 403.382 751 365.225 720 326.225 720 c 0
 287.225 720 263.382 751 272.386 790 c 0
 281.39 829 319.547 860 358.547 860 c 0
 397.547 860 421.39 829 412.386 790 c 0
248.521 600 m 1
 348.521 600 l 1
 210 0 l 1
 110 0 l 1
 248.521 600 l 1
EndSplineSet
EndChar

StartChar: o
Encoding: 111 111 106
Width: 660
VWidth: 0
Flags: W
HStem: -20 90<253.694 450.588> 535 85<354.341 542.283>
AnchorPoint: "diac_top" 480.064 650 basechar 0
AnchorPoint: "ogonek" 359.234 40 basechar 0
AnchorPoint: "cedilla" 349.234 40 basechar 0
AnchorPoint: "diac_bottom" 318.457 -50 basechar 0
LayerCount: 2
Fore
SplineSet
453.515 535 m 0
 368.515 535 282.895 489 253.112 360 c 2
 220.791 220 l 2
 195.626 111 261.161 70 346.161 70 c 0
 431.161 70 515.626 111 540.791 220 c 2
 573.112 360 l 2
 602.895 489 538.515 535 453.515 535 c 0
473.139 620 m 0
 617.139 620 711.898 528 673.112 360 c 2
 640.791 220 l 2
 603.159 57 469.383 -20 325.383 -20 c 0
 181.383 -20 83.1592 57 120.791 220 c 2
 153.112 360 l 2
 191.898 528 329.139 620 473.139 620 c 0
EndSplineSet
EndChar

StartChar: O
Encoding: 79 79 107
Width: 800
VWidth: 0
Flags: W
HStem: -20 90<308.964 533.924> 735 85<451.896 675.16>
AnchorPoint: "ring_above" 573.151 750 basechar 0
AnchorPoint: "diac_top" 596.238 850 basechar 0
AnchorPoint: "ogonek" 439.234 40 basechar 0
AnchorPoint: "cedilla" 429.234 40 basechar 0
AnchorPoint: "diac_bottom" 388.457 -50 basechar 0
LayerCount: 2
Fore
SplineSet
740.052 520 m 2
 769.833 649 696.688 735 569.688 735 c 0
 442.688 735 329.833 649 300.052 520 c 2
 242.334 270 l 2
 214.63 150 285.161 70 416.161 70 c 0
 547.161 70 654.63 150 682.334 270 c 2
 740.052 520 l 2
840.052 520 m 2
 782.334 270 l 2
 740.316 88 572.383 -20 395.383 -20 c 0
 218.383 -20 100.316 88 142.334 270 c 2
 200.052 520 l 2
 242.993 706 412.312 820 589.312 820 c 0
 766.312 820 883.224 707 840.052 520 c 2
EndSplineSet
EndChar

StartChar: I
Encoding: 73 73 108
Width: 320
VWidth: 0
Flags: W
HStem: 0 21G<110 214.617> 780 20G<290.077 394.694>
VStem: 110 284.694
AnchorPoint: "diac_top" 356.238 850 basechar 0
AnchorPoint: "hook_above" 356.238 850 basechar 0
AnchorPoint: "ogonek" 179.234 40 basechar 0
AnchorPoint: "cedilla" 186.238 40 basechar 0
AnchorPoint: "diac_bottom" 148.457 -50 basechar 0
LayerCount: 2
Fore
SplineSet
294.694 800 m 1
 394.694 800 l 1
 210 0 l 1
 110 0 l 1
 294.694 800 l 1
EndSplineSet
EndChar

StartChar: X
Encoding: 88 88 109
Width: 770
VWidth: 0
Flags: W
HStem: 0 21G<15 159.244 619.99 755> 780 20G<229.694 364.703 765.451 909.694>
AnchorPoint: "diac_top" 581.238 850 basechar 0
AnchorPoint: "ring_above" 558.151 750 basechar 0
AnchorPoint: "cedilla" 99.2344 40 basechar 0
AnchorPoint: "diac_bottom" 373.457 -50 basechar 0
LayerCount: 2
Fore
SplineSet
229.694 800 m 1
 354.694 800 l 1
 501.819 506 l 1
 784.694 800 l 1
 909.694 800 l 1
 545.195 421 l 1
 755 0 l 1
 630 0 l 1
 462.341 335 l 1
 140 0 l 1
 15 0 l 1
 419.195 421 l 1
 229.694 800 l 1
EndSplineSet
EndChar

StartChar: H
Encoding: 72 72 110
Width: 800
VWidth: 0
Flags: W
HStem: 0 21G<100 204.617 600 704.617> 355 90<302.736 681.958> 780 20G<280.077 384.694 780.077 884.694>
AnchorPoint: "diac_bottom" 388.457 -50 basechar 0
AnchorPoint: "diac_top" 596.238 850 basechar 0
AnchorPoint: "cedilla" 149.234 40 basechar 0
LayerCount: 2
Fore
SplineSet
700 0 m 1
 600 0 l 1
 681.958 355 l 1
 281.958 355 l 1
 200 0 l 1
 100 0 l 1
 181.958 355 l 1
 202.736 445 l 1
 284.694 800 l 1
 384.694 800 l 1
 302.736 445 l 1
 702.736 445 l 1
 784.694 800 l 1
 884.694 800 l 1
 802.736 445 l 1
 781.958 355 l 1
 700 0 l 1
EndSplineSet
EndChar

StartChar: P
Encoding: 80 80 111
Width: 740
VWidth: 0
Flags: W
HStem: 0 21G<100 204.617> 320 85<293.502 617.432> 715 85<365.07 672.217>
AnchorPoint: "diac_bottom" 327.2 -50 basechar 0
AnchorPoint: "diac_top" 556.238 850 basechar 0
LayerCount: 2
Fore
SplineSet
604.694 800 m 2
 805.694 800 834.22 668 809.286 560 c 0
 784.353 452 694.878 320 493.878 320 c 2
 273.878 320 l 1
 200 0 l 1
 100 0 l 1
 284.694 800 l 1
 604.694 800 l 2
585.07 715 m 2
 365.07 715 l 1
 293.502 405 l 1
 513.502 405 l 2
 636.502 405 692.895 489 709.286 560 c 0
 725.678 631 708.07 715 585.07 715 c 2
EndSplineSet
EndChar

StartChar: p
Encoding: 112 112 112
Width: 710
VWidth: 0
Flags: W
HStem: -20 85<288.271 474.101> 530 90<412.37 579.122> 580 20G<233.903 338.521>
AnchorPoint: "diac_bottom" 408.457 -50 basechar 0
AnchorPoint: "diac_top" 510.064 650 basechar 0
LayerCount: 2
Fore
SplineSet
301.352 439 m 1xc0
 237.862 164 l 1
 253.241 105 303.007 65 375.007 65 c 0
 460.007 65 555.626 111 590.025 260 c 2
 613.112 360 l 2
 642.895 489 574.36 530 482.36 530 c 0
 402.36 530 333.74 484 301.352 439 c 1xc0
137.666 -270 m 1
 37.666 -270 l 1
 238.521 600 l 1
 338.521 600 l 1xa0
 321.437 526 l 1
 370.903 580 441.139 620 523.139 620 c 0
 679.139 620 749.82 519 713.112 360 c 2
 690.025 260 l 2
 646.622 72 519.383 -20 375.383 -20 c 0
 300.383 -20 246.771 12 213.391 58 c 1
 137.666 -270 l 1
EndSplineSet
EndChar

StartChar: K
Encoding: 75 75 113
Width: 730
VWidth: 0
Flags: W
HStem: 0 21G<100 204.617 570.751 700> 375 90<307.354 406.575> 780 20G<280.077 384.694 705.928 834.694>
AnchorPoint: "diac_top" 566.238 850 basechar 0
AnchorPoint: "diac_bottom" 358.457 -50 basechar 0
LayerCount: 2
Fore
SplineSet
724.694 800 m 1
 834.694 800 l 1
 491.582 440 l 1
 700 0 l 1
 580 0 l 1
 406.575 375 l 1
 286.575 375 l 1
 200 0 l 1
 100 0 l 1
 284.694 800 l 1
 384.694 800 l 1
 307.354 465 l 1
 410.354 465 l 1
 724.694 800 l 1
EndSplineSet
EndChar

StartChar: j
Encoding: 106 106 114
Width: 340
VWidth: 0
Flags: W
HStem: -290 90<-46.1738 50.8317> 580 20G<263.903 368.521> 720 140<318.686 406.085>
VStem: 292.386 140<745.332 834.668>
AnchorPoint: "diac_bottom" 347.2 -50 basechar 0
LayerCount: 2
Fore
SplineSet
432.386 790 m 0
 423.382 751 385.225 720 346.225 720 c 0
 307.225 720 283.382 751 292.386 790 c 0
 301.39 829 339.547 860 378.547 860 c 0
 417.547 860 441.39 829 432.386 790 c 0
206.913 -100 m 2
 179.901 -217 80.0479 -290 -66.9521 -290 c 1
 -46.1738 -200 l 1
 14.8262 -200 88.9053 -178 106.913 -100 c 2
 268.521 600 l 1
 368.521 600 l 1
 206.913 -100 l 2
EndSplineSet
EndChar

StartChar: D
Encoding: 68 68 115
Width: 780
VWidth: 0
Flags: W
HStem: 0 90<220.778 512.391> 715 85<365.07 638.564>
AnchorPoint: "diac_top" 546.238 850 basechar 0
AnchorPoint: "ogonek" 379.234 40 basechar 0
AnchorPoint: "cedilla" 379.234 40 basechar 0
AnchorPoint: "diac_bottom" 327.2 -50 basechar 0
LayerCount: 2
Fore
SplineSet
475.07 715 m 2
 365.07 715 l 1
 220.778 90 l 1
 370.778 90 l 2
 509.778 90 643.014 143 686.187 330 c 2
 713.891 450 l 2
 757.524 639 686.07 715 475.07 715 c 2
494.694 800 m 2
 765.694 800 867.914 684 813.891 450 c 2
 786.187 330 l 2
 733.317 101 591 0 350 0 c 2
 100 0 l 1
 284.694 800 l 1
 494.694 800 l 2
EndSplineSet
EndChar

StartChar: E
Encoding: 69 69 116
Width: 670
VWidth: 0
Flags: W
HStem: 0 90<220.778 600> 355 90<302.736 641.958> 710 90<363.916 753.916>
CounterMasks: 1 e0
AnchorPoint: "hook_above" 531.238 850 basechar 0
AnchorPoint: "diac_top" 531.238 850 basechar 0
AnchorPoint: "cedilla" 369.234 40 basechar 0
AnchorPoint: "ogonek" 549.234 40 basechar 0
AnchorPoint: "diac_bottom" 317.2 -50 basechar 0
LayerCount: 2
Fore
SplineSet
220.778 90 m 1
 620.778 90 l 1
 600 0 l 1
 200 0 l 1
 100 0 l 1
 120.778 90 l 1
 181.958 355 l 1
 202.736 445 l 1
 263.916 710 l 1
 284.694 800 l 1
 384.694 800 l 1
 774.694 800 l 1
 753.916 710 l 1
 363.916 710 l 1
 302.736 445 l 1
 662.736 445 l 1
 641.958 355 l 1
 281.958 355 l 1
 220.778 90 l 1
EndSplineSet
EndChar

StartChar: L
Encoding: 76 76 117
Width: 590
VWidth: 0
Flags: W
HStem: 0 90<220.778 580> 780 20G<280.077 384.694>
AnchorPoint: "diac_top" 346.238 850 basechar 0
AnchorPoint: "diac_bottom" 288.457 -50 basechar 0
LayerCount: 2
Fore
SplineSet
220.778 90 m 1
 600.778 90 l 1
 580 0 l 1
 200 0 l 1
 100 0 l 1
 120.778 90 l 1
 284.694 800 l 1
 384.694 800 l 1
 220.778 90 l 1
EndSplineSet
EndChar

StartChar: F
Encoding: 70 70 118
Width: 650
VWidth: 0
Flags: W
HStem: 0 21G<100 204.617> 355 90<302.736 641.958> 710 90<363.916 753.916>
AnchorPoint: "diac_bottom" 317.2 -50 basechar 0
AnchorPoint: "diac_top" 531.238 850 basechar 0
LayerCount: 2
Fore
SplineSet
200 0 m 1
 100 0 l 1
 181.958 355 l 1
 202.736 445 l 1
 263.916 710 l 1
 284.694 800 l 1
 384.694 800 l 1
 774.694 800 l 1
 753.916 710 l 1
 363.916 710 l 1
 302.736 445 l 1
 662.736 445 l 1
 641.958 355 l 1
 281.958 355 l 1
 200 0 l 1
EndSplineSet
EndChar

StartChar: J
Encoding: 74 74 119
Width: 540
VWidth: 0
Flags: W
HStem: -20 85<185.117 337.752> 780 20G<520.077 624.694>
VStem: 74.6299 100<78.7015 150>
AnchorPoint: "diac_top" 586.238 850 basechar 0
AnchorPoint: "diac_bottom" 228.457 -50 basechar 0
LayerCount: 2
Fore
SplineSet
235.383 -20 m 0
 111.383 -20 52.2363 53 74.6299 150 c 1
 174.63 150 l 1
 162.855 99 189.007 65 255.007 65 c 0
 320.007 65 362.855 99 374.63 150 c 2
 524.694 800 l 1
 624.694 800 l 1
 474.63 150 l 2
 452.236 53 360.383 -20 235.383 -20 c 0
EndSplineSet
EndChar

StartChar: T
Encoding: 84 84 120
Width: 580
VWidth: 0
Flags: W
HStem: 0 21G<240 344.617> 710 90<234.694 403.916 503.916 693.916>
AnchorPoint: "diac_top" 486.238 850 basechar 0
AnchorPoint: "cedilla" 289.234 40 basechar 0
AnchorPoint: "diac_bottom" 278.457 -50 basechar 0
LayerCount: 2
Fore
SplineSet
213.916 710 m 1
 234.694 800 l 1
 424.694 800 l 1
 524.694 800 l 1
 714.694 800 l 1
 693.916 710 l 1
 503.916 710 l 1
 340 0 l 1
 240 0 l 1
 403.916 710 l 1
 213.916 710 l 1
EndSplineSet
EndChar

StartChar: N
Encoding: 78 78 121
Width: 800
VWidth: 0
Flags: W
HStem: 0 21G<100 204.617 591.919 704.617> 780 20G<280.077 392.775 780.077 884.694>
AnchorPoint: "diac_top" 596.238 850 basechar 0
AnchorPoint: "cedilla" 139.234 40 basechar 0
AnchorPoint: "diac_bottom" 388.457 -50 basechar 0
LayerCount: 2
Fore
SplineSet
200 0 m 1
 100 0 l 1
 284.694 800 l 1
 384.694 800 l 1
 639.248 170 l 1
 784.694 800 l 1
 884.694 800 l 1
 700 0 l 1
 600 0 l 1
 345.447 630 l 1
 200 0 l 1
EndSplineSet
EndChar

StartChar: M
Encoding: 77 77 122
Width: 960
VWidth: 0
Flags: W
HStem: 0 21G<100 204.617 446.681 522.554 760 864.617> 780 20G<280.077 418.013 902.141 1044.69>
AnchorPoint: "diac_bottom" 468.457 -50 basechar 0
AnchorPoint: "diac_top" 676.238 850 basechar 0
AnchorPoint: "cedilla" 479.234 40 basechar 0
LayerCount: 2
Fore
SplineSet
860 0 m 1
 760 0 l 1
 905.447 630 l 1
 510 0 l 1
 480 0 l 1
 450 0 l 1
 345.447 630 l 1
 200 0 l 1
 100 0 l 1
 284.694 800 l 1
 384.694 800 l 1
 414.694 800 l 1
 519.248 170 l 1
 914.694 800 l 1
 944.694 800 l 1
 1044.69 800 l 1
 860 0 l 1
EndSplineSet
EndChar

StartChar: U
Encoding: 85 85 123
Width: 800
VWidth: 0
Flags: W
HStem: -20 90<313.238 529.074> 780 20G<270.077 374.694 790.077 894.694>
AnchorPoint: "hook_above" 596.238 850 basechar 0
AnchorPoint: "ring_above" 573.151 750 basechar 0
AnchorPoint: "diac_top" 596.238 850 basechar 0
AnchorPoint: "ogonek" 439.234 40 basechar 0
AnchorPoint: "cedilla" 426.238 40 basechar 0
AnchorPoint: "diac_bottom" 388.457 -50 basechar 0
LayerCount: 2
Fore
SplineSet
274.694 800 m 1
 374.694 800 l 1
 254.644 280 l 2
 220.244 131 313.161 70 416.161 70 c 0
 519.161 70 640.244 131 674.643 280 c 2
 794.694 800 l 1
 894.694 800 l 1
 774.643 280 l 2
 729.624 85 568.383 -20 395.383 -20 c 0
 222.383 -20 109.624 85 154.644 280 c 2
 274.694 800 l 1
EndSplineSet
EndChar

StartChar: b
Encoding: 98 98 124
Width: 710
VWidth: 0
Flags: W
HStem: -20 90<285.178 485.331> 0 21G<100 204.617> 535 85<407.778 573.319> 880 20G<303.164 407.781>
AnchorPoint: "diac_top" 560.064 650 basechar 0
AnchorPoint: "diac_bottom" 348.457 -50 basechar 0
LayerCount: 2
Fore
SplineSet
483.515 535 m 0xb0
 411.515 535 343.279 495 300.658 436 c 1
 237.17 161 l 1
 248.78 116 296.161 70 376.161 70 c 0
 468.161 70 555.626 111 585.408 240 c 2
 608.495 340 l 2
 642.895 489 568.515 535 483.515 535 c 0xb0
307.781 900 m 1
 407.781 900 l 1
 325.131 542 l 1
 379.75 588 448.139 620 523.139 620 c 0
 667.139 620 751.898 528 708.495 340 c 2
 685.408 240 l 2
 648.7 81 531.383 -20 375.383 -20 c 0xb0
 293.383 -20 241.617 20 217.084 74 c 1
 200 0 l 1
 100 0 l 1x70
 307.781 900 l 1
EndSplineSet
EndChar

StartChar: R
Encoding: 82 82 125
Width: 780
VWidth: 0
Flags: W
HStem: 0 21G<100 204.617 612.742 740> 320 85<293.502 503.878> 715 85<365.07 672.217>
AnchorPoint: "diac_top" 556.238 850 basechar 0
AnchorPoint: "diac_bottom" 368.457 -50 basechar 0
LayerCount: 2
Fore
SplineSet
608.803 337 m 1
 740 0 l 1
 620 0 l 1
 503.878 320 l 1
 499.878 320 496.878 320 493.878 320 c 2
 273.878 320 l 1
 200 0 l 1
 100 0 l 1
 284.694 800 l 1
 604.694 800 l 2
 805.694 800 834.22 668 809.286 560 c 0
 789.662 475 729.807 376 608.803 337 c 1
585.07 715 m 2
 365.07 715 l 1
 293.502 405 l 1
 513.502 405 l 2
 636.502 405 692.895 489 709.286 560 c 0
 725.678 631 708.07 715 585.07 715 c 2
EndSplineSet
EndChar

StartChar: V
Encoding: 86 86 126
Width: 800
VWidth: 0
Flags: W
HStem: 0 21G<346.617 462.617> 780 20G<214.694 327.827 832.327 954.694>
AnchorPoint: "diac_top" 596.238 850 basechar 0
AnchorPoint: "diac_bottom" 388.457 -50 basechar 0
LayerCount: 2
Fore
SplineSet
350 0 m 1
 214.694 800 l 1
 324.694 800 l 1
 429.782 129 l 1
 844.694 800 l 1
 954.694 800 l 1
 450 0 l 1
 350 0 l 1
EndSplineSet
EndChar

StartChar: Y
Encoding: 89 89 127
Width: 700
VWidth: 0
Flags: W
HStem: 0 21G<300 404.617> 780 20G<214.694 340.603 719.551 854.694>
AnchorPoint: "hook_above" 546.238 850 basechar 0
AnchorPoint: "diac_bottom" 338.457 -50 basechar 0
AnchorPoint: "ring_above" 523.151 750 basechar 0
AnchorPoint: "diac_top" 546.238 850 basechar 0
LayerCount: 2
Fore
SplineSet
214.694 800 m 1
 334.694 800 l 1
 446.965 420 l 1
 734.694 800 l 1
 854.694 800 l 1
 473.878 320 l 1
 400 0 l 1
 300 0 l 1
 373.878 320 l 1
 214.694 800 l 1
EndSplineSet
EndChar

StartChar: A
Encoding: 65 65 128
Width: 800
VWidth: 0
Flags: W
HStem: 0 21G<30 152.375 656.86 770> 165 90<297.871 619.871> 780 20G<522.077 638.077>
AnchorPoint: "diac_top" 596.238 850 basechar 0
AnchorPoint: "hook_above" 596.238 850 basechar 0
AnchorPoint: "ring_above" 573.151 750 basechar 0
AnchorPoint: "diac_bottom" 388.457 -50 basechar 0
AnchorPoint: "ogonek" 709.234 40 basechar 0
AnchorPoint: "cedilla" 716.238 40 basechar 0
LayerCount: 2
Fore
SplineSet
619.871 255 m 1
 554.912 671 l 1
 297.871 255 l 1
 619.871 255 l 1
770 0 m 1
 660 0 l 1
 634.094 165 l 1
 242.093 165 l 1
 140 0 l 1
 30 0 l 1
 534.694 800 l 1
 634.694 800 l 1
 770 0 l 1
EndSplineSet
EndChar

StartChar: Q
Encoding: 81 81 129
Width: 800
VWidth: 0
Flags: W
HStem: -20 90<308.964 540.219> 735 85<451.896 675.16>
AnchorPoint: "diac_bottom" 388.457 -50 basechar 0
AnchorPoint: "diac_top" 596.238 850 basechar 0
AnchorPoint: "ring_above" 573.151 750 basechar 0
LayerCount: 2
Fore
SplineSet
840.052 520 m 2
 782.334 270 l 2
 764.326 192 723.32 127 667.238 79 c 1
 749.229 -25 l 1
 681.53 -80 l 1
 595.695 29 l 1
 535.308 -3 466.383 -20 395.383 -20 c 0
 218.383 -20 100.316 88 142.334 270 c 2
 200.052 520 l 2
 242.993 706 412.312 820 589.312 820 c 0
 766.312 820 883.224 707 840.052 520 c 2
740.052 520 m 2
 769.833 649 696.688 735 569.688 735 c 0
 442.688 735 329.833 649 300.052 520 c 2
 242.334 270 l 2
 214.63 150 285.161 70 416.161 70 c 0
 462.161 70 504.47 80 542.395 97 c 1
 457.328 205 l 1
 525.025 260 l 1
 613.938 147 l 1
 647.557 180 671.253 222 682.334 270 c 2
 740.052 520 l 2
EndSplineSet
EndChar

StartChar: Z
Encoding: 90 90 130
Width: 740
VWidth: 0
Flags: W
HStem: 0 100<223.087 680> 710 90<274.694 693.916>
AnchorPoint: "diac_top" 566.238 850 basechar 0
AnchorPoint: "cedilla" 389.234 40 basechar 0
AnchorPoint: "diac_bottom" 358.457 -50 basechar 0
LayerCount: 2
Fore
SplineSet
274.694 800 m 1
 844.694 800 l 1
 823.916 710 l 1
 223.087 100 l 1
 703.087 100 l 1
 680 0 l 1
 60 0 l 1
 83.0869 100 l 1
 693.916 710 l 1
 253.916 710 l 1
 274.694 800 l 1
EndSplineSet
EndChar

StartChar: W
Encoding: 87 87 131
Width: 1100
VWidth: 0
Flags: W
HStem: 0 21G<268.617 380.242 728.992 840.617> 780 20G<214.694 325.686 679.438 780.716 1134.47 1254.69>
VStem: 214.694 110<678.493 800>
AnchorPoint: "diac_top" 746.238 850 basechar 0
AnchorPoint: "diac_bottom" 538.457 -50 basechar 0
AnchorPoint: "ring_above" 723.151 750 basechar 0
LayerCount: 2
Fore
SplineSet
1254.69 800 m 1
 830 0 l 1
 820 0 l 1
 735 0 l 1
 730 0 l 1
 697.756 640 l 1
 370 0 l 1
 365 0 l 1
 280 0 l 1
 270 0 l 1
 214.694 800 l 1
 324.694 800 l 1
 356.861 151 l 1
 689.694 800 l 1
 779.694 800 l 1
 812.861 151 l 1
 1144.69 800 l 1
 1254.69 800 l 1
EndSplineSet
EndChar

StartChar: S
Encoding: 83 83 132
Width: 790
VWidth: 0
Flags: W
HStem: -20 90<297.548 545.33> 730 90<441.693 665.494>
VStem: 137.717 100<121.409 250> 716.212 100<590 684.569>
AnchorPoint: "diac_bottom" 383.457 -50 basechar 0
AnchorPoint: "diac_top" 591.238 850 basechar 0
AnchorPoint: "cedilla" 429.234 40 basechar 0
LayerCount: 2
Fore
SplineSet
763.1 230 m 0
 728.008 78 576.383 -20 390.383 -20 c 0
 193.383 -20 100.316 88 137.717 250 c 1
 237.717 250 l 1
 213.938 147 273.161 70 411.161 70 c 0
 549.161 70 641.629 137 663.1 230 c 0
 686.187 330 594.036 364 477.729 380 c 0
 377.962 394 198.35 426 236.212 590 c 0
 260.223 694 391.312 820 579.312 820 c 0
 767.312 820 840.223 694 816.212 590 c 1
 716.212 590 l 1
 733.527 665 676.534 730 558.534 730 c 0
 440.534 730 353.527 665 336.212 590 c 0
 318.436 513 401.048 481 498.508 470 c 0
 651.353 452 805.811 415 763.1 230 c 0
EndSplineSet
EndChar

StartChar: u
Encoding: 117 117 133
Width: 660
VWidth: 0
Flags: W
HStem: -20 90<263.633 441.713> 580 20G<223.903 328.521 603.903 708.521>
AnchorPoint: "diac_top" 480.064 650 basechar 0
AnchorPoint: "hook_above" 486.99 680 basechar 0
AnchorPoint: "ring_above" 480.064 650 basechar 0
AnchorPoint: "ogonek" 359.234 40 basechar 0
AnchorPoint: "cedilla" 356.238 40 basechar 0
AnchorPoint: "diac_bottom" 297.2 -50 basechar 0
LayerCount: 2
Fore
SplineSet
236.174 200 m 2
 216.088 113 270.161 70 346.161 70 c 0
 422.161 70 496.088 113 516.174 200 c 2
 608.521 600 l 1
 708.521 600 l 1
 616.174 200 l 2
 583.391 58 466.383 -20 325.383 -20 c 0
 184.383 -20 103.391 58 136.174 200 c 2
 228.521 600 l 1
 328.521 600 l 1
 236.174 200 l 2
EndSplineSet
EndChar

StartChar: C
Encoding: 67 67 134
Width: 810
VWidth: 0
Flags: W
HStem: -20 90<311.639 554.922> 735 85<456.74 694.28>
AnchorPoint: "diac_top" 601.238 850 basechar 0
AnchorPoint: "ogonek" 436.238 40 basechar 0
AnchorPoint: "diac_bottom" 377.2 -50 basechar 0
AnchorPoint: "cedilla" 434.234 40 basechar 0
LayerCount: 2
Fore
SplineSet
599.312 820 m 0
 786.312 820 894.378 712 854.669 540 c 1
 754.669 540 l 1
 783.527 665 711.688 735 579.688 735 c 0
 447.688 735 343.527 665 314.669 540 c 2
 247.717 250 l 2
 221.167 135 299.161 70 426.161 70 c 0
 553.161 70 661.167 135 687.717 250 c 1
 787.717 250 l 1
 748.008 78 582.383 -20 405.383 -20 c 0
 228.383 -20 108.008 78 147.717 250 c 2
 214.669 540 l 2
 254.378 712 412.312 820 599.312 820 c 0
EndSplineSet
EndChar

StartChar: d
Encoding: 100 100 135
Width: 710
VWidth: 0
Flags: W
HStem: -20 90<269.399 436.152> 0 21G<510 614.617> 535 85<374.42 560.25> 880 20G<713.164 817.781>
AnchorPoint: "cedilla" 369.234 40 basechar 0
AnchorPoint: "diac_bottom" 338.457 -50 basechar 0
AnchorPoint: "diac_top" 450.064 650 basechar 0
LayerCount: 2
Fore
SplineSet
473.515 535 m 0xb0
 388.515 535 292.895 489 258.495 340 c 2
 235.408 240 l 2
 205.626 111 274.161 70 366.161 70 c 0
 446.161 70 514.78 116 547.17 161 c 1
 610.658 436 l 1
 595.279 495 545.515 535 473.515 535 c 0xb0
817.781 900 m 1
 610 0 l 1
 510 0 l 1x70
 527.084 74 l 1
 477.617 20 407.383 -20 325.383 -20 c 0
 169.383 -20 98.7002 81 135.408 240 c 2
 158.495 340 l 2
 201.898 528 329.139 620 473.139 620 c 0
 548.139 620 601.75 588 635.131 542 c 1
 717.781 900 l 1
 817.781 900 l 1
EndSplineSet
EndChar

StartChar: G
Encoding: 71 71 136
Width: 820
VWidth: 0
Flags: W
HStem: -20 90<311.639 571.117> 325 85<524.656 715.032> 735 85<456.74 694.28>
AnchorPoint: "diac_bottom" 398.457 -50 basechar 0
AnchorPoint: "diac_top" 606.238 850 basechar 0
LayerCount: 2
Fore
SplineSet
426.161 70 m 0
 538.161 70 614.625 98 676.938 160 c 1
 715.032 325 l 1
 505.032 325 l 1
 524.656 410 l 1
 824.656 410 l 1
 762.321 140 l 1
 683.388 32 547.383 -20 405.383 -20 c 0
 228.383 -20 108.008 78 147.717 250 c 2
 214.669 540 l 2
 254.378 712 412.312 820 599.312 820 c 0
 786.312 820 894.378 712 854.669 540 c 1
 754.669 540 l 1
 783.527 665 711.688 735 579.688 735 c 0
 447.688 735 343.527 665 314.669 540 c 2
 247.717 250 l 2
 221.167 135 299.161 70 426.161 70 c 0
EndSplineSet
EndChar

StartChar: g
Encoding: 103 103 137
Width: 710
VWidth: 0
Flags: W
HStem: -290 90<203.92 413.64> -20 85<275.202 440.743> 530 90<363.191 563.344> 580 20G<643.903 748.521>
AnchorPoint: "diac_top" 500.064 650 basechar 0
LayerCount: 2
Fore
SplineSet
611.352 439 m 1xe0
 599.74 484 552.36 530 472.36 530 c 0
 380.36 530 292.895 489 263.112 360 c 2
 240.025 260 l 2
 205.626 111 280.007 65 365.007 65 c 0
 437.007 65 505.241 105 547.862 164 c 1
 611.352 439 l 1xe0
591.53 -80 m 2
 562.21 -207 453.048 -290 283.048 -290 c 0
 113.048 -290 42.21 -207 71.5303 -80 c 1
 171.53 -80 l 1
 151.214 -168 226.826 -200 303.826 -200 c 0
 380.826 -200 471.214 -168 491.53 -80 c 2
 523.391 58 l 1
 468.771 12 400.383 -20 325.383 -20 c 0
 181.383 -20 96.6221 72 140.025 260 c 2
 163.112 360 l 2
 199.82 519 317.139 620 473.139 620 c 0xe0
 555.139 620 606.903 580 631.437 526 c 1
 648.521 600 l 1
 748.521 600 l 1xd0
 591.53 -80 l 2
EndSplineSet
EndChar

StartChar: l
Encoding: 108 108 138
Width: 350
VWidth: 0
Flags: W
HStem: 880 20G<313.164 417.781>
VStem: 133.087 284.694
AnchorPoint: "diac_top" 379.325 950 basechar 0
AnchorPoint: "diac_bottom" 178.457 -50 basechar 0
LayerCount: 2
Fore
SplineSet
257.691 -10 m 1
 165.691 -10 116.003 26 133.087 100 c 2
 317.781 900 l 1
 417.781 900 l 1
 244.63 150 l 2
 232.163 96 241.47 80 278.47 80 c 1
 257.691 -10 l 1
EndSplineSet
EndChar

StartChar: n
Encoding: 110 110 139
Width: 670
VWidth: 0
Flags: W
HStem: 0 21G<90 194.617 490 594.617> 530 90<425.057 570.456> 580 20G<223.903 328.521>
AnchorPoint: "diac_bottom" 328.457 -50 basechar 0
AnchorPoint: "diac_top" 500.064 650 basechar 0
AnchorPoint: "cedilla" 129.234 40 basechar 0
LayerCount: 2
Fore
SplineSet
228.521 600 m 1xa0
 328.521 600 l 1xa0
 304.973 498 l 1
 338.207 538 419.139 620 533.139 620 c 0
 655.139 620 715.131 542 686.965 420 c 2
 590 0 l 1
 490 0 l 1
 586.965 420 l 2
 604.279 495 560.36 530 492.36 530 c 0xc0
 392.36 530 317.737 458 280.962 394 c 1
 190 0 l 1
 90 0 l 1
 228.521 600 l 1xa0
EndSplineSet
EndChar

StartChar: m
Encoding: 109 109 140
Width: 970
VWidth: 0
Flags: W
HStem: 0 21G<90 194.617 440 544.617 790 894.617> 530 90<397.452 530.715 733.859 880.524> 580 20G<223.903 328.521>
AnchorPoint: "diac_top" 640.064 650 basechar 0
AnchorPoint: "diac_bottom" 478.457 -50 basechar 0
AnchorPoint: "cedilla" 489.234 40 basechar 0
LayerCount: 2
Fore
SplineSet
228.521 600 m 1xa0
 328.521 600 l 1xa0
 311.898 528 l 1
 354.519 574 419.139 620 498.139 620 c 0
 572.139 620 621.058 585 637.437 526 c 1
 673.748 562 747.139 620 843.139 620 c 0
 965.139 620 1015.13 542 986.965 420 c 2
 890 0 l 1
 790 0 l 1
 886.965 420 l 2
 904.279 495 880.36 530 812.36 530 c 0
 742.36 530 683.356 491 641.736 445 c 1
 640.89 437 639.043 429 636.965 420 c 2
 540 0 l 1
 440 0 l 1
 536.965 420 l 2
 554.279 495 530.36 530 462.36 530 c 0xc0
 393.36 530 333.202 486 290.428 435 c 1
 190 0 l 1
 90 0 l 1
 228.521 600 l 1xa0
EndSplineSet
EndChar

StartChar: q
Encoding: 113 113 141
Width: 710
VWidth: 0
Flags: W
HStem: -20 85<275.202 440.743> 530 90<363.191 563.344> 580 20G<643.903 748.521>
AnchorPoint: "diac_top" 490.064 650 basechar 0
AnchorPoint: "diac_bottom" 228.457 -50 basechar 0
LayerCount: 2
Fore
SplineSet
611.352 439 m 1xc0
 599.74 484 552.36 530 472.36 530 c 0
 380.36 530 292.895 489 263.112 360 c 2
 240.025 260 l 2
 205.626 111 280.007 65 365.007 65 c 0
 437.007 65 505.241 105 547.862 164 c 1
 611.352 439 l 1xc0
447.666 -270 m 1
 523.391 58 l 1
 468.771 12 400.383 -20 325.383 -20 c 0
 181.383 -20 96.6221 72 140.025 260 c 2
 163.112 360 l 2
 199.82 519 317.139 620 473.139 620 c 0xc0
 555.139 620 606.903 580 631.437 526 c 1
 648.521 600 l 1
 748.521 600 l 1xa0
 547.666 -270 l 1
 447.666 -270 l 1
EndSplineSet
EndChar

StartChar: a
Encoding: 97 97 142
Width: 700
VWidth: 0
Flags: W
HStem: -20 90<248.544 407.065> 290 70<285.805 546.952> 535 85<365.328 550.322>
VStem: 196.965 100<420 473.835>
AnchorPoint: "diac_top" 490.064 650 basechar 0
AnchorPoint: "hook_above" 496.99 680 basechar 0
AnchorPoint: "ring_above" 490.064 650 basechar 0
AnchorPoint: "diac_bottom" 328.457 -50 basechar 0
AnchorPoint: "ogonek" 599.234 40 basechar 0
AnchorPoint: "cedilla" 596.238 40 basechar 0
LayerCount: 2
Fore
SplineSet
546.952 290 m 1
 386.952 290 l 2
 310.952 290 239.333 257 221.557 180 c 0
 205.396 110 260.161 70 336.161 70 c 0
 418.161 70 483.626 111 520.402 175 c 1
 546.952 290 l 1
296.965 420 m 1
 196.965 420 l 1
 225.131 542 342.139 620 483.139 620 c 0
 624.139 620 705.131 542 676.965 420 c 2
 614.63 150 l 2
 602.163 96 611.47 80 648.47 80 c 1
 627.691 -10 l 1
 548.691 -10 501.694 16 500.161 70 c 1
 444.925 17 373.383 -20 295.383 -20 c 0
 162.383 -20 96.1611 70 121.557 180 c 0
 150.184 304 268.112 360 393.112 360 c 2
 563.112 360 l 1
 576.965 420 l 2
 592.433 487 549.515 535 463.515 535 c 0
 377.515 535 312.433 487 296.965 420 c 1
EndSplineSet
EndChar

StartChar: h
Encoding: 104 104 143
Width: 680
VWidth: 0
Flags: W
HStem: 0 21G<100 204.617 500 604.617> 530 90<435.057 580.456> 880 20G<303.164 407.781>
AnchorPoint: "diac_bottom" 338.457 -50 basechar 0
AnchorPoint: "diac_top" 580.064 650 basechar 0
AnchorPoint: "cedilla" 149.234 40 basechar 0
LayerCount: 2
Fore
SplineSet
307.781 900 m 1
 407.781 900 l 1
 338.521 600 l 1
 314.973 498 l 1
 348.207 538 429.139 620 543.139 620 c 0
 665.139 620 725.131 542 696.965 420 c 2
 600 0 l 1
 500 0 l 1
 596.965 420 l 2
 614.279 495 570.36 530 502.36 530 c 0
 402.36 530 327.737 458 290.962 394 c 1
 200 0 l 1
 100 0 l 1
 238.521 600 l 1
 307.781 900 l 1
EndSplineSet
EndChar

StartChar: e
Encoding: 101 101 144
Width: 680
VWidth: 0
Flags: W
HStem: -20 90<259.04 464.629> 290 70<263.112 587.611> 535 85<364.341 552.283>
AnchorPoint: "hook_above" 496.99 680 basechar 0
AnchorPoint: "diac_bottom" 328.457 -50 basechar 0
AnchorPoint: "diac_top" 490.064 650 basechar 0
AnchorPoint: "cedilla" 369.234 40 basechar 0
AnchorPoint: "ogonek" 369.234 40 basechar 0
LayerCount: 2
Fore
SplineSet
683.112 360 m 2
 666.952 290 l 1
 246.952 290 l 1
 226.174 200 l 2
 203.317 101 284.161 70 356.161 70 c 0
 428.161 70 523.317 101 546.174 200 c 1
 646.174 200 l 1
 610.851 47 463.383 -20 335.383 -20 c 0
 207.383 -20 90.8506 47 126.174 200 c 2
 163.112 360 l 2
 201.898 528 339.139 620 483.139 620 c 0
 627.139 620 721.898 528 683.112 360 c 2
583.112 360 m 1
 612.895 489 548.515 535 463.515 535 c 0
 378.515 535 292.895 489 263.112 360 c 1
 583.112 360 l 1
EndSplineSet
EndChar

StartChar: c
Encoding: 99 99 145
Width: 640
VWidth: 0
Flags: W
HStem: -20 90<250.076 462.32> 535 85<353.99 551.922>
AnchorPoint: "diac_top" 480.064 650 basechar 0
AnchorPoint: "diac_bottom" 318.457 -50 basechar 0
AnchorPoint: "cedilla" 349.234 40 basechar 0
LayerCount: 2
Fore
SplineSet
270.039 390 m 2
 223.865 190 l 2
 204.472 106 261.161 70 351.161 70 c 0
 441.161 70 502.163 96 523.865 190 c 1
 623.865 190 l 1
 592.005 52 474.383 -20 330.383 -20 c 0
 186.383 -20 89.6963 42 123.865 190 c 2
 170.039 390 l 2
 204.207 538 334.139 620 478.139 620 c 0
 622.139 620 704.207 538 674.656 410 c 1
 574.656 410 l 1
 594.049 494 548.515 535 458.515 535 c 0
 368.515 535 294.049 494 270.039 390 c 2
EndSplineSet
EndChar

StartChar: w
Encoding: 119 119 146
Width: 850
VWidth: 0
Flags: W
HStem: 0 21G<208.951 319.786 539.449 650.284> 580 20G<178.521 283.903 513.734 604.073 833.903 948.521>
VStem: 178.521 105<439.896 600> 523.521 80<295.724 445> 540 76.5508<128 304.803>
AnchorPoint: "diac_top" 575.064 650 basechar 0
AnchorPoint: "diac_bottom" 413.457 -50 basechar 0
AnchorPoint: "ring_above" 575.064 650 basechar 0
LayerCount: 2
Fore
SplineSet
843.521 600 m 1xe8
 948.521 600 l 1
 640 0 l 1
 620 0 l 1
 555 0 l 1
 540 0 l 1xe8
 527.736 445 l 1
 310 0 l 1
 295 0 l 1
 230 0 l 1
 210 0 l 1
 178.521 600 l 1
 283.521 600 l 1
 292.551 128 l 1
 523.521 600 l 1
 603.521 600 l 1xf0
 616.551 128 l 1
 843.521 600 l 1xe8
EndSplineSet
EndChar

StartChar: v
Encoding: 118 118 147
Width: 660
VWidth: 0
Flags: W
HStem: 0 21G<276.617 392.617> 580 20G<178.521 291.403 636.403 758.521>
AnchorPoint: "diac_bottom" 318.457 -50 basechar 0
AnchorPoint: "diac_top" 480.064 650 basechar 0
LayerCount: 2
Fore
SplineSet
648.521 600 m 1
 758.521 600 l 1
 380 0 l 1
 375 0 l 1
 285 0 l 1
 280 0 l 1
 178.521 600 l 1
 288.521 600 l 1
 357.704 120 l 1
 648.521 600 l 1
EndSplineSet
EndChar

StartChar: z
Encoding: 122 122 148
Width: 620
VWidth: 0
Flags: W
HStem: 0 100<213.087 560> 510 90<218.521 547.743>
AnchorPoint: "diac_bottom" 298.457 -50 basechar 0
AnchorPoint: "diac_top" 460.064 650 basechar 0
AnchorPoint: "cedilla" 329.234 40 basechar 0
LayerCount: 2
Fore
SplineSet
218.521 600 m 1
 688.521 600 l 1
 667.743 510 l 1
 213.087 100 l 1
 583.087 100 l 1
 560 0 l 1
 60 0 l 1
 83.0869 100 l 1
 547.743 510 l 1
 197.743 510 l 1
 218.521 600 l 1
EndSplineSet
EndChar

StartChar: y
Encoding: 121 121 149
Width: 660
VWidth: 0
Flags: W
HStem: -290 90<53.8262 161.628> 580 20G<178.521 291.403 636.403 758.521>
AnchorPoint: "hook_above" 486.99 680 basechar 0
AnchorPoint: "diac_top" 480.064 650 basechar 0
AnchorPoint: "diac_bottom" 497.2 -50 basechar 0
AnchorPoint: "ogonek" 287.2 -50 basechar 0
AnchorPoint: "ring_above" 480.064 650 basechar 0
LayerCount: 2
Fore
SplineSet
648.521 600 m 1
 758.521 600 l 1
 380 0 l 1
 268.443 -180 l 1
 215.051 -264 171.048 -290 33.0479 -290 c 1
 53.8262 -200 l 1
 134.826 -200 153.597 -188 185.37 -150 c 1
 280 0 l 1
 178.521 600 l 1
 288.521 600 l 1
 357.704 120 l 1
 648.521 600 l 1
EndSplineSet
EndChar

StartChar: r
Encoding: 114 114 150
Width: 410
VWidth: 0
Flags: W
HStem: 0 21G<90 194.617> 510 100<415.864 497.743> 580 20G<223.903 328.521>
AnchorPoint: "diac_top" 360.064 650 basechar 0
AnchorPoint: "diac_bottom" 128.457 -50 basechar 0
LayerCount: 2
Fore
SplineSet
228.521 600 m 1xa0
 328.521 600 l 1xa0
 304.511 496 l 1
 343.899 541 419.83 610 520.83 610 c 1
 497.743 510 l 1xc0
 405.743 510 326.507 457 280.731 393 c 1
 190 0 l 1
 90 0 l 1
 228.521 600 l 1xa0
EndSplineSet
EndChar

StartChar: numbersign
Encoding: 35 35 151
Width: 910
VWidth: 0
Flags: W
HStem: 0 21G<195 283.356 485 573.357> 230 70<149.261 291.1 400.261 581.1 690.261 863.1> 500 70<231.595 404.434 513.595 694.434 803.595 945.434> 780 20G<521.338 609.694 811.338 899.694>
LayerCount: 2
Fore
SplineSet
610.261 300 m 1
 694.434 500 l 1
 484.434 500 l 1
 400.261 300 l 1
 610.261 300 l 1
690.261 300 m 1
 879.261 300 l 1
 863.1 230 l 1
 661.1 230 l 1
 565 0 l 1
 485 0 l 1
 581.1 230 l 1
 371.1 230 l 1
 275 0 l 1
 195 0 l 1
 291.1 230 l 1
 133.1 230 l 1
 149.261 300 l 1
 320.261 300 l 1
 404.434 500 l 1
 215.435 500 l 1
 231.595 570 l 1
 433.595 570 l 1
 529.694 800 l 1
 609.694 800 l 1
 513.595 570 l 1
 723.595 570 l 1
 819.694 800 l 1
 899.694 800 l 1
 803.595 570 l 1
 961.595 570 l 1
 945.434 500 l 1
 774.434 500 l 1
 690.261 300 l 1
EndSplineSet
EndChar

StartChar: asterisk
Encoding: 42 42 152
Width: 540
VWidth: 0
Flags: W
HStem: 520 380
VStem: 239.534 398
LayerCount: 2
Fore
SplineSet
631.771 796 m 1
 637.534 730 l 1
 484.683 683 l 1
 544.748 562 l 1
 479.052 520 l 1
 418.218 642 l 1
 301.052 520 l 1
 254.748 562 l 1
 370.683 683 l 1
 239.534 730 l 1
 275.771 796 l 1
 408.151 750 l 1
 442.781 900 l 1
 512.781 900 l 1
 478.151 750 l 1
 631.771 796 l 1
EndSplineSet
EndChar

StartChar: s
Encoding: 115 115 153
Width: 680
VWidth: 0
Flags: W
HStem: -20 90<248.628 474.005> 530 90<360.621 552.422>
VStem: 119.248 100<99.1625 170> 581.582 100<440 502.719>
AnchorPoint: "diac_bottom" 328.457 -50 basechar 0
AnchorPoint: "diac_top" 490.064 650 basechar 0
AnchorPoint: "cedilla" 369.234 40 basechar 0
LayerCount: 2
Fore
SplineSet
119.248 170 m 1
 219.248 170 l 1
 205.396 110 259.161 70 356.161 70 c 0
 453.161 70 525.396 110 539.248 170 c 0
 555.87 242 478.257 261 402.334 270 c 0
 297.104 282 173.186 317 201.582 440 c 0
 220.514 522 324.139 620 483.139 620 c 0
 642.139 620 700.514 522 681.582 440 c 1
 581.582 440 l 1
 590.586 479 555.36 530 462.36 530 c 0
 369.36 530 310.586 479 301.582 440 c 0
 287.269 378 348.882 359 420.804 350 c 0
 540.341 335 672.262 313 639.248 170 c 0
 616.161 70 509.383 -20 335.383 -20 c 0
 161.383 -20 96.1611 70 119.248 170 c 1
EndSplineSet
EndChar

StartChar: f
Encoding: 102 102 154
Width: 420
VWidth: 0
Flags: W
HStem: 0 21G<150 254.617> 520 80<178.521 270.052 388.521 500.052> 810 90<469.997 567.003>
AnchorPoint: "diac_bottom" 178.457 -50 basechar 0
AnchorPoint: "diac_top" 509.325 950 basechar 0
LayerCount: 2
Fore
SplineSet
160.052 520 m 1
 178.521 600 l 1
 288.521 600 l 1
 313.916 710 l 2
 340.928 827 440.781 900 587.781 900 c 1
 567.003 810 l 1
 506.003 810 431.924 788 413.916 710 c 2
 388.521 600 l 1
 518.521 600 l 1
 500.052 520 l 1
 370.052 520 l 1
 250 0 l 1
 150 0 l 1
 270.052 520 l 1
 160.052 520 l 1
EndSplineSet
EndChar

StartChar: t
Encoding: 116 116 155
Width: 420
VWidth: 0
Flags: W
HStem: 0 21G<160 264.617> 520 80<168.521 280.052 398.521 510.052>
VStem: 150.052 378.469
AnchorPoint: "diac_top" 415.473 890 basechar 0
AnchorPoint: "cedilla" 209.234 40 basechar 0
AnchorPoint: "diac_bottom" 198.457 -50 basechar 0
LayerCount: 2
Fore
SplineSet
423.93 840 m 1
 453.93 840 l 1
 398.521 600 l 1
 528.521 600 l 1
 510.052 520 l 1
 380.052 520 l 1
 260 0 l 1
 160 0 l 1
 280.052 520 l 1
 150.052 520 l 1
 168.521 600 l 1
 298.521 600 l 1
 340.077 780 l 1
 423.93 840 l 1
EndSplineSet
EndChar

StartChar: k
Encoding: 107 107 156
Width: 620
VWidth: 0
Flags: W
HStem: 0 21G<100 204.617 460.903 590> 280 90<285.421 342.644> 580 20G<559.555 688.521> 880 20G<303.164 407.781>
AnchorPoint: "diac_top" 540.064 650 basechar 0
AnchorPoint: "diac_bottom" 308.457 -50 basechar 0
LayerCount: 2
Fore
SplineSet
578.521 600 m 1
 688.521 600 l 1
 432.341 335 l 1
 590 0 l 1
 470 0 l 1
 342.644 280 l 1
 264.644 280 l 1
 200 0 l 1
 100 0 l 1
 307.781 900 l 1
 407.781 900 l 1
 285.421 370 l 1
 360.421 370 l 1
 578.521 600 l 1
EndSplineSet
EndChar

StartChar: hyphen
Encoding: 45 45 157
Width: 560
VWidth: 0
Flags: W
HStem: 285 70<161.958 545.798>
LayerCount: 2
Fore
SplineSet
161.958 355 m 1
 561.958 355 l 1
 545.798 285 l 1
 145.798 285 l 1
 161.958 355 l 1
EndSplineSet
EndChar

StartChar: bar
Encoding: 124 124 158
Width: 320
VWidth: 0
Flags: W
HStem: 880 20G<323.164 407.781>
VStem: 78.4434 329.338
LayerCount: 2
Fore
SplineSet
327.781 900 m 1
 407.781 900 l 1
 158.443 -180 l 1
 78.4434 -180 l 1
 327.781 900 l 1
EndSplineSet
EndChar

StartChar: slash
Encoding: 47 47 159
Width: 480
VWidth: 0
Flags: W
HStem: 880 20G<537.979 627.781>
LayerCount: 2
Fore
SplineSet
547.781 900 m 1
 627.781 900 l 1
 98.4434 -180 l 1
 18.4434 -180 l 1
 547.781 900 l 1
EndSplineSet
EndChar

StartChar: colon
Encoding: 58 58 160
Width: 320
VWidth: 0
Flags: W
HStem: 0 140<132.462 219.86> 420 140<229.426 316.824>
VStem: 106.161 236.964
LayerCount: 2
Fore
SplineSet
343.125 490 m 0
 334.121 451 295.965 420 256.965 420 c 0
 217.965 420 194.121 451 203.125 490 c 0
 212.129 529 250.286 560 289.286 560 c 0
 328.286 560 352.129 529 343.125 490 c 0
246.161 70 m 0
 237.157 31 199 0 160 0 c 0
 121 0 97.1572 31 106.161 70 c 0
 115.165 109 153.321 140 192.321 140 c 0
 231.321 140 255.165 109 246.161 70 c 0
EndSplineSet
EndChar

StartChar: backslash
Encoding: 92 92 161
Width: 480
VWidth: 0
Flags: W
HStem: 880 20G<267.781 348.349>
VStem: 267.781 80<604.13 900> 298.443 80<-180 115.87>
LayerCount: 2
Fore
SplineSet
347.781 900 m 1xc0
 378.443 -180 l 1
 298.443 -180 l 1xa0
 267.781 900 l 1
 347.781 900 l 1xc0
EndSplineSet
EndChar

StartChar: seven
Encoding: 55 55 162
Width: 660
Flags: W
HStem: 0 21G<240 344.617> 710 90<274.694 623.916>
LayerCount: 2
Fore
SplineSet
240 0 m 1
 288.482 210 l 2
 357.743 510 623.916 710 623.916 710 c 1
 253.916 710 l 1
 274.694 800 l 1
 754.694 800 l 1
 733.916 710 l 1
 733.916 710 459.128 516 388.482 210 c 2
 340 0 l 1
 240 0 l 1
EndSplineSet
EndChar

StartChar: exclam
Encoding: 33 33 163
Width: 320
VWidth: 0
Flags: W
HStem: 0 140<132.462 219.86> 880 20G<313.164 417.781>
VStem: 106.161 140<25.3323 114.668>
LayerCount: 2
Fore
SplineSet
317.781 900 m 1
 417.781 900 l 1
 293.112 360 l 1
 245.408 240 l 1
 185.408 240 l 1
 193.112 360 l 1
 317.781 900 l 1
246.161 70 m 0
 237.157 31 199 0 160 0 c 0
 121 0 97.1572 31 106.161 70 c 0
 115.165 109 153.321 140 192.321 140 c 0
 231.321 140 255.165 109 246.161 70 c 0
EndSplineSet
EndChar

StartChar: quotedbl
Encoding: 34 34 164
Width: 440
VWidth: 0
Flags: W
HStem: 560 240<249.694 284.286 449.694 484.286>
VStem: 214.286 345.408
LayerCount: 2
Fore
SplineSet
449.694 800 m 1
 559.694 800 l 1
 484.286 560 l 1
 414.286 560 l 1
 449.694 800 l 1
249.694 800 m 1
 359.694 800 l 1
 284.286 560 l 1
 214.286 560 l 1
 249.694 800 l 1
EndSplineSet
EndChar

StartChar: dollar
Encoding: 36 36 165
Width: 790
VWidth: 0
Flags: W
HStem: -19 91<295.075 355.613 446.622 545.357> 729 90<437.775 528.303 618.851 667.328>
VStem: 137.717 100<122.673 250> 716.212 100<590 682.197>
LayerCount: 2
Fore
SplineSet
579.325 950 m 1
 649.325 950 l 1
 618.851 818 l 1
 777.156 802 838.376 686 816.212 590 c 1
 716.212 590 l 1
 731.449 656 688.84 714 597.841 727 c 1
 537.354 465 l 1
 675.736 445 802.116 399 763.1 230 c 0
 730.316 88 595.384 -7 425.613 -19 c 1
 395.37 -150 l 1
 325.37 -150 l 1
 355.613 -19 l 1
 182.384 -7 102.625 98 137.717 250 c 1
 237.717 250 l 1
 216.016 156 263.393 84 376.622 72 c 1
 448.653 384 l 1
 347.578 401 201.812 441 236.212 590 c 0
 258.837 688 377.08 806 549.081 819 c 1
 579.325 950 l 1
469.432 474 m 1
 528.303 729 l 1
 425.994 719 351.911 658 336.212 590 c 0
 320.282 521 385.664 488 469.432 474 c 1
516.345 374 m 1
 446.622 72 l 1
 564.932 82 643.476 145 663.1 230 c 0
 683.646 319 612.958 355 516.345 374 c 1
EndSplineSet
EndChar

StartChar: percent
Encoding: 37 37 166
Width: 840
VWidth: 0
Flags: W
HStem: -10 65<576.968 680.885> 0 21G<90 208.617> 285 65<617.61 721.527> 450 65<303.167 407.085> 745 65<343.809 447.727> 780 20G<816.077 934.694>
LayerCount: 2
Fore
SplineSet
834.694 800 m 1x74
 934.694 800 l 1
 190 0 l 1
 90 0 l 1
 834.694 800 l 1x74
417.003 810 m 0x38
 511.003 810 558.303 729 535.447 630 c 0
 512.591 531 427.891 450 333.891 450 c 0
 239.891 450 192.591 531 215.447 630 c 0
 238.303 729 323.003 810 417.003 810 c 0x38
401.997 745 m 0
 344.997 745 307.452 682 295.447 630 c 0
 283.441 578 291.897 515 348.897 515 c 0
 405.897 515 443.441 578 455.447 630 c 0
 467.452 682 458.997 745 401.997 745 c 0
690.804 350 m 0
 784.804 350 832.104 269 809.248 170 c 0
 786.392 71 701.691 -10 607.691 -10 c 0xb0
 513.691 -10 466.392 71 489.248 170 c 0
 512.104 269 596.804 350 690.804 350 c 0
675.798 285 m 0
 618.798 285 581.253 222 569.248 170 c 0
 557.242 118 565.697 55 622.697 55 c 0
 679.697 55 717.242 118 729.248 170 c 0
 741.253 222 732.798 285 675.798 285 c 0
EndSplineSet
EndChar

StartChar: quotesingle
Encoding: 39 39 167
Width: 240
VWidth: 0
Flags: W
HStem: 560 240<249.694 284.286>
VStem: 214.286 145.408
LayerCount: 2
Fore
SplineSet
249.694 800 m 1
 359.694 800 l 1
 284.286 560 l 1
 214.286 560 l 1
 249.694 800 l 1
EndSplineSet
EndChar

StartChar: parenleft
Encoding: 40 40 168
Width: 400
VWidth: 0
Flags: W
LayerCount: 2
Fore
SplineSet
173.112 360 m 1
 180.039 390 l 2
 252.993 706 355.776 848 572.398 920 c 1
 560.855 870 l 1
 391.31 794 333.989 667 270.039 390 c 2
 263.112 360 l 1
 256.187 330 l 2
 192.236 53 190.916 -74 325.37 -150 c 1
 313.826 -200 l 1
 130.449 -128 93.2324 14 166.187 330 c 2
 173.112 360 l 1
EndSplineSet
EndChar

StartChar: parenright
Encoding: 41 41 169
Width: 400
VWidth: 0
Flags: W
LayerCount: 2
Fore
SplineSet
393.112 360 m 1
 386.187 330 l 2
 313.232 14 210.449 -128 -6.17383 -200 c 1
 5.37012 -150 l 1
 174.916 -74 232.236 53 296.187 330 c 2
 303.112 360 l 1
 310.039 390 l 2
 373.989 667 375.31 794 240.855 870 c 1
 252.398 920 l 1
 435.776 848 472.993 706 400.039 390 c 2
 393.112 360 l 1
EndSplineSet
EndChar

StartChar: plus
Encoding: 43 43 170
Width: 560
VWidth: 0
Flags: W
HStem: 285 70<161.958 305.798 401.958 545.798>
LayerCount: 2
Fore
SplineSet
350.013 130 m 1
 270.013 130 l 1
 305.798 285 l 1
 145.798 285 l 1
 161.958 355 l 1
 321.958 355 l 1
 357.743 510 l 1
 437.743 510 l 1
 401.958 355 l 1
 561.958 355 l 1
 545.798 285 l 1
 385.798 285 l 1
 350.013 130 l 1
EndSplineSet
EndChar

StartChar: comma
Encoding: 44 44 171
Width: 320
VWidth: 0
Flags: W
HStem: -150 290
VStem: 45.3701 206.173
LayerCount: 2
Fore
SplineSet
192.321 140 m 0
 243.321 140 263.317 101 251.543 50 c 0
 233.536 -28 169.297 -107 100.37 -150 c 1
 45.3701 -150 l 1
 105.297 -107 147.303 -55 160 0 c 1
 121 0 97.1572 31 106.161 70 c 0
 115.165 109 153.321 140 192.321 140 c 0
EndSplineSet
EndChar

StartChar: zero
Encoding: 48 48 172
Width: 660
Flags: W
HStem: -20 90<264.774 440.021> 730 90<404.674 579.921>
LayerCount: 2
Fore
SplineSet
135.408 240 m 2
 209.286 560 l 2
 245.07 715 364.312 820 519.312 820 c 0
 674.312 820 745.07 715 709.286 560 c 2
 635.408 240 l 2
 599.624 85 480.383 -20 325.383 -20 c 0
 170.383 -20 99.624 85 135.408 240 c 2
235.408 240 m 2
 212.553 141 248.161 70 346.161 70 c 0
 444.161 70 512.553 141 535.408 240 c 2
 609.286 560 l 2
 632.143 659 596.534 730 498.534 730 c 0
 400.534 730 332.143 659 309.286 560 c 2
 235.408 240 l 2
EndSplineSet
EndChar

StartChar: one
Encoding: 49 49 173
Width: 660
Flags: W
HStem: 0 21G<370 474.617> 525 95<253.139 374.937> 780 20G<543.844 654.694>
LayerCount: 2
Fore
SplineSet
515.447 630 m 1
 459.902 567 330.206 525 231.206 525 c 1
 253.139 620 l 1
 369.139 620 532.993 706 554.694 800 c 1
 654.694 800 l 1
 470 0 l 1
 370 0 l 1
 515.447 630 l 1
EndSplineSet
EndChar

StartChar: two
Encoding: 50 50 174
Width: 660
Flags: W
HStem: 0 90<210.778 580> 730 90<406.13 580.09>
LayerCount: 2
Fore
SplineSet
607.366 595 m 0
 624.682 670 588.534 730 498.534 730 c 0
 408.534 730 344.682 670 327.366 595 c 1
 227.366 595 l 1
 255.994 719 377.312 820 519.312 820 c 0
 661.312 820 735.994 719 707.366 595 c 0
 681.51 483 576.502 405 468.495 340 c 0
 357.027 273 235.02 195 210.778 90 c 1
 600.778 90 l 1
 580 0 l 1
 80 0 l 1
 100.778 90 l 2
 127.79 207 244.567 297 355.421 370 c 0
 450.966 433 584.279 495 607.366 595 c 0
EndSplineSet
EndChar

StartChar: three
Encoding: 51 51 175
Width: 660
Flags: W
HStem: -20 90<247.054 438.357> 375 80<345.045 493.502> 730 90<396.13 570.09>
VStem: 110.791 100<108.339 220> 217.366 100<595 651.143>
LayerCount: 2
Fore
SplineSet
110.791 220 m 1
 210.791 220 l 1
 191.629 137 233.161 70 336.161 70 c 0
 439.161 70 511.629 137 530.791 220 c 0
 549.953 303 509.575 375 406.575 375 c 2
 326.575 375 l 1
 345.045 455 l 1
 425.045 455 l 2
 515.045 455 580.052 520 597.366 595 c 0
 614.682 670 578.534 730 488.534 730 c 0
 398.534 730 334.682 670 317.366 595 c 1
 217.366 595 l 1
 245.994 719 367.312 820 509.312 820 c 0
 651.312 820 725.994 719 697.366 595 c 0
 680.514 522 631.737 458 564.503 418 c 1
 625.269 378 650.877 307 630.791 220 c 0
 598.932 82 471.383 -20 315.383 -20 c 0
 159.383 -20 78.9316 82 110.791 220 c 1
EndSplineSet
EndChar

StartChar: four
Encoding: 52 52 176
Width: 660
Flags: W
HStem: 0 21G<410 514.617> 150 90<225.408 444.63 565.408 624.63> 780 20G<577.934 694.694>
LayerCount: 2
Fore
SplineSet
125.408 240 m 1
 594.694 800 l 1
 694.694 800 l 1
 565.408 240 l 1
 645.408 240 l 1
 624.63 150 l 1
 544.63 150 l 1
 510 0 l 1
 410 0 l 1
 444.63 150 l 1
 104.63 150 l 1
 125.408 240 l 1
225.408 240 m 1
 465.408 240 l 1
 555.447 630 l 1
 225.408 240 l 1
EndSplineSet
EndChar

StartChar: five
Encoding: 53 53 177
Width: 660
Flags: W
HStem: -20 90<264.774 440.021> 410 90<344.467 506.043> 710 90<403.916 703.916>
VStem: 135.408 100<100.115 240>
LayerCount: 2
Fore
SplineSet
325.383 -20 m 0
 170.383 -20 99.624 85 135.408 240 c 1
 235.408 240 l 1
 212.553 141 248.161 70 346.161 70 c 0
 444.161 70 512.553 141 535.408 240 c 0
 558.265 339 522.656 410 424.656 410 c 0
 359.656 410 314.423 383 280.804 350 c 1
 183.112 360 l 1
 334.694 800 l 1
 434.694 800 l 1
 724.694 800 l 1
 703.916 710 l 1
 403.916 710 l 1
 318.199 460 l 1
 355.278 482 399.434 500 445.434 500 c 0
 600.434 500 671.193 395 635.408 240 c 0
 599.624 85 480.383 -20 325.383 -20 c 0
EndSplineSet
EndChar

StartChar: six
Encoding: 54 54 178
Width: 660
Flags: W
HStem: -20 90<264.774 440.021> 410 90<341.827 506.043> 730 90<399.801 576.101>
LayerCount: 2
Fore
SplineSet
535.408 240 m 0
 558.265 339 522.656 410 424.656 410 c 0
 326.656 410 258.265 339 235.408 240 c 0
 212.553 141 248.161 70 346.161 70 c 0
 444.161 70 512.553 141 535.408 240 c 0
514.312 820 m 0
 656.312 820 735.994 719 707.366 595 c 1
 607.366 595 l 1
 624.682 670 583.534 730 493.534 730 c 0
 403.534 730 334.682 670 317.366 595 c 2
 279.966 433 l 1
 329.662 475 388.434 500 445.434 500 c 0
 600.434 500 671.193 395 635.408 240 c 0
 599.624 85 480.383 -20 325.383 -20 c 0
 170.383 -20 99.624 85 135.408 240 c 2
 217.366 595 l 2
 245.994 719 372.312 820 514.312 820 c 0
EndSplineSet
EndChar

StartChar: eight
Encoding: 56 56 179
Width: 660
Flags: W
HStem: -20 90<257.054 448.357> 375 80<357.656 503.502> 730 90<406.13 580.09>
LayerCount: 2
Fore
SplineSet
416.575 375 m 0
 313.575 375 239.953 303 220.791 220 c 0
 201.629 137 243.161 70 346.161 70 c 0
 449.161 70 521.629 137 540.791 220 c 0
 559.953 303 519.575 375 416.575 375 c 0
435.045 455 m 0
 525.045 455 590.052 520 607.366 595 c 0
 624.682 670 588.534 730 498.534 730 c 0
 408.534 730 344.682 670 327.366 595 c 0
 310.052 520 345.045 455 435.045 455 c 0
574.503 418 m 1
 635.269 378 660.877 307 640.791 220 c 0
 608.932 82 481.383 -20 325.383 -20 c 0
 169.383 -20 88.9316 82 120.791 220 c 0
 140.877 307 199.269 378 278.503 418 c 1
 229.737 458 210.514 522 227.366 595 c 0
 255.994 719 377.312 820 519.312 820 c 0
 661.312 820 735.994 719 707.366 595 c 0
 690.514 522 641.737 458 574.503 418 c 1
EndSplineSet
EndChar

StartChar: nine
Encoding: 57 57 180
Width: 660
Flags: W
HStem: -20 90<268.594 444.893> 300 90<338.652 502.868> 730 90<404.674 579.921>
LayerCount: 2
Fore
SplineSet
309.286 560 m 0
 286.431 461 322.039 390 420.039 390 c 0
 518.039 390 586.431 461 609.286 560 c 0
 632.143 659 596.534 730 498.534 730 c 0
 400.534 730 332.143 659 309.286 560 c 0
330.383 -20 m 0
 188.383 -20 108.7 81 137.328 205 c 1
 237.328 205 l 1
 220.013 130 261.161 70 351.161 70 c 0
 441.161 70 510.013 130 527.328 205 c 2
 564.729 367 l 1
 515.032 325 456.261 300 399.261 300 c 0
 244.261 300 173.502 405 209.286 560 c 0
 245.07 715 364.312 820 519.312 820 c 0
 674.312 820 745.07 715 709.286 560 c 2
 627.328 205 l 2
 598.7 81 472.383 -20 330.383 -20 c 0
EndSplineSet
EndChar

StartChar: semicolon
Encoding: 59 59 181
Width: 320
VWidth: 0
Flags: W
HStem: 420 140<229.426 316.824>
VStem: 45.3701 297.755
LayerCount: 2
Fore
SplineSet
343.125 490 m 0
 334.121 451 295.965 420 256.965 420 c 0
 217.965 420 194.121 451 203.125 490 c 0
 212.129 529 250.286 560 289.286 560 c 0
 328.286 560 352.129 529 343.125 490 c 0
192.321 140 m 0
 243.321 140 263.317 101 251.543 50 c 0
 233.536 -28 169.297 -107 100.37 -150 c 1
 45.3701 -150 l 1
 105.297 -107 147.303 -55 160 0 c 1
 121 0 97.1572 31 106.161 70 c 0
 115.165 109 153.321 140 192.321 140 c 0
EndSplineSet
EndChar

StartChar: less
Encoding: 60 60 182
Width: 600
VWidth: 0
Flags: W
LayerCount: 2
Fore
SplineSet
168.106 295 m 1
 179.649 345 l 1
 626.978 550 l 1
 607.354 465 l 1
 283.878 320 l 1
 540.402 175 l 1
 520.778 90 l 1
 168.106 295 l 1
EndSplineSet
EndChar

StartChar: equal
Encoding: 61 61 183
Width: 560
VWidth: 0
Flags: W
HStem: 180 70<137.717 521.557> 390 70<186.199 570.039>
LayerCount: 2
Fore
SplineSet
186.199 460 m 1
 586.199 460 l 1
 570.039 390 l 1
 170.039 390 l 1
 186.199 460 l 1
137.717 250 m 1
 537.717 250 l 1
 521.557 180 l 1
 121.557 180 l 1
 137.717 250 l 1
EndSplineSet
EndChar

StartChar: greater
Encoding: 62 62 184
Width: 600
VWidth: 0
Flags: W
LayerCount: 2
Fore
SplineSet
568.106 295 m 1
 120.778 90 l 1
 140.402 175 l 1
 463.878 320 l 1
 207.354 465 l 1
 226.978 550 l 1
 579.649 345 l 1
 568.106 295 l 1
EndSplineSet
EndChar

StartChar: question
Encoding: 63 63 185
Width: 640
VWidth: 0
Flags: W
HStem: 0 140<282.462 369.86> 730 90<395.11 568.863>
VStem: 217.743 96.9258<540 647.639> 256.161 140<25.3323 114.668> 310.408 100<240 322.709>
LayerCount: 2
Fore
SplineSet
396.161 70 m 0xd0
 387.157 31 349 0 310 0 c 0
 271 0 247.157 31 256.161 70 c 0
 265.165 109 303.321 140 342.321 140 c 0
 381.321 140 405.165 109 396.161 70 c 0xd0
314.669 540 m 1xe0
 217.743 510 l 1xe0
 211.745 536 210.902 567 218.521 600 c 0
 249.227 733 376.312 820 509.312 820 c 0
 642.312 820 729.227 733 698.521 600 c 0
 672.895 489 592.967 446 500.039 390 c 0
 443.189 356 427.262 313 410.408 240 c 1
 310.408 240 l 1xc8
 334.188 343 347.27 391 466.199 460 c 0
 537.896 502 581.668 527 598.521 600 c 0
 616.528 678 567.534 730 488.534 730 c 0
 409.534 730 336.528 678 318.521 600 c 0
 313.673 579 311.362 556 314.669 540 c 1xe0
EndSplineSet
EndChar

StartChar: at
Encoding: 64 64 186
Width: 1140
VWidth: 0
Flags: W
HStem: -180 65<405.812 699.924> 70 85<518.578 670.745 844.394 974.986> 505 85<589.226 762.105> 775 65<598.334 886.561>
LayerCount: 2
Fore
SplineSet
739.484 236 m 1
 787.967 446 l 1
 774.894 476 741.589 505 676.589 505 c 0
 608.589 505 537.123 464 515.421 370 c 2
 496.952 290 l 2
 475.25 196 527.784 155 595.784 155 c 0
 666.784 155 714.712 198 739.484 236 c 1
816.595 570 m 1
 916.595 570 l 1
 842.717 250 l 2
 825.171 174 857.63 150 894.63 150 c 0
 939.63 150 1030.63 176 1066.19 330 c 0
 1123.67 579 997.923 775 748.923 775 c 0
 499.923 775 283.673 579 226.187 330 c 0
 168.7 81 294.45 -115 543.45 -115 c 1
 655.604 -110 728.914 -87 813.227 -38 c 1
 838.837 -96 l 1
 739.446 -154 629.675 -179 528.443 -180 c 1
 241.443 -180 89.9277 43 156.187 330 c 0
 222.445 617 476.93 840 763.93 840 c 0
 1050.93 840 1202.45 617 1136.19 330 c 0
 1090.71 133 963.161 70 876.161 70 c 0
 800.161 70 751.701 94 735.091 139 c 1
 690.087 100 630.161 70 561.161 70 c 0
 443.161 70 362.553 141 396.952 290 c 2
 415.421 370 l 2
 448.436 513 568.212 590 681.212 590 c 0
 741.212 590 782.672 566 808.053 533 c 1
 816.595 570 l 1
EndSplineSet
EndChar

StartChar: bracketleft
Encoding: 91 91 187
Width: 400
VWidth: 0
Flags: W
HStem: -180 70<144.604 288.443> 830 70<361.621 521.621>
LayerCount: 2
Fore
SplineSet
173.112 360 m 1
 297.781 900 l 1
 537.781 900 l 1
 521.621 830 l 1
 361.621 830 l 1
 253.112 360 l 1
 144.604 -110 l 1
 304.604 -110 l 1
 288.443 -180 l 1
 48.4434 -180 l 1
 173.112 360 l 1
EndSplineSet
EndChar

StartChar: bracketright
Encoding: 93 93 188
Width: 400
VWidth: 0
Flags: W
HStem: -180 70<44.6045 204.604> 830 70<277.781 421.621>
LayerCount: 2
Fore
SplineSet
393.112 360 m 1
 268.443 -180 l 1
 28.4434 -180 l 1
 44.6045 -110 l 1
 204.604 -110 l 1
 313.112 360 l 1
 421.621 830 l 1
 261.621 830 l 1
 277.781 900 l 1
 517.781 900 l 1
 393.112 360 l 1
EndSplineSet
EndChar

StartChar: asciicircum
Encoding: 94 94 189
Width: 540
VWidth: 0
Flags: W
HStem: 560 240
LayerCount: 2
Fore
SplineSet
439.919 736 m 1
 289.286 560 l 1
 199.286 560 l 1
 414.694 800 l 1
 494.694 800 l 1
 599.286 560 l 1
 509.286 560 l 1
 439.919 736 l 1
EndSplineSet
EndChar

StartChar: underscore
Encoding: 95 95 190
Width: 720
VWidth: 0
Flags: W
HStem: -70 70<90 613.839>
LayerCount: 2
Fore
SplineSet
90 0 m 1
 630 0 l 1
 613.839 -70 l 1
 73.8389 -70 l 1
 90 0 l 1
EndSplineSet
EndChar

StartChar: grave
Encoding: 96 96 191
Width: 420
VWidth: 0
Flags: W
HStem: 620 180
VStem: 234.694 278.444
LayerCount: 2
Fore
SplineSet
234.694 800 m 1
 384.694 800 l 1
 513.139 620 l 1
 438.139 620 l 1
 234.694 800 l 1
EndSplineSet
EndChar

StartChar: braceleft
Encoding: 123 123 192
Width: 400
VWidth: 0
Flags: W
HStem: -180 70<211.793 308.443> 830 70<417.016 541.621>
LayerCount: 2
Fore
SplineSet
123.112 360 m 1
 124.267 365 l 1
 167.884 385 249.735 432 270.052 520 c 2
 337.003 810 l 2
 349.932 866 400.781 900 457.781 900 c 2
 557.781 900 l 1
 541.621 830 l 1
 461.621 830 l 2
 433.621 830 419.081 819 412.386 790 c 2
 350.052 520 l 2
 320.731 393 233.112 360 233.112 360 c 1
 233.112 360 305.494 327 276.174 200 c 2
 213.839 -70 l 2
 207.145 -99 216.604 -110 244.604 -110 c 2
 324.604 -110 l 1
 308.443 -180 l 1
 208.443 -180 l 2
 151.443 -180 116.293 -146 129.222 -90 c 2
 196.174 200 l 2
 216.49 288 156.341 335 121.958 355 c 1
 123.112 360 l 1
EndSplineSet
EndChar

StartChar: braceright
Encoding: 125 125 193
Width: 400
VWidth: 0
Flags: W
HStem: -180 70<24.6045 149.209> 830 70<257.781 354.432>
LayerCount: 2
Fore
SplineSet
443.112 360 m 1
 441.958 355 l 1
 398.341 335 316.49 288 296.174 200 c 2
 229.222 -90 l 2
 216.293 -146 165.443 -180 108.443 -180 c 2
 8.44336 -180 l 1
 24.6045 -110 l 1
 104.604 -110 l 2
 132.604 -110 147.145 -99 153.839 -70 c 2
 216.174 200 l 2
 245.494 327 333.112 360 333.112 360 c 1
 333.112 360 260.731 393 290.052 520 c 2
 352.386 790 l 2
 359.081 819 349.621 830 321.621 830 c 2
 241.621 830 l 1
 257.781 900 l 1
 357.781 900 l 2
 414.781 900 449.932 866 437.003 810 c 2
 370.052 520 l 2
 349.735 432 409.884 385 444.267 365 c 1
 443.112 360 l 1
EndSplineSet
EndChar

StartChar: asciitilde
Encoding: 126 126 194
Width: 640
VWidth: 0
Flags: W
HStem: 240 70<432.096 554.777> 330 70<232.979 355.562>
LayerCount: 2
Fore
SplineSet
307.348 400 m 0
 353.348 400 379.653 384 411.958 355 c 0
 441.725 328 450.569 310 496.569 310 c 0
 540.569 310 577.728 354 600.039 390 c 1
 645.421 370 l 1
 621.107 308 545.408 240 480.408 240 c 0
 434.408 240 406.333 257 375.798 285 c 0
 344.262 313 337.187 330 291.187 330 c 0
 247.187 330 210.028 286 187.717 250 c 1
 142.334 270 l 1
 166.648 332 242.348 400 307.348 400 c 0
EndSplineSet
EndChar

StartChar: quotedblleft
Encoding: 8220 8220 195
Width: 520
VWidth: 0
Flags: W
HStem: 550 290
LayerCount: 2
Fore
SplineSet
286.978 550 m 0
 235.978 550 215.981 589 227.756 640 c 0
 245.764 718 310.002 797 378.93 840 c 1
 433.93 840 l 1
 374.002 797 331.997 745 319.299 690 c 1
 358.299 690 382.143 659 373.139 620 c 0
 364.135 581 325.978 550 286.978 550 c 0
496.978 550 m 0
 445.978 550 425.981 589 437.756 640 c 0
 455.764 718 520.002 797 588.93 840 c 1
 643.93 840 l 1
 584.002 797 541.997 745 529.299 690 c 1
 568.299 690 592.143 659 583.139 620 c 0
 574.135 581 535.978 550 496.978 550 c 0
EndSplineSet
EndChar

StartChar: quotedblright
Encoding: 8221 8221 196
Width: 520
VWidth: 0
Flags: W
HStem: 550 290
LayerCount: 2
Fore
SplineSet
343.93 840 m 0
 394.93 840 414.926 801 403.151 750 c 0
 385.144 672 320.905 593 251.978 550 c 1
 196.978 550 l 1
 256.905 593 298.91 645 311.607 700 c 1
 272.607 700 248.765 731 257.769 770 c 0
 266.772 809 304.93 840 343.93 840 c 0
553.93 840 m 0
 604.93 840 624.926 801 613.151 750 c 0
 595.144 672 530.905 593 461.978 550 c 1
 406.978 550 l 1
 466.905 593 508.91 645 521.607 700 c 1
 482.607 700 458.765 731 467.769 770 c 0
 476.772 809 514.93 840 553.93 840 c 0
EndSplineSet
EndChar

StartChar: quoteleft
Encoding: 8216 8216 197
Width: 320
VWidth: 0
Flags: W
HStem: 550 290
VStem: 227.756 206.174
LayerCount: 2
Fore
SplineSet
286.978 550 m 0
 235.978 550 215.981 589 227.756 640 c 0
 245.764 718 310.002 797 378.93 840 c 1
 433.93 840 l 1
 374.002 797 331.997 745 319.299 690 c 1
 358.299 690 382.143 659 373.139 620 c 0
 364.135 581 325.978 550 286.978 550 c 0
EndSplineSet
EndChar

StartChar: quoteright
Encoding: 8217 8217 198
Width: 320
VWidth: 0
Flags: W
HStem: 550 290
VStem: 206.978 206.174
LayerCount: 2
Fore
SplineSet
353.93 840 m 0
 404.93 840 424.926 801 413.151 750 c 0
 395.144 672 330.905 593 261.978 550 c 1
 206.978 550 l 1
 266.905 593 308.91 645 321.607 700 c 1
 282.607 700 258.765 731 267.769 770 c 0
 276.772 809 314.93 840 353.93 840 c 0
EndSplineSet
EndChar

StartChar: afii57929
Encoding: 700 700 199
Width: 280
VWidth: 0
Flags: W
HStem: 460 290
VStem: 156.199 206.174
LayerCount: 2
Fore
SplineSet
303.151 750 m 0
 354.151 750 374.147 711 362.373 660 c 0
 344.365 582 280.127 503 211.199 460 c 1
 156.199 460 l 1
 216.127 503 258.132 555 270.83 610 c 1
 231.83 610 207.986 641 216.99 680 c 0
 225.994 719 264.151 750 303.151 750 c 0
EndSplineSet
EndChar

StartChar: Euro
Encoding: 8364 8364 200
Width: 750
Flags: W
HStem: -20 90<390.618 609.033> 270 60<146.187 232.334 346.187 632.334> 470 60<192.36 278.508 392.36 678.508> 735 85<536.397 754.902>
LayerCount: 2
Fore
SplineSet
850.843 740 m 1
 786.99 680 l 1
 756.764 718 713.688 735 649.688 735 c 0
 525.688 735 424.757 653 392.36 530 c 1
 692.36 530 l 1
 678.508 470 l 1
 378.508 470 l 1
 346.187 330 l 1
 646.187 330 l 1
 632.334 270 l 1
 332.334 270 l 1
 304.63 150 365.161 70 496.161 70 c 0
 560.161 70 609.932 82 657.704 120 c 1
 692.697 55 l 1
 631.616 7 556.383 -20 475.383 -20 c 0
 298.383 -20 190.316 88 232.334 270 c 1
 132.334 270 l 1
 146.187 330 l 1
 246.187 330 l 1
 278.508 470 l 1
 178.508 470 l 1
 192.36 530 l 1
 292.36 530 l 1
 338.916 710 495.312 820 669.312 820 c 0
 750.312 820 811.924 788 850.843 740 c 1
EndSplineSet
EndChar

StartChar: yen
Encoding: 165 165 201
Width: 700
VWidth: 0
Flags: W
HStem: 0 21G<300 404.617> 180 60<115.408 341.557 455.408 681.557> 380 60<161.582 333.582 569.582 727.729> 780 20G<214.694 340.577 719.577 854.694>
LayerCount: 2
Fore
SplineSet
214.694 800 m 1
 334.694 800 l 1
 440.582 440 l 1
 462.582 440 l 1
 734.694 800 l 1
 854.694 800 l 1
 569.582 440 l 1
 741.582 440 l 1
 727.729 380 l 1
 521.729 380 l 1
 473.878 320 l 1
 455.408 240 l 1
 695.408 240 l 1
 681.557 180 l 1
 441.557 180 l 1
 400 0 l 1
 300 0 l 1
 341.557 180 l 1
 101.557 180 l 1
 115.408 240 l 1
 355.408 240 l 1
 373.878 320 l 1
 353.729 380 l 1
 147.729 380 l 1
 161.582 440 l 1
 333.582 440 l 1
 214.694 800 l 1
EndSplineSet
EndChar

StartChar: sterling
Encoding: 163 163 202
Width: 700
Flags: W
HStem: 0 90<210.778 640> 370 60<179.273 265.421 383.273 575.421> 600 21G<608.521 723.989> 735 85<481.719 605.61>
VStem: 284.273 99<430 521.528> 608.521 100<600 728.496>
LayerCount: 2
Fore
SplineSet
569.312 820 m 0
 687.312 820 739.457 734 708.521 600 c 1
 608.521 600 l 1
 625.144 672 621.688 735 549.688 735 c 0
 477.688 735 445.144 672 428.521 600 c 0
 415.131 542 399.74 484 383.273 430 c 1
 589.273 430 l 1
 575.421 370 l 1
 363.421 370 l 1
 313.945 225 257.088 113 210.778 90 c 1
 660.778 90 l 1
 640 0 l 1
 80 0 l 1
 100.778 90 l 1
 171.476 145 222.64 241 265.421 370 c 1
 165.421 370 l 1
 179.273 430 l 1
 284.273 430 l 1
 300.278 482 314.438 539 328.521 600 c 0
 359.457 734 451.312 820 569.312 820 c 0
EndSplineSet
EndChar

StartChar: cent
Encoding: 162 162 203
Width: 640
VWidth: 0
Flags: W
HStem: 81 91<274.232 318.7 409.709 489.085> 633 85<372.832 446.14 535.764 573.829>
LayerCount: 2
Fore
SplineSet
519.325 950 m 1
 589.325 950 l 1
 535.764 718 l 1
 657.993 706 724.754 627 697.743 510 c 1
 597.743 510 l 1
 614.365 582 582.831 623 516.14 633 c 1
 409.709 172 l 1
 480.095 178 528.252 209 546.952 290 c 1
 646.952 290 l 1
 617.632 163 516.24 92 388.7 81 c 1
 335.37 -150 l 1
 265.37 -150 l 1
 318.7 81 l 1
 194.009 91 115.554 154 146.952 290 c 2
 193.125 490 l 2
 224.523 626 335.993 706 465.764 718 c 1
 519.325 950 l 1
293.125 490 m 2
 246.952 290 l 2
 230.099 217 270.787 181 339.709 172 c 1
 446.14 633 l 1
 372.831 623 313.903 580 293.125 490 c 2
EndSplineSet
EndChar

StartChar: copyright
Encoding: 169 169 204
Width: 940
Flags: W
HStem: -20 70<361.2 615.531> 190 70<468.999 613.649> 540 70<521.046 665.696> 750 70<509.164 763.494>
LayerCount: 2
Fore
SplineSet
615.83 610 m 0
 718.83 610 776.054 546 756.199 460 c 1
 676.199 460 l 1
 687.281 508 655.669 540 599.669 540 c 0
 543.669 540 497.281 508 486.199 460 c 2
 458.495 340 l 2
 447.413 292 479.025 260 535.025 260 c 0
 591.025 260 637.413 292 648.495 340 c 1
 728.495 340 l 1
 708.641 254 621.865 190 518.865 190 c 0
 415.865 190 358.641 254 378.495 340 c 2
 406.199 460 l 2
 426.054 546 512.83 610 615.83 610 c 0
659.312 820 m 0
 891.312 820 1035.91 632 982.348 400 c 0
 928.786 168 697.383 -20 465.383 -20 c 0
 233.383 -20 88.7861 168 142.348 400 c 0
 195.908 632 427.312 820 659.312 820 c 0
643.151 750 m 0
 450.151 750 256.905 593 212.348 400 c 0
 167.79 207 288.543 50 481.543 50 c 0
 674.543 50 867.79 207 912.348 400 c 0
 956.905 593 836.151 750 643.151 750 c 0
EndSplineSet
EndChar

StartChar: registered
Encoding: 174 174 205
Width: 940
Flags: W
HStem: -20 70<361.2 615.531> 350 60<494.656 575.804> 540 60<524.669 669.772> 750 70<509.164 763.494>
LayerCount: 2
Fore
SplineSet
609.669 540 m 2
 524.669 540 l 1
 494.656 410 l 1
 579.656 410 l 2
 640.656 410 666.582 440 674.662 475 c 0
 682.743 510 670.669 540 609.669 540 c 2
643.521 600 m 2
 744.521 600 762.129 529 749.662 475 c 0
 740.658 436 711.577 388 659.267 365 c 1
 716.174 200 l 1
 626.174 200 l 1
 575.804 350 l 1
 480.804 350 l 1
 446.174 200 l 1
 366.174 200 l 1
 458.521 600 l 1
 643.521 600 l 2
659.312 820 m 0
 891.312 820 1035.91 632 982.348 400 c 0
 928.786 168 697.383 -20 465.383 -20 c 0
 233.383 -20 88.7861 168 142.348 400 c 0
 195.908 632 427.312 820 659.312 820 c 0
643.151 750 m 0
 450.151 750 256.905 593 212.348 400 c 0
 167.79 207 288.543 50 481.543 50 c 0
 674.543 50 867.79 207 912.348 400 c 0
 956.905 593 836.151 750 643.151 750 c 0
EndSplineSet
EndChar

StartChar: guillemotleft
Encoding: 171 171 206
Width: 600
Flags: W
LayerCount: 2
Fore
SplineSet
453.878 320 m 1
 550.778 90 l 1
 480.778 90 l 1
 363.878 320 l 1
 586.978 550 l 1
 656.978 550 l 1
 453.878 320 l 1
243.878 320 m 1
 340.778 90 l 1
 270.778 90 l 1
 153.878 320 l 1
 376.978 550 l 1
 446.978 550 l 1
 243.878 320 l 1
EndSplineSet
EndChar

StartChar: guillemotright
Encoding: 187 187 207
Width: 600
Flags: W
LayerCount: 2
Fore
SplineSet
293.878 320 m 1
 196.978 550 l 1
 266.978 550 l 1
 383.878 320 l 1
 160.778 90 l 1
 90.7783 90 l 1
 293.878 320 l 1
503.878 320 m 1
 406.978 550 l 1
 476.978 550 l 1
 593.878 320 l 1
 370.778 90 l 1
 300.778 90 l 1
 503.878 320 l 1
EndSplineSet
EndChar

StartChar: acute
Encoding: 180 180 208
Width: 420
VWidth: 0
Flags: W
HStem: 620 180
VStem: 193.139 361.556
LayerCount: 2
Fore
SplineSet
554.694 800 m 1
 268.139 620 l 1
 193.139 620 l 1
 404.694 800 l 1
 554.694 800 l 1
EndSplineSet
EndChar

StartChar: exclamdown
Encoding: 161 161 209
Width: 310
VWidth: 0
Flags: W
HStem: 490 140<245.587 332.986>
VStem: 219.286 140<515.332 604.668>
LayerCount: 2
Fore
SplineSet
47.666 -270 m 1
 172.334 270 l 1
 220.039 390 l 1
 280.039 390 l 1
 272.334 270 l 1
 147.666 -270 l 1
 47.666 -270 l 1
359.286 560 m 0
 350.282 521 312.125 490 273.125 490 c 0
 234.125 490 210.282 521 219.286 560 c 0
 228.29 599 266.447 630 305.447 630 c 0
 344.447 630 368.29 599 359.286 560 c 0
EndSplineSet
EndChar

StartChar: brokenbar
Encoding: 166 166 210
Width: 320
Flags: W
HStem: 880 20G<323.164 407.781>
VStem: 78.4434 329.338
LayerCount: 2
Fore
SplineSet
184.644 280 m 1
 264.644 280 l 1
 158.443 -180 l 1
 78.4434 -180 l 1
 184.644 280 l 1
327.781 900 m 1
 407.781 900 l 1
 301.582 440 l 1
 221.582 440 l 1
 327.781 900 l 1
EndSplineSet
EndChar

StartChar: section
Encoding: 167 167 211
Width: 680
Flags: W
HStem: -20 90<248.628 474.005> 730 90<406.794 598.595>
VStem: 119.248 100<99.1625 170> 627.756 100<640 702.719>
LayerCount: 2
Fore
SplineSet
558.34 322 m 1
 571.571 336 581.266 352 585.421 370 c 0
 602.044 442 524.431 461 448.508 470 c 0
 412.432 474 374.048 481 340.818 493 c 1
 319.124 477 305.507 457 301.582 440 c 0
 287.269 378 348.882 359 420.804 350 c 0
 468.419 344 517.803 337 558.34 322 c 1
265.899 541 m 1
 246.44 565 237.828 597 247.756 640 c 0
 266.687 722 370.312 820 529.312 820 c 0
 688.312 820 746.687 722 727.756 640 c 1
 627.756 640 l 1
 636.76 679 601.534 730 508.534 730 c 0
 415.534 730 356.76 679 347.756 640 c 0
 333.441 578 395.056 559 466.978 550 c 0
 586.515 535 718.436 513 685.421 370 c 0
 677.11 334 658.029 299 629.334 270 c 1
 643.562 245 649.175 213 639.248 170 c 0
 616.161 70 509.383 -20 335.383 -20 c 0
 161.383 -20 96.1611 70 119.248 170 c 1
 219.248 170 l 1
 205.396 110 259.161 70 356.161 70 c 0
 453.161 70 525.396 110 539.248 170 c 0
 555.87 242 478.257 261 402.334 270 c 0
 297.104 282 173.186 317 201.582 440 c 0
 209.432 474 231.743 510 265.899 541 c 1
EndSplineSet
EndChar

StartChar: endash
Encoding: 8211 8211 213
Width: 670
VWidth: 0
Flags: W
HStem: 285 70<171.958 655.798>
LayerCount: 2
Fore
SplineSet
171.958 355 m 1
 671.958 355 l 1
 655.798 285 l 1
 155.798 285 l 1
 171.958 355 l 1
EndSplineSet
EndChar

StartChar: guilsinglleft
Encoding: 8249 8249 214
Width: 390
Flags: W
VStem: 153.878 293.1
LayerCount: 2
Fore
SplineSet
243.878 320 m 1
 340.778 90 l 1
 270.778 90 l 1
 153.878 320 l 1
 376.978 550 l 1
 446.978 550 l 1
 243.878 320 l 1
EndSplineSet
EndChar

StartChar: guilsinglright
Encoding: 8250 8250 215
Width: 390
Flags: W
VStem: 90.7783 293.1
LayerCount: 2
Fore
SplineSet
293.878 320 m 1
 196.978 550 l 1
 266.978 550 l 1
 383.878 320 l 1
 160.778 90 l 1
 90.7783 90 l 1
 293.878 320 l 1
EndSplineSet
EndChar

StartChar: ellipsis
Encoding: 8230 8230 216
Width: 860
VWidth: 0
Flags: W
HStem: 0 140<152.462 239.86 402.462 489.86 652.462 739.86>
VStem: 126.161 140<25.3323 114.668> 376.161 140<25.3323 114.668> 626.161 140<25.3323 114.668>
CounterMasks: 1 70
LayerCount: 2
Fore
SplineSet
516.161 70 m 0
 507.157 31 469 0 430 0 c 0
 391 0 367.157 31 376.161 70 c 0
 385.165 109 423.321 140 462.321 140 c 0
 501.321 140 525.165 109 516.161 70 c 0
766.161 70 m 0
 757.157 31 719 0 680 0 c 0
 641 0 617.157 31 626.161 70 c 0
 635.165 109 673.321 140 712.321 140 c 0
 751.321 140 775.165 109 766.161 70 c 0
266.161 70 m 0
 257.157 31 219 0 180 0 c 0
 141 0 117.157 31 126.161 70 c 0
 135.165 109 173.321 140 212.321 140 c 0
 251.321 140 275.165 109 266.161 70 c 0
EndSplineSet
LCarets2: 2 0 0 
Ligature2: "'liga' Latin Standard Ligatures-1" period period period
EndChar

StartChar: trademark
Encoding: 8482 8482 217
Width: 830
VWidth: 0
Flags: W
HStem: 915 45<281.634 366.244 416.244 511.244>
LayerCount: 2
Fore
SplineSet
894.286 560 m 1
 844.286 560 l 1
 917.01 875 l 1
 719.286 560 l 1
 704.286 560 l 1
 689.286 560 l 1
 637.01 875 l 1
 564.286 560 l 1
 514.286 560 l 1
 606.634 960 l 1
 656.634 960 l 1
 671.634 960 l 1
 723.91 645 l 1
 921.634 960 l 1
 936.634 960 l 1
 986.634 960 l 1
 894.286 560 l 1
271.244 915 m 1
 281.634 960 l 1
 376.634 960 l 1
 426.634 960 l 1
 521.634 960 l 1
 511.244 915 l 1
 416.244 915 l 1
 334.286 560 l 1
 284.286 560 l 1
 366.244 915 l 1
 271.244 915 l 1
EndSplineSet
EndChar

StartChar: emdash
Encoding: 8212 8212 218
Width: 970
VWidth: 0
Flags: W
HStem: 285 70<171.958 955.798>
LayerCount: 2
Fore
SplineSet
171.958 355 m 1
 971.958 355 l 1
 955.798 285 l 1
 155.798 285 l 1
 171.958 355 l 1
EndSplineSet
EndChar

StartChar: afii00208
Encoding: 8213 8213 219
Width: 970
VWidth: 0
Flags: W
HStem: 285 70<171.958 955.798>
LayerCount: 2
Fore
SplineSet
171.958 355 m 1
 971.958 355 l 1
 955.798 285 l 1
 155.798 285 l 1
 171.958 355 l 1
EndSplineSet
EndChar

StartChar: ordfeminine
Encoding: 170 170 220
Width: 360
VWidth: 0
Flags: W
HStem: 550 45<255.079 359.485 444.997 452.132> 705 35<276.388 412.762> 828 42<310.691 420.51>
VStem: 389.366 62.7656<572.078 591.386>
LayerCount: 2
Fore
SplineSet
412.762 705 m 1
 332.762 705 l 2
 294.762 705 258.837 688 250.064 650 c 0
 241.984 615 269.366 595 307.366 595 c 0
 347.366 595 380.215 616 399.603 648 c 1
 412.762 705 l 1
287.769 770 m 1
 237.769 770 l 1
 251.852 831 309.855 870 380.355 870 c 0
 450.855 870 491.852 831 477.769 770 c 2
 446.602 635 l 2
 440.368 608 444.521 600 462.521 600 c 1
 452.132 555 l 1
 413.132 555 389.133 568 389.366 595 c 1
 361.133 568 324.978 550 286.978 550 c 0
 219.978 550 187.366 595 200.064 650 c 0
 214.378 712 272.843 740 334.843 740 c 2
 420.843 740 l 1
 427.769 770 l 2
 435.618 804 413.159 828 371.159 828 c 0
 327.159 828 295.618 804 287.769 770 c 1
EndSplineSet
EndChar

StartChar: uni00AD
Encoding: 173 173 221
Width: 560
VWidth: 0
Flags: W
HStem: 285 70<161.958 545.798>
LayerCount: 2
Fore
SplineSet
161.958 355 m 1
 561.958 355 l 1
 545.798 285 l 1
 145.798 285 l 1
 161.958 355 l 1
EndSplineSet
EndChar

StartChar: degree
Encoding: 176 176 222
Width: 380
VWidth: 0
Flags: W
HStem: 670 60<298.155 430.385> 930 60<332.856 465.087>
LayerCount: 2
Fore
SplineSet
404.707 930 m 0
 349.707 930 294.318 885 281.621 830 c 0
 268.923 775 303.534 730 358.534 730 c 0
 413.534 730 468.923 775 481.621 830 c 0
 494.318 885 459.707 930 404.707 930 c 0
418.56 990 m 0
 506.56 990 561.938 918 541.621 830 c 0
 521.305 742 432.682 670 344.682 670 c 0
 256.682 670 201.305 742 221.621 830 c 0
 241.937 918 330.56 990 418.56 990 c 0
EndSplineSet
EndChar

StartChar: plusminus
Encoding: 177 177 223
Width: 560
VWidth: 0
Flags: W
HStem: 80 70<114.63 498.47> 370 70<181.582 325.421 421.582 565.421>
LayerCount: 2
Fore
SplineSet
373.1 230 m 1
 293.1 230 l 1
 325.421 370 l 1
 165.421 370 l 1
 181.582 440 l 1
 341.582 440 l 1
 373.903 580 l 1
 453.903 580 l 1
 421.582 440 l 1
 581.582 440 l 1
 565.421 370 l 1
 405.421 370 l 1
 373.1 230 l 1
114.63 150 m 1
 514.63 150 l 1
 498.47 80 l 1
 98.4697 80 l 1
 114.63 150 l 1
EndSplineSet
EndChar

StartChar: uni00B2
Encoding: 178 178 224
Width: 360
Flags: W
HStem: 560 45<249.675 434.286> 925 45<335.166 441.371>
VStem: 184.286 313.799
LayerCount: 2
Fore
SplineSet
448.085 858 m 0
 456.627 895 438.553 925 393.553 925 c 0
 348.553 925 316.627 895 308.085 858 c 1
 258.085 858 l 1
 272.398 920 332.942 970 403.942 970 c 0
 474.942 970 512.398 920 498.085 858 c 0
 485.156 802 431.922 762 378.534 730 c 0
 322.685 696 261.911 658 249.675 605 c 1
 444.675 605 l 1
 434.286 560 l 1
 184.286 560 l 1
 194.675 605 l 2
 208.297 664 266.455 708 321.997 745 c 0
 369.153 776 436.541 808 448.085 858 c 0
EndSplineSet
EndChar

StartChar: uni00B3
Encoding: 179 179 225
Width: 360
Flags: W
HStem: 550 45<268.769 386.26> 748 40<326.924 408.34> 925 45<340.166 446.362>
VStem: 209.682 293.403
LayerCount: 2
Fore
SplineSet
209.682 670 m 1
 259.682 670 l 1
 249.985 628 271.366 595 322.366 595 c 0
 373.366 595 409.985 628 419.682 670 c 0
 429.378 712 408.689 748 357.689 748 c 2
 317.689 748 l 1
 326.924 788 l 1
 366.924 788 l 2
 411.924 788 444.312 820 452.97 857.5 c 0
 461.627 895 443.553 925 398.553 925 c 0
 353.553 925 321.627 895 313.085 858 c 1
 263.085 858 l 1
 277.398 920 337.942 970 408.942 970 c 0
 479.942 970 517.398 920 503.085 858 c 0
 494.543 821 470.155 789 436.538 769 c 1
 466.92 749 479.84 714 469.682 670 c 0
 453.752 601 389.978 550 311.978 550 c 0
 233.978 550 193.752 601 209.682 670 c 1
EndSplineSet
EndChar

StartChar: periodcentered
Encoding: 183 183 226
Width: 320
VWidth: 0
Flags: W
HStem: 240 140<187.87 275.268>
VStem: 161.569 140<265.332 354.668>
LayerCount: 2
Fore
SplineSet
301.569 310 m 0
 292.565 271 254.408 240 215.408 240 c 0
 176.408 240 152.565 271 161.569 310 c 0
 170.573 349 208.729 380 247.729 380 c 0
 286.729 380 310.573 349 301.569 310 c 0
EndSplineSet
EndChar

StartChar: uni00B9
Encoding: 185 185 227
Width: 290
Flags: W
HStem: 822 48<245.855 330.599>
VStem: 234.773 211.86
LayerCount: 2
Fore
SplineSet
377.01 875 m 1
 348.853 844 283.773 822 234.773 822 c 1
 245.855 870 l 1
 303.855 870 385.782 913 396.634 960 c 1
 446.634 960 l 1
 354.286 560 l 1
 304.286 560 l 1
 377.01 875 l 1
EndSplineSet
EndChar

StartChar: ordmasculine
Encoding: 186 186 228
Width: 360
VWidth: 0
Flags: W
HStem: 550 45<257.292 378.668> 828 42<305.041 416.998>
LayerCount: 2
Fore
SplineSet
366.159 828 m 0
 323.159 828 280.618 804 265.843 740 c 2
 249.682 670 l 2
 237.215 616 269.366 595 312.366 595 c 0
 355.366 595 397.215 616 409.682 670 c 2
 425.843 740 l 2
 440.618 804 409.159 828 366.159 828 c 0
375.855 870 m 0
 447.855 870 495.235 824 475.843 740 c 2
 459.682 670 l 2
 440.75 588 373.978 550 301.978 550 c 0
 229.978 550 180.751 588 199.682 670 c 2
 215.843 740 l 2
 235.235 824 303.855 870 375.855 870 c 0
EndSplineSet
EndChar

StartChar: questiondown
Encoding: 191 191 229
Width: 600
VWidth: 0
Flags: W
HStem: -20 90<215.831 389.585> 660 140<414.835 502.233>
VStem: 374.286 100<477.291 560> 388.534 140<685.332 774.668> 466.174 100<146.734 260>
LayerCount: 2
Fore
SplineSet
388.534 730 m 0xd0
 397.538 769 435.694 800 474.694 800 c 0
 513.694 800 537.538 769 528.534 730 c 0
 519.53 691 481.373 660 442.373 660 c 0
 403.373 660 379.53 691 388.534 730 c 0xd0
470.025 260 m 1
 566.952 290 l 1
 572.949 264 573.792 233 566.174 200 c 0xc8
 535.468 67 408.383 -20 275.383 -20 c 0
 142.383 -20 55.4678 67 86.1738 200 c 0
 111.8 311 191.728 354 284.656 410 c 0
 341.506 444 357.433 487 374.286 560 c 1
 474.286 560 l 1xe0
 450.507 457 437.425 409 318.495 340 c 0
 246.799 298 203.027 273 186.174 200 c 0
 168.166 122 217.161 70 296.161 70 c 0
 375.161 70 448.166 122 466.174 200 c 0xc8
 471.021 221 473.332 244 470.025 260 c 1
EndSplineSet
EndChar

StartChar: dagger
Encoding: 8224 8224 230
Width: 580
VWidth: 0
Flags: W
HStem: 550 50<208.521 386.978 458.521 636.978> 880 20G<463.164 527.781>
LayerCount: 2
Fore
SplineSet
527.781 900 m 1
 458.521 600 l 1
 648.521 600 l 1
 636.978 550 l 1
 446.978 550 l 1
 257.666 -270 l 1
 197.666 -270 l 1
 386.978 550 l 1
 196.978 550 l 1
 208.521 600 l 1
 398.521 600 l 1
 467.781 900 l 1
 527.781 900 l 1
EndSplineSet
EndChar

StartChar: bullet
Encoding: 8226 8226 231
Width: 440
VWidth: 0
Flags: W
HStem: 180 260<238.959 344.18>
VStem: 161.569 260
LayerCount: 2
Fore
SplineSet
421.569 310 m 0
 404.946 238 333.557 180 261.557 180 c 0
 189.557 180 144.946 238 161.569 310 c 0
 178.191 382 249.582 440 321.582 440 c 0
 393.582 440 438.191 382 421.569 310 c 0
EndSplineSet
EndChar

StartChar: uni2010
Encoding: 8208 8208 232
Width: 560
VWidth: 0
Flags: W
HStem: 285 70<161.958 545.798>
LayerCount: 2
Fore
SplineSet
161.958 355 m 1
 561.958 355 l 1
 545.798 285 l 1
 145.798 285 l 1
 161.958 355 l 1
EndSplineSet
EndChar

StartChar: uni2011
Encoding: 8209 8209 233
Width: 560
VWidth: 0
Flags: W
HStem: 285 70<161.958 545.798>
LayerCount: 2
Fore
SplineSet
161.958 355 m 1
 561.958 355 l 1
 545.798 285 l 1
 145.798 285 l 1
 161.958 355 l 1
EndSplineSet
EndChar

StartChar: perthousand
Encoding: 8240 8240 234
Width: 1170
VWidth: 0
Flags: W
HStem: -10 65<546.968 650.885 906.968 1010.89> 0 21G<90 208.617> 285 65<587.61 691.527 947.61 1051.53> 450 65<303.167 407.085> 745 65<343.809 447.727> 780 20G<816.077 934.694>
LayerCount: 2
Fore
SplineSet
1020.8 350 m 0xb0
 1114.8 350 1162.1 269 1139.25 170 c 0
 1116.39 71 1031.69 -10 937.691 -10 c 0
 843.691 -10 796.392 71 819.248 170 c 0
 842.104 269 926.804 350 1020.8 350 c 0xb0
1005.8 285 m 0
 948.798 285 911.253 222 899.248 170 c 0
 887.242 118 895.697 55 952.697 55 c 0
 1009.7 55 1047.24 118 1059.25 170 c 0
 1071.25 222 1062.8 285 1005.8 285 c 0
645.798 285 m 0
 588.798 285 551.253 222 539.248 170 c 0
 527.242 118 535.697 55 592.697 55 c 0
 649.697 55 687.242 118 699.248 170 c 0
 711.253 222 702.798 285 645.798 285 c 0
660.804 350 m 0
 754.804 350 802.104 269 779.248 170 c 0
 756.392 71 671.691 -10 577.691 -10 c 0
 483.691 -10 436.392 71 459.248 170 c 0
 482.104 269 566.804 350 660.804 350 c 0
401.997 745 m 0x38
 344.997 745 307.452 682 295.447 630 c 0
 283.441 578 291.897 515 348.897 515 c 0
 405.897 515 443.441 578 455.447 630 c 0
 467.452 682 458.997 745 401.997 745 c 0x38
417.003 810 m 0
 511.003 810 558.303 729 535.447 630 c 0
 512.591 531 427.891 450 333.891 450 c 0
 239.891 450 192.591 531 215.447 630 c 0
 238.303 729 323.003 810 417.003 810 c 0
834.694 800 m 1x74
 934.694 800 l 1
 190 0 l 1
 90 0 l 1
 834.694 800 l 1x74
EndSplineSet
EndChar

StartChar: dotlessi
Encoding: 305 305 235
Width: 320
VWidth: 0
Flags: W
HStem: 0 21G<110 214.617> 580 20G<243.903 348.521>
VStem: 110 238.521
AnchorPoint: "hook_above" 316.99 680 basechar 0
AnchorPoint: "diac_top" 310.064 650 basechar 0
AnchorPoint: "ogonek" 179.234 40 basechar 0
AnchorPoint: "diac_bottom" 148.457 -50 basechar 0
LayerCount: 2
Fore
SplineSet
248.521 600 m 1
 348.521 600 l 1
 210 0 l 1
 110 0 l 1
 248.521 600 l 1
EndSplineSet
EndChar

StartChar: uni0237
Encoding: 567 567 236
Width: 340
VWidth: 0
Flags: W
HStem: -290 90<-46.1738 50.8317> 580 20G<263.903 368.521>
AnchorPoint: "diac_top" 330.064 650 basechar 0
AnchorPoint: "diac_bottom" 347.2 -50 basechar 0
LayerCount: 2
Fore
SplineSet
206.913 -100 m 2
 179.901 -217 80.0479 -290 -66.9521 -290 c 1
 -46.1738 -200 l 1
 14.8262 -200 88.9053 -178 106.913 -100 c 2
 268.521 600 l 1
 368.521 600 l 1
 206.913 -100 l 2
EndSplineSet
EndChar

StartChar: ae
Encoding: 230 230 237
Width: 1060
VWidth: 0
Flags: W
HStem: -20 90<248.544 432.786 653.331 850.984> 290 70<285.805 546.952 663.112 967.723> 535 85<365.328 550.323 756.929 937.206>
VStem: 196.965 100<420 473.835>
AnchorPoint: "diac_top" 680.064 650 basechar 0
AnchorPoint: "diac_bottom" 518.457 -50 basechar 0
LayerCount: 2
Fore
SplineSet
663.112 360 m 1
 963.112 360 l 1
 992.895 489 938.515 535 853.515 535 c 0
 768.515 535 692.895 489 663.112 360 c 1
526.174 200 m 1
 546.952 290 l 1
 386.952 290 l 2
 310.952 290 239.333 257 221.557 180 c 0
 205.396 110 260.161 70 336.161 70 c 0
 418.161 70 483.626 111 520.402 175 c 1
 526.174 200 l 1
873.139 620 m 0
 1017.14 620 1101.9 528 1063.11 360 c 2
 1046.95 290 l 1
 646.952 290 l 1
 626.174 200 l 2
 603.317 101 674.161 70 746.161 70 c 0
 818.161 70 903.317 101 926.174 200 c 1
 1026.17 200 l 1
 990.851 47 853.383 -20 725.383 -20 c 0
 641.383 -20 566.078 9 534.854 73 c 1
 481.617 20 404.383 -20 295.383 -20 c 0
 162.383 -20 96.1611 70 121.557 180 c 0
 150.184 304 268.112 360 393.112 360 c 2
 563.112 360 l 1
 576.965 420 l 2
 592.433 487 549.515 535 463.515 535 c 0
 377.515 535 312.433 487 296.965 420 c 1
 196.965 420 l 1
 225.131 542 342.139 620 483.139 620 c 0
 569.139 620 633.443 591 663.669 540 c 1
 720.674 592 794.139 620 873.139 620 c 0
EndSplineSet
EndChar

StartChar: AE
Encoding: 198 198 238
Width: 1000
VWidth: 0
Flags: W
HStem: 0 90<600.778 930> 165 90<322.871 518.094> 355 90<682.736 971.958> 710 90<743.916 1083.92>
AnchorPoint: "diac_top" 836.238 850 basechar 0
AnchorPoint: "diac_bottom" 628.457 -50 basechar 0
LayerCount: 2
Fore
SplineSet
538.871 255 m 1
 640.915 697 l 1
 322.871 255 l 1
 538.871 255 l 1
600.778 90 m 1
 950.778 90 l 1
 930 0 l 1
 480 0 l 1
 518.094 165 l 1
 258.094 165 l 1
 140 0 l 1
 30 0 l 1
 614.694 800 l 1
 664.694 800 l 1
 714.694 800 l 1
 1104.69 800 l 1
 1083.92 710 l 1
 743.916 710 l 1
 682.736 445 l 1
 992.736 445 l 1
 971.958 355 l 1
 661.958 355 l 1
 600.778 90 l 1
EndSplineSet
EndChar

StartChar: Aring
Encoding: 197 197 239
Width: 800
VWidth: 0
HStem: 0 21G<30 152.375 656.86 770> 165 90<297.871 619.871> 960 60<563.907 667.082>
AnchorPoint: "diac_top" 637.794 1030 basechar 0
LayerCount: 2
Fore
SplineSet
619.871 255 m 1
 554.912 671 l 1
 297.871 255 l 1
 619.871 255 l 1
635.485 1020 m 0
 705.485 1020 747.557 964 731.627 895 c 0
 720.314 846 683.618 804 637.77 783 c 1
 770 0 l 1
 660 0 l 1
 634.094 165 l 1
 242.093 165 l 1
 140 0 l 1
 30 0 l 1
 524.001 784 l 1
 488.618 804 470.545 847 481.627 895 c 0
 497.557 964 567.485 1020 635.485 1020 c 0
621.634 960 m 0
 586.634 960 549.938 931 541.627 895 c 0
 533.315 859 556.621 830 591.621 830 c 0
 628.621 830 663.315 859 671.627 895 c 0
 679.938 931 658.634 960 621.634 960 c 0
EndSplineSet
EndChar

StartChar: multiply
Encoding: 215 215 240
Width: 560
VWidth: 0
Flags: W
HStem: 133 375
LayerCount: 2
Fore
SplineSet
509.249 183 m 1
 447.705 133 l 1
 341.565 271 l 1
 171.705 133 l 1
 134.249 183 l 1
 304.108 321 l 1
 197.969 459 l 1
 258.281 508 l 1
 364.421 370 l 1
 534.281 508 l 1
 572.969 459 l 1
 403.108 321 l 1
 509.249 183 l 1
EndSplineSet
EndChar

StartChar: divide
Encoding: 247 247 241
Width: 560
VWidth: 0
Flags: W
HStem: 90 120<273.743 355.517> 285 70<161.958 545.798> 430 120<352.238 434.012>
CounterMasks: 1 e0
LayerCount: 2
Fore
SplineSet
374.63 150 m 0
 367.012 117 333.778 90 300.778 90 c 0
 267.778 90 247.012 117 254.63 150 c 0
 262.249 183 295.482 210 328.482 210 c 0
 361.482 210 382.249 183 374.63 150 c 0
453.125 490 m 0
 445.507 457 412.273 430 379.273 430 c 0
 346.273 430 325.507 457 333.125 490 c 0
 340.744 523 373.978 550 406.978 550 c 0
 439.978 550 460.744 523 453.125 490 c 0
161.958 355 m 1
 561.958 355 l 1
 545.798 285 l 1
 145.798 285 l 1
 161.958 355 l 1
EndSplineSet
EndChar

StartChar: thorn
Encoding: 254 254 242
Width: 710
VWidth: 0
Flags: W
HStem: -20 85<288.271 474.101> 530 90<412.37 579.122> 880 20G<303.164 407.781>
LayerCount: 2
Fore
SplineSet
307.781 900 m 1
 407.781 900 l 1
 338.521 600 l 1
 321.437 526 l 1
 370.903 580 441.139 620 523.139 620 c 0
 679.139 620 749.82 519 713.112 360 c 2
 690.025 260 l 2
 646.622 72 519.383 -20 375.383 -20 c 0
 300.383 -20 246.771 12 213.391 58 c 1
 137.666 -270 l 1
 37.666 -270 l 1
 238.521 600 l 1
 307.781 900 l 1
301.352 439 m 1
 237.862 164 l 1
 253.241 105 303.007 65 375.007 65 c 0
 460.007 65 555.626 111 590.025 260 c 2
 613.112 360 l 2
 642.895 489 574.36 530 482.36 530 c 0
 402.36 530 333.74 484 301.352 439 c 1
EndSplineSet
EndChar

StartChar: germandbls
Encoding: 223 223 243
Width: 850
VWidth: 0
Flags: W
HStem: -270 90<258.443 550.073> 0 21G<140 244.617> 520 80<178.521 260.052 378.521 730.052> 810 90<459.997 557.003>
LayerCount: 2
Fore
SplineSet
160.052 520 m 1
 178.521 600 l 1
 278.521 600 l 1
 303.916 710 l 2
 330.928 827 430.781 900 577.781 900 c 1
 557.003 810 l 1
 496.003 810 421.924 788 403.916 710 c 2
 378.521 600 l 1
 858.521 600 l 1
 840.052 520 l 1
 571.873 268 l 1
 716.333 257 821.095 178 780 0 c 0
 735.212 -194 570.666 -270 407.666 -270 c 2
 237.666 -270 l 1
 258.443 -180 l 1
 428.443 -180 l 2
 524.443 -180 648.141 -138 680 0 c 0
 711.859 138 607.557 180 511.557 180 c 2
 441.557 180 l 1
 450.791 220 l 1
 462.334 270 l 1
 730.052 520 l 1
 360.052 520 l 1
 240 0 l 1
 140 0 l 1
 260.052 520 l 1
 160.052 520 l 1
EndSplineSet
EndChar

StartChar: Oslash
Encoding: 216 216 244
Width: 800
VWidth: 0
Flags: W
HStem: -20 90<304.795 533.924> 0 21G<80 168.784> 735 85<451.896 675.917> 780 20G<815.677 904.694>
AnchorPoint: "diac_top" 596.238 850 basechar 0
AnchorPoint: "diac_bottom" 388.457 -50 basechar 0
LayerCount: 2
Fore
SplineSet
834.694 800 m 1x10
 904.694 800 l 1
 819.916 710 l 1
 848.604 661 857.828 597 840.052 520 c 2
 782.334 270 l 2
 740.316 88 572.383 -20 395.383 -20 c 0x90
 312.383 -20 241.924 4 195.082 48 c 1
 150 0 l 1
 80 0 l 1
 163.316 88 l 1
 134.167 135 125.481 197 142.334 270 c 2
 200.052 520 l 2
 242.993 706 412.312 820 589.312 820 c 0x60
 672.312 820 741.54 795 787.151 750 c 1
 834.694 800 l 1x10
269.09 126 m 1
 298.778 90 350.161 70 416.161 70 c 0
 547.161 70 654.63 150 682.334 270 c 2
 740.052 520 l 2
 749.286 560 748.366 595 739.293 625 c 1
 269.09 126 l 1
242.94 173 m 1
 715.605 674 l 1
 685.609 713 634.688 735 569.688 735 c 0x20
 442.688 735 329.833 649 300.052 520 c 2
 242.334 270 l 2
 234.023 234 234.404 201 242.94 173 c 1
EndSplineSet
EndChar

StartChar: Thorn
Encoding: 222 222 245
Width: 740
VWidth: 0
Flags: W
HStem: 0 21G<100 204.617> 220 85<270.415 594.345> 615 85<361.607 649.13> 780 20G<280.077 384.694>
LayerCount: 2
Fore
SplineSet
581.607 700 m 2
 782.607 700 811.133 568 786.199 460 c 0
 761.266 352 671.791 220 470.791 220 c 2
 250.791 220 l 1
 200 0 l 1
 100 0 l 1
 284.694 800 l 1
 384.694 800 l 1
 361.607 700 l 1
 581.607 700 l 2
561.984 615 m 2
 341.984 615 l 1
 270.415 305 l 1
 490.415 305 l 2
 613.415 305 669.808 389 686.199 460 c 0
 702.591 531 684.984 615 561.984 615 c 2
EndSplineSet
EndChar

StartChar: oslash
Encoding: 248 248 246
Width: 660
VWidth: 0
Flags: W
HStem: -20 90<251.925 450.588> 0 21G<70 154.951> 535 85<354.341 542.034> 580 20G<643.61 728.521>
AnchorPoint: "diac_top" 490.064 650 basechar 0
AnchorPoint: "diac_bottom" 307.2 -50 basechar 0
AnchorPoint: "cedilla" 366.238 40 basechar 0
AnchorPoint: "ogonek" 366.238 40 basechar 0
LayerCount: 2
Fore
SplineSet
663.521 600 m 1x10
 728.521 600 l 1
 658.129 529 l 1
 682.433 487 689.273 430 673.112 360 c 2
 640.791 220 l 2
 603.159 57 469.383 -20 325.383 -20 c 0x90
 259.383 -20 202.076 -4 164.926 30 c 1
 135 0 l 1
 70 0 l 1
 135.237 66 l 1
 112.011 104 105.784 155 120.791 220 c 2
 153.112 360 l 2
 191.898 528 329.139 620 473.139 620 c 0x60
 538.139 620 592.752 601 629.672 566 c 1
 663.521 600 l 1x10
453.515 535 m 0x20
 368.515 535 282.895 489 253.112 360 c 2
 220.791 220 l 2
 214.327 192 214.017 169 217.63 150 c 1
 558.049 494 l 1
 535.744 523 497.515 535 453.515 535 c 0x20
578.429 448 m 1
 240.472 106 l 1
 263.7 81 302.161 70 346.161 70 c 0x80
 431.161 70 515.626 111 540.791 220 c 2
 573.112 360 l 2
 581.193 395 581.888 424 578.429 448 c 1
EndSplineSet
EndChar

StartChar: cedilla
Encoding: 184 184 247
Width: 560
VWidth: 0
Flags: W
HStem: -370 60<115.318 312.004> -170 60<178.604 333.681>
VStem: 24.5918 80<-293.219 -240>
LayerCount: 2
Fore
SplineSet
254.617 20 m 1
 324.617 20 l 1
 178.604 -110 l 1
 254.604 -110 l 2
 383.604 -110 442.6 -162 424.592 -240 c 0
 406.584 -318 323.579 -370 194.579 -370 c 0
 65.5791 -370 6.58398 -318 24.5918 -240 c 1
 104.592 -240 l 1
 92.8174 -291 143.431 -310 208.431 -310 c 0
 273.431 -310 332.817 -291 344.592 -240 c 0
 356.366 -189 305.752 -170 240.752 -170 c 2
 110.752 -170 l 1
 104.604 -110 l 1
 254.617 20 l 1
EndSplineSet
EndChar

StartChar: ampersand
Encoding: 38 38 248
Width: 800
VWidth: 0
Flags: W
HStem: -20 90<273.988 476.356> 0 21G<628.921 760> 730 90<472.414 604.737>
VStem: 677.729 100<298.09 380>
LayerCount: 2
Fore
SplineSet
426.729 380 m 1xb0
 317.648 332 246.721 289 228.482 210 c 0
 211.167 135 263.161 70 366.161 70 c 0
 440.161 70 504.855 99 556.399 149 c 1
 426.729 380 l 1xb0
548.534 730 m 0
 484.534 730 438.837 688 425.447 630 c 0
 409.979 563 450.59 518 478.587 492 c 1
 547.975 524 600.672 566 615.447 630 c 0
 628.837 688 603.534 730 548.534 730 c 0
569.312 820 m 0
 681.312 820 739.688 735 715.447 630 c 0
 692.822 532 613.508 470 523.888 424 c 1
 625.64 241 l 1
 648.104 282 665.956 329 677.729 380 c 1
 777.729 380 l 1
 758.799 298 721.253 222 672.478 158 c 1
 760 0 l 1
 640 0 l 1x70
 596.238 79 l 1
 522.925 17 435.383 -20 345.383 -20 c 0
 183.383 -20 98.0078 78 128.482 210 c 0
 156.417 331 266.116 399 382.121 451 c 1
 354.74 484 306.285 547 325.447 630 c 0
 349.688 735 457.312 820 569.312 820 c 0
EndSplineSet
EndChar

StartChar: currency
Encoding: 164 164 249
Width: 1040
VWidth: 0
Flags: W
HStem: -20 100<420.118 663.025> 720 100<561.885 804.765>
LayerCount: 2
Fore
SplineSet
686.225 720 m 0
 510.225 720 332.98 576 292.348 400 c 0
 251.483 223 362.47 80 538.47 80 c 0
 715.47 80 891.483 223 932.348 400 c 0
 972.98 576 863.225 720 686.225 720 c 0
357.235 824 m 1
 429.534 730 l 1
 513.463 786 611.312 820 709.312 820 c 0
 807.312 820 889.463 786 948.534 730 c 1
 1064.24 824 l 1
 1117.84 753 l 1
 1002.14 659 l 1
 1042.75 588 1054.97 498 1032.35 400 c 0
 1009.72 302 955.944 212 882.321 140 c 1
 954.62 46 l 1
 868.229 -25 l 1
 796.161 70 l 1
 711.001 13 613.383 -20 515.383 -20 c 0
 417.383 -20 335.001 13 277.161 70 c 1
 161.229 -25 l 1
 106.62 46 l 1
 222.321 140 l 1
 182.944 212 169.723 302 192.348 400 c 0
 214.973 498 269.75 588 342.143 659 c 1
 269.844 753 l 1
 357.235 824 l 1
EndSplineSet
EndChar

StartChar: uni00B5
Encoding: 181 181 250
Width: 680
VWidth: 0
Flags: W
HStem: -20 90<307.545 485.877> 580 20G<233.903 338.521 633.903 738.521>
LayerCount: 2
Fore
SplineSet
200 0 m 1
 137.666 -270 l 1
 37.666 -270 l 1
 100 0 l 1
 238.521 600 l 1
 338.521 600 l 1
 247.559 206 l 1
 254.783 142 296.161 70 396.161 70 c 0
 464.161 70 524.241 105 541.557 180 c 2
 638.521 600 l 1
 738.521 600 l 1
 641.557 180 l 2
 613.391 58 517.383 -20 395.383 -20 c 0
 281.383 -20 238.313 62 223.549 102 c 1
 200 0 l 1
EndSplineSet
EndChar

StartChar: paragraph
Encoding: 182 182 251
Width: 740
VWidth: 0
Flags: W
HStem: 0 21G<320 424.617 540 644.617> 320 85<326.355 393.878> 715 85<381.14 485.07 585.07 705.07>
LayerCount: 2
Fore
SplineSet
413.502 405 m 1
 485.07 715 l 1
 362.07 715 305.678 631 289.286 560 c 0
 272.895 489 290.502 405 413.502 405 c 1
585.07 715 m 1
 420 0 l 1
 320 0 l 1
 393.878 320 l 1
 192.878 320 164.353 452 189.286 560 c 0
 214.22 668 303.694 800 504.694 800 c 2
 824.694 800 l 1
 640 0 l 1
 540 0 l 1
 705.07 715 l 1
 585.07 715 l 1
EndSplineSet
EndChar

StartChar: macron
Encoding: 175 175 252
Width: 560
VWidth: 0
Flags: W
HStem: 740 60<264.694 650.843>
LayerCount: 2
Fore
SplineSet
264.694 800 m 1
 664.694 800 l 1
 650.843 740 l 1
 250.843 740 l 1
 264.694 800 l 1
EndSplineSet
EndChar

